<svg width="1440" height="820" viewBox="0 0 1440 820" fill="none" xmlns="http://www.w3.org/2000/svg">
<mask id="mask0_757_5301" style="mask-type:luminance" maskUnits="userSpaceOnUse" x="-7" y="401" width="195" height="432">
<path d="M-7 401H187.667V833H-7V401Z" fill="white"/>
</mask>
<g mask="url(#mask0_757_5301)">
<path d="M5.68755 416.46C5.67713 416.46 5.67192 416.46 5.66671 416.46C5.11463 416.454 4.66151 416.892 4.65109 417.439L4.30734 440.085C4.30213 440.631 4.72921 441.079 5.27088 441.095C5.27609 441.095 5.2865 441.095 5.29171 441.095C5.8438 441.105 6.29692 440.668 6.30734 440.116L6.64588 417.47C6.6563 416.928 6.22921 416.48 5.68755 416.46ZM14.2917 455.887C13.875 455.871 13.4792 456.116 13.323 456.527C12.3907 458.996 11.4688 461.423 10.1563 464.111C8.84379 466.809 7.13025 469.777 5.39067 472.788C5.11463 473.267 5.2813 473.876 5.76046 474.152C5.9063 474.236 6.06255 474.277 6.2188 474.283C6.57817 474.293 6.92713 474.116 7.11984 473.788V473.783C8.849 470.788 10.6042 467.756 11.9532 464.98C13.3073 462.204 14.2605 459.694 15.1928 457.23C15.3855 456.72 15.125 456.142 14.6094 455.949C14.5053 455.908 14.4011 455.887 14.2917 455.887ZM18.8334 473.803C18.3959 473.788 17.9844 474.064 17.8438 474.501C16.6511 478.288 15.5 481.908 13.0573 485.277C10.5886 488.673 6.77609 491.855 2.83338 495.147C2.4063 495.501 2.349 496.126 2.70317 496.548C2.89588 496.777 3.1615 496.897 3.43755 496.908C3.67192 496.913 3.91151 496.84 4.10942 496.673C8.00005 493.434 12.0313 490.085 14.6719 486.444C17.3334 482.777 18.5625 478.85 19.75 475.095C19.9167 474.574 19.625 474.012 19.099 473.85C19.0105 473.819 18.9219 473.803 18.8334 473.803ZM31.4167 498.116C31.349 498.116 31.2761 498.116 31.2084 498.131C25.2709 499.158 19.0417 500.22 15.0105 502.621C10.8855 505.079 9.10942 508.881 7.45838 512.371V512.376L7.45317 512.392H7.44796C7.21359 512.892 7.42713 513.48 7.92713 513.715C8.05213 513.777 8.18755 513.809 8.31775 513.814C8.70317 513.824 9.08338 513.611 9.25525 513.241L9.26567 513.22C10.9428 509.673 12.5 506.434 16.0365 504.335C19.6771 502.163 25.4688 501.147 31.5521 500.09C32.0938 499.996 32.4584 499.48 32.3646 498.939C32.2813 498.47 31.8803 498.131 31.4167 498.116ZM28.5938 544.428C28.2917 544.418 27.9948 544.543 27.7865 544.788C22.3855 551.298 16.8125 557.996 14.2813 565.788C11.75 573.574 12.2813 582.381 12.7865 590.939C12.8178 591.46 13.2396 591.861 13.7448 591.876C13.7761 591.876 13.8125 591.876 13.8438 591.876C14.3907 591.845 14.8125 591.371 14.7813 590.824C14.2709 582.173 13.7865 573.767 16.1823 566.402C18.573 559.038 23.8646 552.637 29.323 546.059C29.6771 545.637 29.6198 545.006 29.1928 544.658C29.0157 544.512 28.8073 544.434 28.5938 544.428ZM57.698 598.689C57.1771 598.668 56.724 599.059 56.6719 599.585L55.4167 612.105C55.3594 612.652 55.7605 613.142 56.3073 613.194C56.3282 613.199 56.3542 613.199 56.375 613.199C56.8959 613.22 57.349 612.829 57.4011 612.303L58.6563 599.783C58.7136 599.236 58.3125 598.746 57.7657 598.694C57.7448 598.689 57.724 598.689 57.698 598.689ZM2.23442 576.902C2.13025 576.897 2.01567 576.913 1.9063 576.944C1.38025 577.105 1.08338 577.663 1.24484 578.189C3.17713 584.48 5.14588 590.923 8.72921 596.658C12.3073 602.392 17.474 607.376 22.5209 612.256C22.7032 612.439 22.9428 612.527 23.1771 612.538C23.4532 612.548 23.7292 612.449 23.9323 612.236C24.3178 611.84 24.3073 611.21 23.9115 610.829C18.823 605.908 13.849 601.09 10.4219 595.605C7.00005 590.126 5.099 583.939 3.1563 577.605C3.02609 577.189 2.65109 576.918 2.23442 576.902ZM33.6146 598.085C33.5834 598.085 33.5469 598.085 33.5105 598.09C32.9636 598.126 32.5469 598.6 32.5834 599.147L33.625 614.694C33.6615 615.21 34.0782 615.605 34.5834 615.621C34.6198 615.626 34.6563 615.626 34.6875 615.621C35.2396 615.585 35.6563 615.111 35.6198 614.564L34.573 599.017C34.5417 598.501 34.1198 598.105 33.6146 598.085ZM46.2969 595.6C46.2813 595.6 46.2657 595.6 46.2448 595.6C45.698 595.611 45.2553 596.059 45.2605 596.611L45.5157 619.079C45.5261 619.611 45.948 620.043 46.4792 620.064C46.4948 620.064 46.5105 620.064 46.5261 620.064C47.0782 620.059 47.5209 619.605 47.5157 619.059L47.2553 596.585C47.25 596.053 46.823 595.621 46.2969 595.6ZM26.099 658.642C25.75 658.626 25.4011 658.798 25.2084 659.121C24.1146 660.923 22.8959 662.908 22.4428 664.871C21.9792 666.866 22.3125 668.762 22.599 670.439V670.444C22.6823 670.918 23.0834 671.256 23.5469 671.272C23.6146 671.277 23.6823 671.272 23.75 671.262C24.2969 671.168 24.6615 670.652 24.5678 670.111V670.105C24.2709 668.371 24.0261 666.866 24.3855 665.319C24.7553 663.73 25.7761 662.033 26.9167 660.152C27.2032 659.678 27.0521 659.069 26.5782 658.783C26.4271 658.694 26.2657 658.647 26.099 658.642ZM19.6042 656.59C19.1667 656.574 18.7605 656.84 18.6198 657.272C17.5625 660.496 16.4115 663.97 16.6303 667.199C16.8542 670.449 18.4584 673.366 19.9167 676.048L19.9219 676.064C20.099 676.381 20.4219 676.569 20.7657 676.585C20.9375 676.59 21.1146 676.548 21.2761 676.46C21.7605 676.199 21.9428 675.595 21.6771 675.111L21.6719 675.1C20.1667 672.335 18.8125 669.809 18.625 667.064C18.4323 664.298 19.4271 661.22 20.5157 657.892C20.6875 657.371 20.4011 656.809 19.875 656.637C19.7865 656.605 19.6928 656.59 19.6042 656.59ZM13.1146 652.236C12.7344 652.22 12.3646 652.428 12.1823 652.788C9.349 658.48 6.24484 664.611 6.80213 669.439C7.36984 674.397 11.7084 677.772 15.5261 680.809C15.7032 680.949 15.9063 681.022 16.1146 681.027C16.4167 681.038 16.724 680.908 16.9323 680.652C17.2761 680.225 17.2032 679.595 16.7709 679.251C12.7448 676.053 9.23963 673.189 8.7865 669.215C8.31255 665.111 11.0105 659.611 13.974 653.673C14.2188 653.184 14.0157 652.585 13.5209 652.34C13.3907 652.277 13.25 652.241 13.1146 652.236ZM37.349 656.881C36.8698 656.866 36.4375 657.194 36.3386 657.678C36.224 658.215 36.573 658.741 37.1146 658.855C44.3646 660.329 51.375 661.777 57.4115 665.918C63.4688 670.074 68.5938 676.996 70.9271 683.173C73.2448 689.298 72.8282 694.725 72.3803 700.366C72.3386 700.913 72.75 701.392 73.2969 701.434C73.3125 701.439 73.3282 701.439 73.3438 701.439C73.875 701.454 74.3282 701.053 74.3698 700.522C74.8178 694.902 75.2865 689.059 72.7969 682.47C70.3282 675.934 64.9532 668.678 58.5417 664.277C52.1146 659.866 44.698 658.366 37.5157 656.902C37.4584 656.892 37.4063 656.881 37.349 656.881ZM32.5261 635.262C32.125 635.246 31.7344 635.48 31.5678 635.876C31.3594 636.381 31.599 636.965 32.1094 637.173L32.1563 637.194V637.199C49.0313 644.152 65.4584 650.97 73.5573 662.965C81.6615 674.96 81.5365 692.288 81.3698 710.085C81.3646 710.626 81.7969 711.069 82.3334 711.09C82.3438 711.09 82.349 711.09 82.3594 711.09C82.9115 711.095 83.3646 710.652 83.3698 710.1C83.5313 692.517 83.7396 674.465 75.2136 661.85C66.7084 649.251 49.599 642.23 32.9219 635.355L32.875 635.335C32.7605 635.288 32.6459 635.262 32.5261 635.262ZM38.5209 669.741C43.3698 669.913 51.0157 672.449 56.3803 677.053C63.5469 683.204 66.7136 693.137 66.7396 700.658C66.7657 707.168 64.4428 711.829 61.724 716.408V716.413C61.0261 714.293 60.0209 712.173 58.0105 710.954C57.0938 710.397 56 710.053 55.0313 709.741C53.9688 709.397 53.0261 709.09 52.2396 708.616C51.6198 708.236 51.1355 707.772 50.8073 707.137C49.5782 704.736 50.3178 699.418 52.4323 695.777C53.3803 694.131 54.599 692.871 55.7188 691.72C56.5209 690.892 57.349 690.043 57.8542 689.173C58.125 688.704 58.3334 688.184 58.3803 687.605C58.6407 684.626 54.7344 681.923 51.0782 680.533C47.1511 679.038 42.5417 678.637 38.1094 678.241C38.0938 678.236 38.0782 678.236 38.0573 678.236C37.849 678.23 37.6511 678.288 37.4844 678.392C34.7709 674.236 33.5157 671.371 34.9167 670.366C34.9584 670.335 35 670.309 35.0469 670.283C35.6667 669.908 36.8386 669.678 38.5209 669.741ZM43.7917 698.621C43.7657 698.621 43.7396 698.621 43.7136 698.621C43.1615 698.647 42.7344 699.111 42.7605 699.663C43.0573 706.204 43.3542 712.835 44.448 718.861C45.5469 724.897 47.4428 730.298 49.3125 735.621C49.4532 736.022 49.8178 736.272 50.2188 736.288C50.3386 736.293 50.4636 736.277 50.5834 736.236C51.1042 736.053 51.375 735.486 51.198 734.965C49.323 729.626 47.4792 724.361 46.4167 718.506C45.3438 712.637 45.0521 706.147 44.7553 699.569C44.7292 699.048 44.3073 698.642 43.7917 698.621ZM107.104 736.001C106.859 735.991 106.615 736.074 106.412 736.246L97.7865 743.72C97.3698 744.079 97.323 744.71 97.6823 745.126C97.8751 745.34 98.1355 745.46 98.4011 745.465C98.6459 745.475 98.8959 745.397 99.0938 745.225L107.724 737.746C108.141 737.387 108.182 736.757 107.823 736.345C107.63 736.126 107.37 736.012 107.104 736.001ZM32.4271 696.152C32.3646 696.152 32.3021 696.152 32.2396 696.163C31.6928 696.251 31.323 696.756 31.4063 697.303C32.5625 704.73 33.7188 712.168 35.1875 720.314C36.6511 728.454 38.4167 737.298 40.1823 746.131V746.137C40.2761 746.6 40.6719 746.918 41.125 746.939C41.2032 746.939 41.2813 746.934 41.3594 746.918C41.9011 746.809 42.25 746.288 42.1407 745.746C40.375 736.902 38.6094 728.079 37.1511 719.96C35.6928 711.84 34.5365 704.423 33.3803 696.996C33.3021 696.517 32.8959 696.168 32.4271 696.152ZM106.464 745.991C106.365 745.986 106.26 745.996 106.162 746.027L93.7761 749.47C93.2448 749.621 92.9323 750.168 93.0834 750.699C93.2032 751.126 93.5834 751.413 94.0053 751.428C94.1094 751.434 94.2084 751.418 94.3126 751.392L106.698 747.944C107.229 747.798 107.537 747.246 107.391 746.715C107.271 746.288 106.885 746.006 106.464 745.991ZM73.2292 717.392C72.8438 717.376 72.4688 717.59 72.2917 717.96C69.2553 724.314 66.25 730.605 62.9792 735.829C59.7188 741.043 56.1823 745.21 52.599 749.434C52.2448 749.855 52.2969 750.486 52.7188 750.84C52.8959 750.991 53.1094 751.064 53.323 751.074C53.6198 751.085 53.9167 750.965 54.125 750.72C57.698 746.506 61.323 742.236 64.6719 736.887C68.0157 731.548 71.073 725.147 74.0938 718.814C74.3334 718.319 74.1198 717.725 73.625 717.491C73.4948 717.428 73.3646 717.397 73.2292 717.392ZM100.219 733.809C99.9636 733.798 99.7032 733.887 99.5001 734.074L81.6251 750.668C81.224 751.043 81.198 751.673 81.5782 752.079C81.7657 752.277 82.0157 752.387 82.2709 752.397C82.5261 752.402 82.7865 752.314 82.9844 752.126L100.865 735.533C101.266 735.158 101.287 734.527 100.912 734.121C100.724 733.923 100.474 733.814 100.219 733.809ZM18.5678 718.293C18.4167 718.288 18.2657 718.314 18.1198 718.381C17.6198 718.605 17.3959 719.199 17.625 719.699C20.3907 725.767 23.1303 731.788 25.198 737.496C27.2605 743.199 28.6563 748.605 30.0625 754.053C30.1719 754.491 30.5625 754.788 30.9896 754.803C31.0834 754.809 31.1823 754.798 31.2761 754.772C31.8073 754.637 32.1303 754.095 31.9948 753.559C30.5886 748.116 29.1771 742.626 27.0782 736.824C24.9792 731.022 22.198 724.928 19.4428 718.876C19.2813 718.517 18.9323 718.303 18.5678 718.293ZM117.635 722.303C117.151 725.939 116.74 729.736 117.589 732.559C117.891 733.564 118.344 734.423 118.745 735.194C119.62 736.871 120.375 738.324 119.87 740.918C119.073 744.996 115.245 751.689 111.25 758.652C111.125 758.871 111.094 759.116 111.141 759.345V759.35C104.922 756.678 98.1146 754.97 91.2605 754.72C90.6667 754.699 90.0626 754.689 89.4688 754.689C84.5209 754.699 79.5834 755.496 74.6615 756.855C83.073 745.97 91.4323 734.902 96.3073 722.501H96.3178C96.4428 722.564 96.5782 722.595 96.724 722.6C96.7396 722.6 96.7553 722.605 96.7761 722.6L117.625 722.303H117.635ZM0.781296 405.147C4.54171 410.871 7.86984 416.72 8.76046 424.496C9.79692 433.553 7.54171 445.262 5.224 457.204L5.20838 457.283C5.12505 457.72 5.3438 458.163 5.75005 458.366C5.87505 458.428 6.01567 458.46 6.1563 458.465C6.44275 458.475 6.73442 458.361 6.93755 458.131C9.05213 455.756 11.1407 453.413 13.599 451.079C15.5105 449.267 17.1719 447.965 18.3386 448.006C18.6719 448.017 19.0105 448.147 19.375 448.595C20.9532 450.559 21.9375 457.184 19.6459 463.064C17.3855 468.871 11.9636 473.803 6.2813 478.949C5.89067 479.303 5.8438 479.897 6.17192 480.309C6.35942 480.543 6.63546 480.673 6.91671 480.678C7.12505 480.689 7.33859 480.631 7.52609 480.501C12.0157 477.35 16.5157 474.194 19.8646 471.819L20.0053 471.72C22.7084 469.798 24.2553 468.767 25.4428 468.814C25.7188 468.819 25.9844 468.897 26.2553 469.064C27.5678 469.861 29.375 473.152 26.4896 478.866C24.6823 482.449 21.099 486.809 16.7969 491.512H16.7865C13.573 494.048 10.8542 497.35 8.2188 500.533C7.88025 500.944 7.92713 501.553 8.32817 501.908C8.50525 502.069 8.72921 502.152 8.95317 502.163C9.22921 502.173 9.50525 502.069 9.70838 501.855C12.5886 498.881 15.5 495.876 18.1719 492.96H18.1615C20.0521 491.486 22.0886 490.335 24.3803 489.678C26.1667 489.168 28.1303 488.954 30.0938 489.027C34.7188 489.194 39.1042 490.918 41.25 493.73C44.2032 497.6 43.3073 504.298 35.9636 511.236C32.6771 514.345 28.1563 517.428 23.5105 520.595C17.8907 524.423 12.0678 528.381 8.44275 532.527C1.72921 540.199 2.5938 548.413 3.37505 556.168C3.42713 556.652 3.81775 557.027 4.30213 557.064C4.31255 557.064 4.32296 557.064 4.33338 557.064C4.80734 557.079 5.22921 556.762 5.33859 556.303C6.23963 552.59 7.099 549.069 9.18234 545.876C11.349 542.548 14.6094 539.897 16.474 539.756C16.5521 539.751 16.6198 539.751 16.6875 539.751C18.1042 539.803 19.0573 541.522 20.3907 544.34L20.3855 544.345L20.3959 544.355C20.5157 544.611 20.7396 544.803 21.0105 544.887C21.0938 544.908 21.1771 544.923 21.2605 544.928C21.4532 544.934 21.6459 544.887 21.8125 544.783C28.9167 540.491 35.8907 536.283 41.6928 534.241C46.5 532.548 50.5105 532.335 54.4896 532.366H54.5C51.9532 535.001 49.3907 537.814 46.9375 541.46C43.9844 545.85 41.2032 551.428 38.4636 556.928C38.3021 557.262 38.3334 557.658 38.5521 557.96L43.2032 564.329H43.1928C37.7188 567.48 32.1667 570.798 28.2813 575.491C24.1719 580.465 21.9844 586.923 19.8646 593.158C19.7136 593.605 19.9011 594.105 20.3178 594.34C20.4584 594.423 20.6198 594.465 20.7761 594.47C21.073 594.48 21.3646 594.361 21.5678 594.126C23.1771 592.267 24.2917 591.111 25.3855 591.147C25.4323 591.152 25.474 591.152 25.5157 591.158V591.163C25.9011 591.21 26.3438 591.402 27.0625 591.736C28.099 592.215 29.4844 592.861 31.3125 592.928C32.0209 592.954 32.7865 592.892 33.6146 592.71C34.7969 592.449 36.0938 591.949 37.4428 591.329C39.1615 590.538 41.0417 589.522 42.9636 588.48C45.073 587.335 47.25 586.158 49.4063 585.168C53.6198 583.236 57.6407 582.064 60.323 582.163C61.2813 582.194 61.974 582.392 62.4323 582.684C64.224 583.835 63.8542 587.501 63.0573 591.241C62.3438 594.605 61.6146 596.824 60.875 599.085C60.7813 599.371 60.823 599.684 60.9844 599.934C61.1511 600.189 61.4219 600.355 61.7188 600.387L70.6615 601.303H70.6511C66.25 612.819 61.8594 624.783 65.5469 633.923C65.948 634.918 66.4375 635.871 67.0053 636.793C69.1719 640.329 72.4896 643.506 76.0105 646.892C80.4115 651.121 85.2292 655.762 89.1094 662.085C96.9584 674.871 100.99 694.626 97.5053 711.59C94.0261 728.533 83.0417 742.762 71.8646 757.21C71.7396 757.376 71.6719 757.564 71.6563 757.756H71.6459C60.0573 761.486 48.5521 768.09 37.1823 774.626V774.631C36.724 774.314 36.25 774.012 35.7657 773.715C31.0313 770.824 24.9323 768.663 19.125 767.803H19.1198C21.2032 762.085 23.2761 756.069 19.7761 746.996C16.3594 738.152 7.60942 726.361 -1.12495 714.673H-1.13537C1.4063 712.881 3.70838 711.397 5.89588 711.147C6.20317 711.111 6.51046 711.1 6.82296 711.111C8.92192 711.189 11.0417 712.246 13.4219 713.449C13.5521 713.517 13.6928 713.553 13.8386 713.559C14.0209 713.564 14.2084 713.522 14.3698 713.428C14.6667 713.256 14.8542 712.954 14.8698 712.616C15.2396 705.803 15.6094 699.335 17.7448 695.225C19.823 691.225 23.6459 689.387 27.849 687.397C28.0053 687.324 28.1407 687.21 28.2344 687.074H28.224C32.3386 686.772 36.5886 686.236 40.7969 685.71C41.1511 685.663 41.448 685.439 41.5886 685.116C41.7292 684.793 41.6928 684.423 41.4844 684.137C40.5053 682.777 39.5886 681.496 38.7657 680.298H38.7761C42.9688 680.678 46.974 681.1 50.3646 682.392C54.2553 683.871 56.5105 686.111 56.3959 687.434C56.375 687.642 56.2969 687.881 56.125 688.178C55.7709 688.788 55.1459 689.444 54.2813 690.335C53.1771 691.475 51.7917 692.892 50.7032 694.777C48.4428 698.673 47.3542 704.762 49.0261 708.038C49.5573 709.079 50.3438 709.793 51.2032 710.314C52.224 710.934 53.4011 711.309 54.4167 711.637C55.4428 711.965 56.2969 712.246 56.974 712.658C58.8855 713.814 59.6146 716.194 60.4532 719.131C60.5625 719.512 60.8855 719.793 61.2813 719.845C61.3125 719.85 61.3438 719.855 61.375 719.855C61.7344 719.866 62.0782 719.684 62.2657 719.376C65.4428 714.147 68.7709 708.694 68.7396 700.652C68.7084 692.704 65.3907 682.163 57.6823 675.543C51.9688 670.637 43.8855 667.939 38.5938 667.746C36.7969 667.684 35.1459 667.897 34.0209 668.574C33.9271 668.626 33.8386 668.684 33.75 668.746C29.974 671.46 34.8438 678.376 38.8803 683.944H38.8698C32.2448 684.767 25.75 685.506 19.8907 685.298C14.2396 685.095 9.29692 684.006 5.46359 681.355C-2.78641 675.652 -6.23954 662.574 -1.97912 654.637C2.28651 646.684 14.4167 643.512 27.3282 640.225C27.8334 640.095 28.1563 639.595 28.0625 639.085C27.9792 638.616 27.5782 638.283 27.1146 638.262C27.073 638.262 27.0261 638.262 26.9792 638.267C23.1875 638.663 19.4844 639.043 16.0105 638.918C13.2657 638.819 10.7188 638.402 8.43755 637.449C3.61984 635.434 -0.192662 630.949 -4.0937 626.043H-4.10412C2.33338 624.199 8.57817 622.538 14.4063 622.746C15.0782 622.772 15.7448 622.819 16.4011 622.897C17.25 622.996 18.0938 623.142 18.9271 623.324H18.9167C24.2917 626.465 30.1875 628.913 36.0053 631.329C36.1198 631.376 36.2396 631.402 36.3542 631.402C36.7344 631.418 37.099 631.215 37.2813 630.855C37.5157 630.392 37.3542 629.824 36.9011 629.553C31.4219 626.277 25.7761 622.881 19.6719 621.454H19.6667C17.7188 620.303 15.8542 619.064 14.099 617.694C7.66671 612.684 2.62505 605.939 -2.48433 599.033H-2.49475L0.770879 405.147H0.781296ZM25.2084 776.413C24.7448 776.397 24.3178 776.704 24.2032 777.173L21.7813 787.064C21.6459 787.595 21.974 788.137 22.5105 788.267C22.5782 788.283 22.6459 788.293 22.7136 788.293C23.1771 788.314 23.6042 788.001 23.7188 787.538L26.1459 777.647C26.2761 777.111 25.948 776.574 25.4115 776.444C25.3438 776.423 25.2761 776.418 25.2084 776.413ZM10.599 775.371C10.5313 775.371 10.4584 775.376 10.3855 775.387C9.8438 775.486 9.48442 776.006 9.58338 776.548L11.7396 788.319C11.8282 788.788 12.2292 789.121 12.6875 789.137C12.7553 789.142 12.8282 789.137 12.9011 789.121C13.4428 789.022 13.8021 788.506 13.7032 787.965L11.5469 776.189C11.4584 775.72 11.0573 775.387 10.599 775.371ZM39.198 785.173C38.974 785.168 38.7448 785.236 38.5573 785.381L29.5157 792.277C29.0782 792.611 28.9948 793.236 29.3282 793.673C29.5157 793.923 29.7969 794.053 30.0886 794.064C30.3125 794.074 30.5365 794.006 30.7292 793.861L39.7657 786.96C40.2084 786.626 40.2917 786.001 39.9532 785.564C39.7657 785.319 39.4844 785.184 39.198 785.173ZM14.9844 769.413C21.5261 769.652 29.1511 772.012 34.724 775.413C43.8073 780.96 47.2813 789.152 46.5 794.053C45.7865 798.548 41.448 800.704 36.1823 802.939C32.4792 797.574 24.5834 795.048 18.073 794.699C17.8907 794.689 17.7084 794.684 17.5313 794.673C11.3438 794.454 6.13546 796.152 1.14067 797.918C-0.130162 786.126 -0.796828 775.699 4.96359 771.626C7.30734 769.97 10.849 769.267 14.9844 769.413ZM49.7084 799.486C49.3907 799.475 49.0678 799.621 48.8646 799.897L43.9688 806.6C43.6459 807.048 43.7448 807.668 44.1875 807.991C44.3542 808.116 44.5469 808.178 44.7396 808.184C45.0625 808.194 45.3803 808.053 45.5834 807.772L50.4792 801.069C50.8021 800.626 50.7084 800.001 50.2605 799.678C50.0938 799.559 49.9011 799.496 49.7084 799.486ZM61.4011 804.897C61.2396 804.892 61.0782 804.923 60.9219 805.001L51.2709 809.814C50.7761 810.064 50.5782 810.658 50.823 811.152C50.9896 811.491 51.3282 811.689 51.6823 811.704C51.8438 811.71 52.0053 811.673 52.1615 811.595L61.8125 806.783C62.3073 806.538 62.5053 805.939 62.2605 805.449C62.0938 805.111 61.7553 804.913 61.4011 804.897ZM87.6667 766.314C77.5521 765.949 66.5365 767.881 55.6563 769.788C55.1146 769.881 54.75 770.397 54.849 770.944C54.9323 771.413 55.3334 771.746 55.7917 771.767C55.8646 771.767 55.9323 771.762 56.0053 771.751C66.9323 769.835 77.7292 767.949 87.599 768.303C91.6355 768.449 95.5001 768.97 99.1355 770.012C111.708 773.616 121.641 783.449 123.75 791.684C125.828 799.772 120.438 806.626 114.521 814.022C114.177 814.449 114.25 815.074 114.677 815.418C114.854 815.559 115.057 815.626 115.266 815.637C115.573 815.647 115.875 815.517 116.083 815.262C121.807 808.105 128.052 800.418 125.688 791.189C123.354 782.1 112.755 771.845 99.6876 768.1C95.8594 767.001 91.8282 766.465 87.6667 766.314ZM23.0053 804.033C22.75 804.022 22.4896 804.111 22.2865 804.298L14.6198 811.418C14.2136 811.793 14.1928 812.423 14.5678 812.824C14.7553 813.027 15.0105 813.131 15.2657 813.142C15.5209 813.152 15.7761 813.064 15.9792 812.876L23.6459 805.756C24.0521 805.381 24.073 804.751 23.698 804.345C23.5105 804.147 23.2605 804.038 23.0053 804.033ZM11.2188 801.027C10.7344 801.006 10.2969 801.345 10.2032 801.84L8.06775 813.288C7.96359 813.829 8.32296 814.345 8.86463 814.449C8.91671 814.46 8.96359 814.465 9.01046 814.465C9.50005 814.48 9.93755 814.142 10.0313 813.652L12.1667 802.204C12.2657 801.663 11.9115 801.142 11.3698 801.043C11.3178 801.033 11.2709 801.027 11.2188 801.027ZM67.5886 814.928C67.5261 814.923 67.4532 814.928 67.3855 814.939L52.3021 817.491C51.7553 817.585 51.3907 818.1 51.4844 818.642C51.5625 819.116 51.9688 819.454 52.4323 819.47C52.5 819.47 52.5678 819.47 52.6355 819.454L67.7188 816.902C68.2657 816.814 68.6303 816.298 68.5365 815.756C68.4584 815.283 68.0521 814.944 67.5886 814.928ZM29.8646 814.428C29.7813 814.423 29.6928 814.434 29.6042 814.449L15.3542 817.72C14.8178 817.845 14.4844 818.381 14.6094 818.918C14.7084 819.366 15.1042 819.673 15.5417 819.689C15.6303 819.694 15.7136 819.684 15.8021 819.663L30.0521 816.392C30.5886 816.267 30.9271 815.736 30.8021 815.199C30.698 814.751 30.3073 814.444 29.8646 814.428ZM91.1876 756.71C105.24 757.22 119.13 764.147 127.641 772.637H127.63C127.734 772.845 127.901 773.001 128.104 773.095H128.094C129.401 774.434 130.568 775.814 131.583 777.21C139.359 787.892 138.047 799.694 133.849 808.397C129.662 817.085 122.651 822.543 115.344 824.559C112.932 825.225 110.484 825.517 108.182 825.434C103.464 825.262 99.4584 823.548 97.323 820.47C94.0521 815.756 94.8073 807.402 96.474 803.059C96.6146 802.704 96.7553 802.381 96.8959 802.085C97.698 800.444 98.6198 799.574 99.599 798.652C100.505 797.809 101.495 796.887 102.255 795.329C103.912 791.934 104.526 785.189 98.5938 781.241C95.2969 779.043 90.0626 777.819 84.6771 777.621C80.6719 777.48 76.4896 777.902 72.8125 778.975C64.2448 781.48 58.5834 787.496 53.1511 793.319H53.1407C51.573 793.663 50 794.095 48.4428 794.543C48.4532 794.486 48.4636 794.428 48.474 794.366C49.3073 789.126 46.2084 781.611 38.948 775.918H38.9375C55.9844 766.121 72.7292 756.71 89.474 756.684C90.0417 756.678 90.6198 756.689 91.1876 756.71ZM59.625 794.595C62.8178 794.71 65.8021 795.777 68.6407 798.652C71.7605 801.814 74.698 807.152 75.849 812.345C76.9896 817.486 76.3386 821.975 70.0313 823.866C66.125 825.038 60.0365 825.23 52.8855 824.97C48.0886 824.798 42.8698 824.428 37.6094 824.038H37.599C38.7084 817.137 39.6771 809.96 37.1875 804.684H37.1771C41.4063 802.897 45.8803 800.798 47.7292 796.824H47.7188C51.6407 795.684 55.3907 794.616 58.8907 794.585C59.1407 794.585 59.3855 794.59 59.625 794.595ZM17.4636 796.668C17.6303 796.673 17.7969 796.678 17.9636 796.689C24.3073 797.027 31.448 799.501 34.5938 804.152H34.5834C34.5625 804.319 34.5834 804.496 34.6563 804.663C34.7657 804.928 34.9792 805.121 35.2292 805.21H35.224C37.6875 809.986 36.724 816.928 35.5157 824.439H35.5053L3.0365 823.434L1.474 799.913H1.4688C6.56775 798.111 11.5417 796.454 17.4636 796.668ZM148.75 767.986C149.839 768.022 150.953 768.126 152.094 768.309C160.875 769.704 171.37 775.59 177.76 782.788C184.094 789.928 186.354 798.319 184.578 806.881C182.792 815.496 176.922 824.251 167.443 828.251C163.125 830.074 158.026 830.923 153.24 830.751C147.448 830.538 142.339 828.85 139.563 825.84C134.448 820.298 136.662 809.611 138.802 802.678C140.875 795.97 142.448 794.105 145.901 793.079C147.49 792.605 149.479 792.324 151.448 792.392C154.13 792.491 156.578 793.236 158.031 794.814C160.651 797.668 160.495 803.704 158.422 806.559C156.792 808.798 153.839 809.09 150.047 808.954C149.573 808.939 149.094 808.918 148.615 808.892H148.604C148.464 808.814 148.307 808.767 148.146 808.762C147.995 808.756 147.844 808.783 147.698 808.85C147.245 809.059 147.021 809.559 147.146 810.022H147.135C147.167 810.21 147.25 810.381 147.37 810.517H147.359C149.469 815.126 151.932 820.449 157.583 820.871C157.703 820.881 157.833 820.887 157.953 820.892C163.479 821.09 171.557 816.741 174.344 808.829C177.167 800.819 174.5 789.251 169.302 783.194C163.99 777.006 156.109 776.611 148.792 776.189C148.781 776.189 148.776 776.189 148.771 776.189C148.229 776.168 147.766 776.585 147.734 777.126C147.703 777.678 148.125 778.147 148.677 778.178C156.182 778.611 163.12 779.053 167.787 784.491C172.557 790.053 175.026 800.881 172.458 808.168C169.969 815.236 162.698 819.069 158.026 818.902C157.927 818.897 157.828 818.892 157.734 818.887C153.813 818.59 151.792 815.246 149.755 810.939H149.766C149.839 810.939 149.906 810.944 149.974 810.944C153.641 811.079 157.708 810.923 160.037 807.73C162.578 804.236 162.865 797.131 159.505 793.47C157.526 791.319 154.432 790.506 151.521 790.402C149.328 790.324 147.125 790.637 145.333 791.168C142.427 792.033 140.63 793.491 139.135 796.303C139.578 789.756 138.047 782.699 133.203 776.038C132.333 774.85 131.365 773.673 130.297 772.522L130.287 772.517C136.219 769.996 142.037 767.741 148.75 767.986ZM-0.135371 400.923C-0.239539 400.918 -0.348912 400.928 -0.453079 400.96C-0.874954 401.085 -1.16141 401.465 -1.17183 401.902L-4.49475 599.324C-4.49995 599.543 -4.43225 599.762 -4.30204 599.934C0.849004 606.892 6.099 613.991 12.8698 619.267C13.5417 619.788 14.224 620.288 14.9219 620.777C14.7709 620.767 14.625 620.762 14.4792 620.756C7.83859 620.517 0.776088 622.564 -6.07808 624.538C-6.40099 624.631 -6.651 624.876 -6.75516 625.194C-6.85412 625.506 -6.79162 625.85 -6.5885 626.111C-2.44787 631.345 1.90109 636.871 7.66671 639.283V639.288C10.2396 640.361 13.0469 640.803 15.9428 640.908C16.2813 640.918 16.625 640.928 16.9688 640.928H16.9792C7.93234 643.605 -0.218702 647.131 -3.73954 653.694C-8.5312 662.616 -4.66662 676.777 4.32296 682.991C8.60942 685.954 13.9896 687.079 19.8178 687.288C21.0261 687.329 22.2605 687.335 23.5157 687.309H23.5261C20.5469 688.902 17.7292 690.928 15.9688 694.309C13.7709 698.543 13.3021 704.824 12.9584 710.991C11.0573 710.053 9.00525 709.199 6.89588 709.121C6.48963 709.105 6.07817 709.121 5.66671 709.168C2.61984 709.517 -0.400995 711.704 -3.11975 713.637C-3.33849 713.793 -3.48433 714.033 -3.526 714.293C-3.56766 714.559 -3.49995 714.829 -3.3385 715.043C5.67713 727.105 14.5417 738.98 17.9115 747.715C21.2084 756.246 19.2136 761.725 17.1198 767.46C17.1094 767.491 17.099 767.527 17.0886 767.559C16.4011 767.496 15.724 767.449 15.0573 767.423C10.7292 767.267 6.66671 767.98 3.81255 770.001C-3.51558 775.184 -1.92704 788.366 -0.598912 800.366C-0.583287 800.517 -0.531205 800.652 -0.458287 800.777H-0.468704L1.10942 824.465C1.14067 824.975 1.55734 825.376 2.06775 825.397C2.06775 825.397 2.06775 825.397 2.07296 825.397L36.3282 826.46C36.6875 826.47 37.0105 826.288 37.198 826.006H37.2032C42.5521 826.402 47.8959 826.788 52.8125 826.965C59.948 827.22 66.3438 827.048 70.6094 825.772C78.3959 823.439 79.0365 817.496 77.8021 811.913C76.573 806.381 73.4636 800.699 70.0625 797.256C66.8438 793.996 63.3698 792.741 59.698 792.605C59.4271 792.595 59.1511 792.595 58.875 792.595C58.0625 792.6 57.2396 792.658 56.4167 792.756C61.2917 787.621 66.2813 782.965 73.375 780.887C76.8125 779.881 80.7709 779.475 84.6042 779.611C89.8178 779.803 94.6251 780.991 97.4844 782.897C102.266 786.079 101.87 791.559 100.458 794.46C99.8751 795.652 99.1407 796.355 98.2344 797.204C97.2292 798.147 96.073 799.225 95.1042 801.215C94.9323 801.564 94.7657 801.944 94.6094 802.35C92.849 806.944 91.8594 816.095 95.6823 821.605C98.2969 825.376 103.016 827.241 108.109 827.423C110.63 827.512 113.276 827.194 115.875 826.48C123.297 824.434 130.333 819.126 134.828 810.861H134.839C133.99 816.658 134.255 823.022 138.094 827.189C141.391 830.767 147.146 832.522 153.167 832.741C158.214 832.923 163.609 832.033 168.224 830.085C178.401 825.793 184.635 816.428 186.531 807.283C188.443 798.074 185.984 789.053 179.255 781.47C172.583 773.949 161.677 767.814 152.406 766.34C151.182 766.147 149.99 766.038 148.823 765.996C141.349 765.725 134.958 768.355 128.807 770.986C124.484 766.736 118.891 762.892 112.63 760.012L112.62 760.006C112.766 759.923 112.891 759.798 112.984 759.642C116.885 752.845 120.953 745.788 121.828 741.298C122.474 738.007 121.432 736.033 120.516 734.272C120.104 733.48 119.74 732.783 119.5 731.986C118.714 729.371 119.208 725.569 119.771 721.423C119.807 721.137 119.719 720.845 119.526 720.626C119.349 720.423 119.089 720.303 118.818 720.293C118.802 720.293 118.781 720.293 118.766 720.293L97.0209 720.605V720.611C98.0313 717.809 98.8594 714.939 99.4636 711.986C103.047 694.522 98.9219 674.256 90.8126 661.043C86.7813 654.475 81.7813 649.673 77.3959 645.46C73.823 642.022 70.7136 639.027 68.7084 635.751C68.1928 634.913 67.75 634.059 67.3959 633.184C63.9428 624.611 68.3125 613.006 72.9792 600.798C73.0938 600.512 73.0625 600.189 72.9011 599.923C72.7344 599.658 72.4584 599.486 72.1511 599.454L63.1667 598.533H63.1563C63.7761 596.611 64.4011 594.533 65.0105 591.652C65.6719 588.553 66.7136 583.069 63.5105 581.012C62.6407 580.449 61.5521 580.215 60.3907 580.173C57.2292 580.059 52.849 581.392 48.573 583.361C46.3438 584.381 44.1094 585.59 42.0105 586.73C40.073 587.777 38.2553 588.762 36.6094 589.517C35.3073 590.116 34.1615 590.548 33.1875 590.762V590.767C32.5157 590.913 31.9219 590.96 31.3803 590.939C30 590.887 28.9375 590.408 27.9063 589.928C27.2709 589.637 26.5209 589.277 25.7657 589.184C25.6615 589.173 25.5625 589.163 25.4584 589.158C24.6146 589.126 23.8334 589.418 23.1146 589.871C24.8542 584.996 26.7917 580.428 29.823 576.762C33.6615 572.116 39.3073 568.861 45.1615 565.496C45.4063 565.355 45.5782 565.116 45.6355 564.84C45.698 564.564 45.6355 564.277 45.4688 564.048L40.5261 557.283H40.5209C43.1875 551.934 45.823 546.694 48.5938 542.569C51.448 538.324 54.4636 535.246 57.5365 532.105C57.8178 531.824 57.9011 531.402 57.75 531.033C57.599 530.668 57.25 530.428 56.8594 530.413C56.8542 530.413 56.849 530.413 56.8438 530.413H56.8125C52.0469 530.314 47.1198 530.215 41.0313 532.361C35.2605 534.392 28.4584 538.444 21.7292 542.506C20.698 540.361 19.2761 537.85 16.7605 537.762C16.6198 537.756 16.474 537.762 16.323 537.772C13.4428 537.986 9.7188 541.397 7.50525 544.788C6.3438 546.574 5.5313 548.449 4.89588 550.335V550.34C4.63025 544.59 5.34379 539.095 9.94796 533.835C13.3698 529.923 18.9428 526.116 24.6407 522.236C29.2396 519.1 33.9115 515.923 37.3386 512.684C44.9375 505.501 46.7396 497.642 42.8386 492.522C40.1875 489.053 35.1146 487.215 30.1667 487.038C28.0157 486.96 25.8386 487.189 23.8282 487.767C23.3021 487.918 22.7917 488.09 22.2917 488.283C24.8698 485.204 26.9844 482.314 28.2761 479.762C31.4063 473.564 29.8646 468.928 27.2969 467.361V467.366C26.7344 467.022 26.1407 466.845 25.5157 466.819C23.474 466.746 21.25 468.392 18.849 470.095L18.7084 470.194C17.9896 470.704 17.2188 471.251 16.4063 471.824C18.573 469.314 20.3907 466.663 21.5105 463.788C23.948 457.533 23.125 450.069 20.9323 447.35C20.2396 446.496 19.3803 446.048 18.4115 446.017C16.224 445.934 13.9011 448.043 12.2188 449.637C10.6407 451.137 9.21359 452.637 7.85421 454.126V454.131C9.9063 443.434 11.7188 432.783 10.7448 424.272C9.6563 414.746 5.07817 407.954 0.656296 401.361C0.474004 401.09 0.177128 400.934 -0.135371 400.923Z" fill="#FF6842"/>
</g>
<mask id="mask1_757_5301" style="mask-type:luminance" maskUnits="userSpaceOnUse" x="1247" y="-14" width="196" height="432">
<path d="M1442.67 418H1248V-14H1442.67V418Z" fill="white"/>
</mask>
<g mask="url(#mask1_757_5301)">
<path d="M1429.98 402.54C1429.99 402.54 1429.99 402.54 1430 402.54C1430.55 402.546 1431 402.108 1431.02 401.561L1431.36 378.915C1431.36 378.369 1430.94 377.921 1430.4 377.905C1430.39 377.905 1430.38 377.905 1430.37 377.905C1429.82 377.895 1429.37 378.332 1429.36 378.884L1429.02 401.53C1429.01 402.072 1429.44 402.52 1429.98 402.54ZM1421.37 363.113C1421.79 363.129 1422.19 362.884 1422.34 362.473C1423.28 360.004 1424.2 357.577 1425.51 354.889C1426.82 352.191 1428.54 349.223 1430.28 346.212C1430.55 345.733 1430.39 345.124 1429.91 344.848C1429.76 344.764 1429.6 344.723 1429.45 344.717C1429.09 344.707 1428.74 344.884 1428.55 345.212V345.217C1426.82 348.212 1425.06 351.244 1423.71 354.02C1422.36 356.796 1421.41 359.306 1420.47 361.77C1420.28 362.28 1420.54 362.858 1421.06 363.051C1421.16 363.092 1421.27 363.113 1421.37 363.113ZM1416.83 345.197C1417.27 345.212 1417.68 344.936 1417.82 344.499C1419.02 340.712 1420.17 337.092 1422.61 333.723C1425.08 330.327 1428.89 327.145 1432.83 323.853C1433.26 323.499 1433.32 322.874 1432.96 322.452C1432.77 322.223 1432.5 322.103 1432.23 322.092C1431.99 322.087 1431.75 322.16 1431.56 322.327C1427.67 325.566 1423.64 328.915 1420.99 332.556C1418.33 336.223 1417.1 340.15 1415.92 343.905C1415.75 344.426 1416.04 344.988 1416.57 345.15C1416.66 345.181 1416.74 345.197 1416.83 345.197ZM1404.25 320.884C1404.32 320.884 1404.39 320.884 1404.46 320.869C1410.4 319.842 1416.62 318.78 1420.66 316.379C1424.78 313.921 1426.56 310.119 1428.21 306.629V306.624L1428.21 306.608H1428.22C1428.45 306.108 1428.24 305.52 1427.74 305.285C1427.61 305.223 1427.48 305.191 1427.35 305.186C1426.96 305.176 1426.58 305.389 1426.41 305.759L1426.4 305.78C1424.72 309.327 1423.17 312.566 1419.63 314.665C1415.99 316.837 1410.2 317.853 1404.11 318.91C1403.57 319.004 1403.21 319.52 1403.3 320.061C1403.39 320.53 1403.79 320.869 1404.25 320.884ZM1407.07 274.572C1407.37 274.582 1407.67 274.457 1407.88 274.212C1413.28 267.702 1418.85 261.004 1421.39 253.212C1423.92 245.426 1423.39 236.619 1422.88 228.061C1422.85 227.54 1422.43 227.139 1421.92 227.124C1421.89 227.124 1421.85 227.124 1421.82 227.124C1421.28 227.155 1420.85 227.629 1420.89 228.176C1421.4 236.827 1421.88 245.233 1419.48 252.598C1417.09 259.962 1411.8 266.363 1406.34 272.941C1405.99 273.363 1406.05 273.994 1406.47 274.342C1406.65 274.488 1406.86 274.566 1407.07 274.572ZM1377.97 220.311C1378.49 220.332 1378.94 219.941 1378.99 219.415L1380.25 206.895C1380.31 206.348 1379.91 205.858 1379.36 205.806C1379.34 205.801 1379.31 205.801 1379.29 205.801C1378.77 205.78 1378.32 206.171 1378.27 206.697L1377.01 219.217C1376.95 219.764 1377.35 220.254 1377.9 220.306C1377.92 220.311 1377.94 220.311 1377.97 220.311ZM1433.43 242.098C1433.54 242.103 1433.65 242.087 1433.76 242.056C1434.29 241.895 1434.58 241.337 1434.42 240.811C1432.49 234.52 1430.52 228.077 1426.94 222.342C1423.36 216.608 1418.19 211.624 1413.15 206.744C1412.96 206.561 1412.72 206.473 1412.49 206.462C1412.21 206.452 1411.94 206.551 1411.73 206.764C1411.35 207.16 1411.36 207.79 1411.75 208.171C1416.84 213.092 1421.82 217.91 1425.24 223.395C1428.67 228.874 1430.57 235.061 1432.51 241.395C1432.64 241.811 1433.02 242.082 1433.43 242.098ZM1402.05 220.915C1402.08 220.915 1402.12 220.915 1402.16 220.91C1402.7 220.874 1403.12 220.4 1403.08 219.853L1402.04 204.306C1402 203.79 1401.59 203.395 1401.08 203.379C1401.05 203.374 1401.01 203.374 1400.98 203.379C1400.43 203.415 1400.01 203.889 1400.05 204.436L1401.09 219.983C1401.12 220.499 1401.55 220.895 1402.05 220.915ZM1389.37 223.4C1389.39 223.4 1389.4 223.4 1389.42 223.4C1389.97 223.389 1390.41 222.941 1390.41 222.389L1390.15 199.921C1390.14 199.389 1389.72 198.957 1389.19 198.936C1389.17 198.936 1389.16 198.936 1389.14 198.936C1388.59 198.941 1388.15 199.395 1388.15 199.941L1388.41 222.415C1388.42 222.947 1388.84 223.379 1389.37 223.4ZM1409.57 160.358C1409.92 160.374 1410.27 160.202 1410.46 159.879C1411.55 158.077 1412.77 156.092 1413.22 154.129C1413.69 152.134 1413.35 150.238 1413.07 148.561V148.556C1412.98 148.082 1412.58 147.744 1412.12 147.728C1412.05 147.723 1411.98 147.728 1411.92 147.738C1411.37 147.832 1411 148.348 1411.1 148.889V148.895C1411.4 150.629 1411.64 152.134 1411.28 153.681C1410.91 155.27 1409.89 156.967 1408.75 158.848C1408.46 159.322 1408.61 159.931 1409.09 160.217C1409.24 160.306 1409.4 160.353 1409.57 160.358ZM1416.06 162.41C1416.5 162.426 1416.91 162.16 1417.05 161.728C1418.1 158.504 1419.25 155.03 1419.04 151.801C1418.81 148.551 1417.21 145.634 1415.75 142.952L1415.74 142.936C1415.57 142.619 1415.24 142.431 1414.9 142.415C1414.73 142.41 1414.55 142.452 1414.39 142.54C1413.91 142.801 1413.72 143.405 1413.99 143.889L1413.99 143.9C1415.5 146.665 1416.85 149.191 1417.04 151.936C1417.23 154.702 1416.24 157.78 1415.15 161.108C1414.98 161.629 1415.27 162.191 1415.79 162.363C1415.88 162.395 1415.97 162.41 1416.06 162.41ZM1422.55 166.764C1422.93 166.78 1423.3 166.572 1423.48 166.212C1426.32 160.52 1429.42 154.389 1428.86 149.561C1428.3 144.603 1423.96 141.228 1420.14 138.191C1419.96 138.051 1419.76 137.978 1419.55 137.973C1419.25 137.962 1418.94 138.092 1418.73 138.348C1418.39 138.775 1418.46 139.405 1418.9 139.749C1422.92 142.947 1426.43 145.811 1426.88 149.785C1427.35 153.889 1424.66 159.389 1421.69 165.327C1421.45 165.816 1421.65 166.415 1422.15 166.66C1422.28 166.723 1422.42 166.759 1422.55 166.764ZM1398.32 162.119C1398.8 162.134 1399.23 161.806 1399.33 161.322C1399.44 160.785 1399.09 160.259 1398.55 160.145C1391.3 158.671 1384.29 157.223 1378.25 153.082C1372.2 148.926 1367.07 142.004 1364.74 135.827C1362.42 129.702 1362.84 124.275 1363.29 118.634C1363.33 118.087 1362.92 117.608 1362.37 117.566C1362.35 117.561 1362.34 117.561 1362.32 117.561C1361.79 117.546 1361.34 117.947 1361.3 118.478C1360.85 124.098 1360.38 129.941 1362.87 136.53C1365.34 143.066 1370.71 150.322 1377.12 154.723C1383.55 159.134 1390.97 160.634 1398.15 162.098C1398.21 162.108 1398.26 162.119 1398.32 162.119ZM1403.14 183.738C1403.54 183.754 1403.93 183.52 1404.1 183.124C1404.31 182.619 1404.07 182.035 1403.56 181.827L1403.51 181.806V181.801C1386.64 174.848 1370.21 168.03 1362.11 156.035C1354 144.04 1354.13 126.712 1354.3 108.915C1354.3 108.374 1353.87 107.931 1353.33 107.91C1353.32 107.91 1353.32 107.91 1353.31 107.91C1352.75 107.905 1352.3 108.348 1352.3 108.9C1352.14 126.483 1351.93 144.535 1360.45 157.15C1368.96 169.749 1386.07 176.77 1402.74 183.645L1402.79 183.665C1402.91 183.712 1403.02 183.738 1403.14 183.738ZM1397.15 149.259C1392.3 149.087 1384.65 146.551 1379.29 141.947C1372.12 135.796 1368.95 125.863 1368.93 118.342C1368.9 111.832 1371.22 107.171 1373.94 102.592V102.587C1374.64 104.707 1375.65 106.827 1377.66 108.046C1378.57 108.603 1379.67 108.947 1380.64 109.259C1381.7 109.603 1382.64 109.91 1383.43 110.384C1384.05 110.764 1384.53 111.228 1384.86 111.863C1386.09 114.264 1385.35 119.582 1383.23 123.223C1382.29 124.869 1381.07 126.129 1379.95 127.28C1379.15 128.108 1378.32 128.957 1377.81 129.827C1377.54 130.296 1377.33 130.816 1377.29 131.395C1377.03 134.374 1380.93 137.077 1384.59 138.467C1388.52 139.962 1393.12 140.363 1397.56 140.759C1397.57 140.764 1397.59 140.764 1397.61 140.764C1397.82 140.77 1398.02 140.712 1398.18 140.608C1400.9 144.764 1402.15 147.629 1400.75 148.634C1400.71 148.665 1400.67 148.691 1400.62 148.717C1400 149.092 1398.83 149.322 1397.15 149.259ZM1391.87 120.379C1391.9 120.379 1391.93 120.379 1391.95 120.379C1392.5 120.353 1392.93 119.889 1392.91 119.337C1392.61 112.796 1392.31 106.165 1391.22 100.139C1390.12 94.1029 1388.22 88.7018 1386.35 83.3789C1386.21 82.9779 1385.85 82.7279 1385.45 82.7122C1385.33 82.707 1385.2 82.7227 1385.08 82.7643C1384.56 82.9466 1384.29 83.5143 1384.47 84.0352C1386.34 89.3737 1388.19 94.6393 1389.25 100.494C1390.32 106.363 1390.61 112.853 1390.91 119.431C1390.94 119.952 1391.36 120.358 1391.87 120.379ZM1328.56 82.9987C1328.81 83.0091 1329.05 82.9258 1329.25 82.7539L1337.88 75.28C1338.3 74.9206 1338.34 74.2904 1337.98 73.8737C1337.79 73.6602 1337.53 73.5404 1337.27 73.5352C1337.02 73.5248 1336.77 73.6029 1336.57 73.7748L1327.94 81.2539C1327.53 81.6133 1327.48 82.2435 1327.84 82.655C1328.04 82.8737 1328.3 82.9883 1328.56 82.9987ZM1403.24 122.848C1403.3 122.848 1403.36 122.848 1403.43 122.837C1403.97 122.749 1404.34 122.244 1404.26 121.697C1403.1 114.27 1401.95 106.832 1400.48 98.6862C1399.02 90.5456 1397.25 81.7019 1395.48 72.8685V72.8633C1395.39 72.3998 1394.99 72.0821 1394.54 72.0612C1394.46 72.0612 1394.39 72.0664 1394.31 72.0821C1393.77 72.1914 1393.42 72.7123 1393.53 73.2539C1395.29 82.0977 1397.06 90.9206 1398.52 99.0404C1399.97 107.16 1401.13 114.577 1402.29 122.004C1402.36 122.483 1402.77 122.832 1403.24 122.848ZM1329.2 73.0091C1329.3 73.0144 1329.41 73.0039 1329.5 72.9727L1341.89 69.53C1342.42 69.3789 1342.73 68.8321 1342.58 68.3008C1342.46 67.8737 1342.08 67.5873 1341.66 67.5716C1341.56 67.5664 1341.46 67.5821 1341.35 67.6081L1328.97 71.056C1328.44 71.2019 1328.13 71.7539 1328.28 72.2852C1328.4 72.7123 1328.78 72.9935 1329.2 73.0091ZM1362.44 101.608C1362.82 101.624 1363.2 101.41 1363.37 101.04C1366.41 94.6862 1369.42 88.3945 1372.69 83.1706C1375.95 77.957 1379.48 73.7904 1383.07 69.5664C1383.42 69.1446 1383.37 68.5144 1382.95 68.1602C1382.77 68.0091 1382.56 67.9362 1382.34 67.9258C1382.05 67.9154 1381.75 68.0352 1381.54 68.28C1377.97 72.4935 1374.34 76.7643 1370.99 82.1133C1367.65 87.4518 1364.59 93.8529 1361.57 100.186C1361.33 100.681 1361.55 101.275 1362.04 101.509C1362.17 101.572 1362.3 101.603 1362.44 101.608ZM1335.45 85.1914C1335.7 85.2018 1335.96 85.1133 1336.17 84.9258L1354.04 68.3321C1354.44 67.9571 1354.47 67.3269 1354.09 66.9206C1353.9 66.7227 1353.65 66.6133 1353.4 66.6029C1353.14 66.5977 1352.88 66.6862 1352.68 66.8737L1334.8 83.4675C1334.4 83.8425 1334.38 84.4727 1334.75 84.8789C1334.94 85.0768 1335.19 85.1862 1335.45 85.1914ZM1417.1 100.707C1417.25 100.712 1417.4 100.686 1417.55 100.619C1418.05 100.395 1418.27 99.8008 1418.04 99.3008C1415.28 93.2331 1412.54 87.2123 1410.47 81.5039C1408.41 75.8008 1407.01 70.3946 1405.6 64.9466C1405.49 64.5091 1405.1 64.2123 1404.68 64.1966C1404.58 64.1914 1404.48 64.2019 1404.39 64.2279C1403.86 64.3633 1403.54 64.905 1403.67 65.4414C1405.08 70.8841 1406.49 76.3737 1408.59 82.1758C1410.69 87.9779 1413.47 94.0716 1416.22 100.124C1416.39 100.483 1416.73 100.697 1417.1 100.707ZM1318.03 96.6966C1318.52 93.0612 1318.93 89.2643 1318.08 86.4414C1317.78 85.4362 1317.32 84.5768 1316.92 83.806C1316.05 82.1289 1315.29 80.6758 1315.8 78.082C1316.59 74.0039 1320.42 67.3112 1324.42 60.3477C1324.54 60.1289 1324.57 59.8841 1324.53 59.655V59.6498C1330.74 62.3216 1337.55 64.03 1344.41 64.28C1345 64.3008 1345.6 64.3112 1346.2 64.3112C1351.15 64.3008 1356.08 63.5039 1361 62.1446C1352.59 73.03 1344.23 84.0977 1339.36 96.4987H1339.35C1339.22 96.4362 1339.09 96.405 1338.94 96.3998C1338.93 96.3998 1338.91 96.3945 1338.89 96.3998L1318.04 96.6966H1318.03ZM1434.89 413.853C1431.12 408.129 1427.8 402.28 1426.91 394.504C1425.87 385.447 1428.12 373.738 1430.44 361.796L1430.46 361.717C1430.54 361.28 1430.32 360.837 1429.92 360.634C1429.79 360.572 1429.65 360.54 1429.51 360.535C1429.22 360.525 1428.93 360.639 1428.73 360.869C1426.61 363.244 1424.53 365.587 1422.07 367.921C1420.16 369.733 1418.49 371.035 1417.33 370.994C1416.99 370.983 1416.66 370.853 1416.29 370.405C1414.71 368.441 1413.73 361.816 1416.02 355.936C1418.28 350.129 1423.7 345.197 1429.39 340.051C1429.78 339.697 1429.82 339.103 1429.49 338.691C1429.31 338.457 1429.03 338.327 1428.75 338.322C1428.54 338.311 1428.33 338.369 1428.14 338.499C1423.65 341.65 1419.15 344.806 1415.8 347.181L1415.66 347.28C1412.96 349.202 1411.41 350.233 1410.22 350.186C1409.95 350.181 1409.68 350.103 1409.41 349.936C1408.1 349.139 1406.29 345.848 1409.18 340.134C1410.98 336.551 1414.57 332.191 1418.87 327.488H1418.88C1422.09 324.952 1424.81 321.65 1427.45 318.467C1427.79 318.056 1427.74 317.447 1427.34 317.092C1427.16 316.931 1426.94 316.848 1426.71 316.837C1426.44 316.827 1426.16 316.931 1425.96 317.145C1423.08 320.119 1420.17 323.124 1417.49 326.04H1417.5C1415.61 327.514 1413.58 328.665 1411.29 329.322C1409.5 329.832 1407.54 330.046 1405.57 329.973C1400.95 329.806 1396.56 328.082 1394.42 325.27C1391.46 321.4 1392.36 314.702 1399.7 307.764C1402.99 304.655 1407.51 301.572 1412.16 298.405C1417.78 294.577 1423.6 290.619 1427.22 286.473C1433.94 278.801 1433.07 270.587 1432.29 262.832C1432.24 262.348 1431.85 261.973 1431.36 261.936C1431.35 261.936 1431.34 261.936 1431.33 261.936C1430.86 261.921 1430.44 262.238 1430.33 262.697C1429.43 266.41 1428.57 269.931 1426.48 273.124C1424.32 276.452 1421.06 279.103 1419.19 279.244C1419.11 279.249 1419.05 279.249 1418.98 279.249C1417.56 279.197 1416.61 277.478 1415.28 274.66L1415.28 274.655L1415.27 274.645C1415.15 274.389 1414.93 274.197 1414.66 274.113C1414.57 274.092 1414.49 274.077 1414.41 274.072C1414.21 274.066 1414.02 274.113 1413.85 274.217C1406.75 278.509 1399.78 282.717 1393.97 284.759C1389.17 286.452 1385.16 286.665 1381.18 286.634H1381.17C1383.71 283.999 1386.28 281.186 1388.73 277.54C1391.68 273.15 1394.46 267.572 1397.2 262.072C1397.36 261.738 1397.33 261.342 1397.11 261.04L1392.46 254.671H1392.47C1397.95 251.52 1403.5 248.202 1407.39 243.509C1411.49 238.535 1413.68 232.077 1415.8 225.842C1415.95 225.395 1415.77 224.895 1415.35 224.66C1415.21 224.577 1415.05 224.535 1414.89 224.53C1414.59 224.52 1414.3 224.639 1414.1 224.874C1412.49 226.733 1411.37 227.889 1410.28 227.853C1410.23 227.848 1410.19 227.848 1410.15 227.842V227.837C1409.77 227.79 1409.32 227.598 1408.6 227.264C1407.57 226.785 1406.18 226.139 1404.35 226.072C1403.65 226.046 1402.88 226.108 1402.05 226.29C1400.87 226.551 1399.57 227.051 1398.22 227.671C1396.5 228.462 1394.62 229.478 1392.7 230.52C1390.59 231.665 1388.42 232.842 1386.26 233.832C1382.05 235.764 1378.03 236.936 1375.34 236.837C1374.39 236.806 1373.69 236.608 1373.23 236.316C1371.44 235.165 1371.81 231.499 1372.61 227.759C1373.32 224.395 1374.05 222.176 1374.79 219.915C1374.89 219.629 1374.84 219.316 1374.68 219.066C1374.52 218.811 1374.24 218.645 1373.95 218.613L1365 217.697H1365.02C1369.42 206.181 1373.81 194.217 1370.12 185.077C1369.72 184.082 1369.23 183.129 1368.66 182.207C1366.49 178.671 1363.18 175.494 1359.66 172.108C1355.25 167.879 1350.44 163.238 1346.56 156.915C1338.71 144.129 1334.68 124.374 1338.16 107.41C1341.64 90.4675 1352.62 76.2383 1363.8 61.7904C1363.93 61.6237 1363.99 61.4362 1364.01 61.2435H1364.02C1375.61 57.5144 1387.11 50.9102 1398.48 44.3737V44.3685C1398.94 44.6862 1399.42 44.9883 1399.9 45.2852C1404.64 48.1758 1410.73 50.3373 1416.54 51.1966H1416.55C1414.46 56.9154 1412.39 62.931 1415.89 72.0039C1419.31 80.8477 1428.06 92.6393 1436.79 104.327H1436.8C1434.26 106.119 1431.96 107.603 1429.77 107.853C1429.46 107.889 1429.16 107.9 1428.84 107.889C1426.74 107.811 1424.62 106.754 1422.24 105.551C1422.11 105.483 1421.97 105.447 1421.83 105.441C1421.65 105.436 1421.46 105.478 1421.3 105.572C1421 105.744 1420.81 106.046 1420.8 106.384C1420.43 113.197 1420.06 119.665 1417.92 123.775C1415.84 127.775 1412.02 129.613 1407.82 131.603C1407.66 131.676 1407.53 131.79 1407.43 131.926H1407.44C1403.33 132.228 1399.08 132.764 1394.87 133.29C1394.52 133.337 1394.22 133.561 1394.08 133.884C1393.94 134.207 1393.97 134.577 1394.18 134.863C1395.16 136.223 1396.08 137.504 1396.9 138.702H1396.89C1392.7 138.322 1388.69 137.9 1385.3 136.608C1381.41 135.129 1379.16 132.889 1379.27 131.566C1379.29 131.358 1379.37 131.119 1379.54 130.822C1379.9 130.212 1380.52 129.556 1381.39 128.665C1382.49 127.525 1383.87 126.108 1384.96 124.223C1387.22 120.327 1388.31 114.238 1386.64 110.962C1386.11 109.921 1385.32 109.207 1384.46 108.686C1383.44 108.066 1382.27 107.691 1381.25 107.363C1380.22 107.035 1379.37 106.754 1378.69 106.342C1376.78 105.186 1376.05 102.806 1375.21 99.8685C1375.1 99.4883 1374.78 99.207 1374.39 99.155C1374.35 99.1497 1374.32 99.1445 1374.29 99.1445C1373.93 99.1341 1373.59 99.3164 1373.4 99.6237C1370.22 104.853 1366.9 110.306 1366.93 118.348C1366.96 126.296 1370.28 136.837 1377.98 143.457C1383.7 148.363 1391.78 151.061 1397.07 151.254C1398.87 151.316 1400.52 151.103 1401.65 150.426C1401.74 150.374 1401.83 150.316 1401.92 150.254C1405.69 147.54 1400.82 140.624 1396.79 135.056H1396.8C1403.42 134.233 1409.92 133.494 1415.78 133.702C1421.43 133.905 1426.37 134.994 1430.2 137.645C1438.45 143.348 1441.91 156.426 1437.65 164.363C1433.38 172.316 1421.25 175.488 1408.34 178.775C1407.83 178.905 1407.51 179.405 1407.6 179.915C1407.69 180.384 1408.09 180.717 1408.55 180.738C1408.59 180.738 1408.64 180.738 1408.69 180.733C1412.48 180.337 1416.18 179.957 1419.66 180.082C1422.4 180.181 1424.95 180.598 1427.23 181.551C1432.05 183.566 1435.86 188.051 1439.76 192.957H1439.77C1433.33 194.801 1427.09 196.462 1421.26 196.254C1420.59 196.228 1419.92 196.181 1419.27 196.103C1418.42 196.004 1417.57 195.858 1416.74 195.676H1416.75C1411.37 192.535 1405.48 190.087 1399.66 187.671C1399.55 187.624 1399.43 187.598 1399.31 187.598C1398.93 187.582 1398.57 187.785 1398.39 188.145C1398.15 188.608 1398.31 189.176 1398.77 189.447C1404.24 192.723 1409.89 196.119 1415.99 197.546H1416C1417.95 198.697 1419.81 199.936 1421.57 201.306C1428 206.316 1433.04 213.061 1438.15 219.967H1438.16L1434.9 413.853H1434.89ZM1410.46 42.5873C1410.92 42.6029 1411.35 42.2956 1411.46 41.8269L1413.89 31.9362C1414.02 31.405 1413.69 30.8633 1413.16 30.7331C1413.09 30.7175 1413.02 30.7071 1412.95 30.7071C1412.49 30.6862 1412.06 30.9987 1411.95 31.4623L1409.52 41.3529C1409.39 41.8894 1409.72 42.4258 1410.25 42.556C1410.32 42.5769 1410.39 42.5821 1410.46 42.5873ZM1425.07 43.6289C1425.14 43.6289 1425.21 43.6237 1425.28 43.6133C1425.82 43.5144 1426.18 42.9935 1426.08 42.4519L1423.93 30.681C1423.84 30.2123 1423.44 29.8789 1422.98 29.8633C1422.91 29.8581 1422.84 29.8633 1422.77 29.8789C1422.22 29.9779 1421.86 30.4935 1421.96 31.0352L1424.12 42.8112C1424.21 43.28 1424.61 43.6133 1425.07 43.6289ZM1396.47 33.8269C1396.69 33.8321 1396.92 33.7644 1397.11 33.6185L1406.15 26.7227C1406.59 26.3894 1406.67 25.7644 1406.34 25.3269C1406.15 25.0769 1405.87 24.9466 1405.58 24.9362C1405.35 24.9258 1405.13 24.9935 1404.94 25.1394L1395.9 32.0404C1395.46 32.3737 1395.37 32.9987 1395.71 33.4362C1395.9 33.681 1396.18 33.8164 1396.47 33.8269ZM1420.68 49.5873C1414.14 49.3477 1406.52 46.9883 1400.94 43.5873C1391.86 38.0404 1388.39 29.8477 1389.17 24.9466C1389.88 20.4519 1394.22 18.2956 1399.48 16.0612C1403.19 21.4258 1411.08 23.9519 1417.59 24.3008C1417.78 24.3112 1417.96 24.3164 1418.14 24.3269C1424.32 24.5456 1429.53 22.8477 1434.53 21.0821C1435.8 32.8737 1436.46 43.3008 1430.7 47.3737C1428.36 49.03 1424.82 49.7331 1420.68 49.5873ZM1385.96 19.5144C1386.28 19.5248 1386.6 19.3789 1386.8 19.1029L1391.7 12.3998C1392.02 11.9519 1391.92 11.3321 1391.48 11.0091C1391.31 10.8841 1391.12 10.8216 1390.93 10.8164C1390.6 10.806 1390.29 10.9466 1390.08 11.2279L1385.19 17.931C1384.86 18.3737 1384.96 18.9987 1385.41 19.3216C1385.57 19.4414 1385.77 19.5039 1385.96 19.5144ZM1374.27 14.1029C1374.43 14.1081 1374.59 14.0769 1374.74 13.9987L1384.4 9.18623C1384.89 8.93623 1385.09 8.34248 1384.84 7.84768C1384.68 7.50914 1384.34 7.31123 1383.98 7.2956C1383.82 7.29039 1383.66 7.32685 1383.5 7.40498L1373.85 12.2175C1373.36 12.4623 1373.16 13.0612 1373.41 13.5508C1373.57 13.8894 1373.91 14.0873 1374.27 14.1029ZM1348 52.6862C1358.11 53.0508 1369.13 51.1185 1380.01 49.2123C1380.55 49.1185 1380.92 48.6029 1380.82 48.056C1380.73 47.5873 1380.33 47.2539 1379.87 47.2331C1379.8 47.2331 1379.73 47.2383 1379.66 47.2487C1368.73 49.1654 1357.94 51.0508 1348.07 50.6966C1344.03 50.5508 1340.17 50.03 1336.53 48.9883C1323.96 45.3841 1314.03 35.5508 1311.92 27.3164C1309.84 19.2279 1315.23 12.3737 1321.15 4.97789C1321.49 4.55081 1321.42 3.92581 1320.99 3.58206C1320.81 3.44143 1320.61 3.37373 1320.4 3.36331C1320.09 3.35289 1319.79 3.4831 1319.58 3.73831C1313.86 10.8946 1307.61 18.5821 1309.98 27.8112C1312.31 36.8998 1322.91 47.155 1335.98 50.8998C1339.81 51.9987 1343.84 52.5352 1348 52.6862ZM1412.66 14.9675C1412.92 14.9779 1413.18 14.8894 1413.38 14.7019L1421.05 7.58206C1421.45 7.20706 1421.47 6.57685 1421.1 6.17581C1420.91 5.97268 1420.66 5.86852 1420.4 5.8581C1420.15 5.84769 1419.89 5.93623 1419.69 6.12373L1412.02 13.2435C1411.61 13.6185 1411.59 14.2487 1411.97 14.655C1412.16 14.8529 1412.41 14.9623 1412.66 14.9675ZM1424.45 17.9727C1424.93 17.9935 1425.37 17.655 1425.46 17.1602L1427.6 5.71227C1427.7 5.1706 1427.34 4.65498 1426.8 4.55081C1426.75 4.54039 1426.7 4.53518 1426.66 4.53518C1426.17 4.51956 1425.73 4.8581 1425.64 5.34768L1423.5 16.7956C1423.4 17.3373 1423.75 17.8581 1424.3 17.9571C1424.35 17.9675 1424.4 17.9727 1424.45 17.9727ZM1368.08 4.07164C1368.14 4.07685 1368.21 4.07164 1368.28 4.06123L1383.36 1.50914C1383.91 1.41539 1384.28 0.899768 1384.18 0.358101C1384.1 -0.115856 1383.7 -0.454399 1383.23 -0.470024C1383.17 -0.470024 1383.1 -0.470024 1383.03 -0.454399L1367.95 2.09768C1367.4 2.18623 1367.04 2.70185 1367.13 3.24352C1367.21 3.71748 1367.61 4.05602 1368.08 4.07164ZM1405.8 4.57164C1405.89 4.57685 1405.97 4.56643 1406.06 4.55081L1420.31 1.27998C1420.85 1.15498 1421.18 0.618518 1421.06 0.0820595C1420.96 -0.365857 1420.56 -0.673149 1420.12 -0.688774C1420.04 -0.693982 1419.95 -0.683567 1419.86 -0.662732L1405.61 2.6081C1405.08 2.7331 1404.74 3.26435 1404.86 3.80081C1404.97 4.24873 1405.36 4.55602 1405.8 4.57164ZM1344.48 62.2904C1330.43 61.78 1316.54 54.8529 1308.03 46.3633H1308.04C1307.93 46.155 1307.77 45.9987 1307.56 45.905H1307.57C1306.27 44.5664 1305.1 43.1862 1304.08 41.7904C1296.31 31.1081 1297.62 19.306 1301.82 10.6029C1306 1.91539 1313.02 -3.54294 1320.32 -5.55857C1322.73 -6.22523 1325.18 -6.5169 1327.48 -6.43357C1332.2 -6.26169 1336.21 -4.54815 1338.34 -1.47002C1341.61 3.24352 1340.86 11.5977 1339.19 15.9414C1339.05 16.2956 1338.91 16.6185 1338.77 16.9154C1337.97 18.556 1337.05 19.4258 1336.07 20.3477C1335.16 21.1914 1334.17 22.1133 1333.41 23.6706C1331.75 27.0664 1331.14 33.8112 1337.07 37.7591C1340.37 39.9571 1345.6 41.181 1350.99 41.3789C1354.99 41.5196 1359.18 41.0977 1362.85 40.0248C1371.42 37.5196 1377.08 31.5039 1382.52 25.681H1382.53C1384.09 25.3373 1385.67 24.905 1387.22 24.4571C1387.21 24.5144 1387.2 24.5716 1387.19 24.6341C1386.36 29.8737 1389.46 37.3894 1396.72 43.0821H1396.73C1379.68 52.8789 1362.94 62.2904 1346.19 62.3164C1345.62 62.3216 1345.05 62.3112 1344.48 62.2904ZM1376.04 24.405C1372.85 24.2904 1369.86 23.2227 1367.03 20.3477C1363.91 17.1862 1360.97 11.8477 1359.82 6.65498C1358.68 1.51435 1359.33 -2.97523 1365.64 -4.86586C1369.54 -6.03773 1375.63 -6.23044 1382.78 -5.97002C1387.58 -5.79815 1392.8 -5.42836 1398.06 -5.03773H1398.07C1396.96 1.86331 1395.99 9.04039 1398.48 14.3164H1398.49C1394.26 16.1029 1389.79 18.2019 1387.94 22.1758H1387.95C1384.03 23.3164 1380.28 24.3841 1376.78 24.4154C1376.53 24.4154 1376.28 24.4102 1376.04 24.405ZM1418.2 22.3321C1418.04 22.3269 1417.87 22.3216 1417.7 22.3112C1411.36 21.9727 1404.22 19.4987 1401.07 14.8477H1401.08C1401.1 14.681 1401.08 14.5039 1401.01 14.3373C1400.9 14.0716 1400.69 13.8789 1400.44 13.7904H1400.44C1397.98 9.01435 1398.94 2.07164 1400.15 -5.43877H1400.16L1432.63 -4.43357L1434.19 19.0873H1434.2C1429.1 20.8894 1424.12 22.5456 1418.2 22.3321ZM1286.92 51.0144C1285.83 50.9779 1284.71 50.8737 1283.57 50.6914C1274.79 49.2956 1264.3 43.4102 1257.91 36.2123C1251.57 29.0716 1249.31 20.681 1251.09 12.1185C1252.87 3.50394 1258.74 -5.25127 1268.22 -9.25127C1272.54 -11.0742 1277.64 -11.9231 1282.43 -11.7513C1288.22 -11.5377 1293.33 -9.85023 1296.1 -6.83982C1301.22 -1.29815 1299 9.38935 1296.86 16.3216C1294.79 23.03 1293.22 24.8946 1289.77 25.9206C1288.18 26.3946 1286.19 26.6758 1284.22 26.6081C1281.54 26.5091 1279.09 25.7644 1277.64 24.1862C1275.02 21.3321 1275.17 15.2956 1277.24 12.4414C1278.87 10.2019 1281.83 9.91018 1285.62 10.0456C1286.09 10.0612 1286.57 10.0821 1287.05 10.1081H1287.06C1287.2 10.1862 1287.36 10.2331 1287.52 10.2383C1287.67 10.2435 1287.82 10.2175 1287.97 10.1498C1288.42 9.94143 1288.65 9.44143 1288.52 8.97789H1288.53C1288.5 8.79039 1288.42 8.61852 1288.3 8.4831H1288.31C1286.2 3.87373 1283.73 -1.44919 1278.08 -1.87107C1277.96 -1.88148 1277.83 -1.88669 1277.71 -1.8919C1272.19 -2.08981 1264.11 2.25914 1261.32 10.1706C1258.5 18.181 1261.17 29.7487 1266.36 35.806C1271.68 41.9935 1279.56 42.3894 1286.87 42.8112C1286.89 42.8112 1286.89 42.8112 1286.9 42.8112C1287.44 42.8321 1287.9 42.4154 1287.93 41.8737C1287.96 41.3216 1287.54 40.8529 1286.99 40.8216C1279.48 40.3894 1272.55 39.9466 1267.88 34.5091C1263.11 28.9466 1260.64 18.1185 1263.21 10.8321C1265.7 3.76435 1272.97 -0.0689822 1277.64 0.0976845C1277.74 0.102892 1277.84 0.1081 1277.93 0.113309C1281.85 0.410184 1283.87 3.75394 1285.91 8.06123H1285.9C1285.83 8.06123 1285.76 8.05602 1285.69 8.05602C1282.03 7.9206 1277.96 8.07685 1275.63 11.2696C1273.09 14.7644 1272.8 21.8685 1276.16 25.53C1278.14 27.681 1281.23 28.4935 1284.15 28.5977C1286.34 28.6758 1288.54 28.3633 1290.33 27.8321C1293.24 26.9675 1295.04 25.5091 1296.53 22.6966C1296.09 29.2435 1297.62 36.3008 1302.46 42.9623C1303.33 44.1498 1304.3 45.3269 1305.37 46.4779L1305.38 46.4831C1299.45 49.0039 1293.63 51.2591 1286.92 51.0144ZM1435.8 418.077C1435.91 418.082 1436.02 418.072 1436.12 418.04C1436.54 417.915 1436.83 417.535 1436.84 417.098L1440.16 219.676C1440.17 219.457 1440.1 219.238 1439.97 219.066C1434.82 212.108 1429.57 205.009 1422.8 199.733C1422.12 199.212 1421.44 198.712 1420.74 198.223C1420.9 198.233 1421.04 198.238 1421.19 198.244C1427.83 198.483 1434.89 196.436 1441.74 194.462C1442.07 194.369 1442.32 194.124 1442.42 193.806C1442.52 193.494 1442.46 193.15 1442.25 192.889C1438.11 187.655 1433.77 182.129 1428 179.717V179.712C1425.43 178.639 1422.62 178.197 1419.72 178.092C1419.39 178.082 1419.04 178.072 1418.7 178.072H1418.69C1427.73 175.395 1435.89 171.869 1439.41 165.306C1444.2 156.384 1440.33 142.223 1431.34 136.009C1427.06 133.046 1421.68 131.921 1415.85 131.712C1414.64 131.671 1413.41 131.665 1412.15 131.691H1412.14C1415.12 130.098 1417.94 128.072 1419.7 124.691C1421.9 120.457 1422.36 114.176 1422.71 108.009C1424.61 108.947 1426.66 109.801 1428.77 109.879C1429.18 109.895 1429.59 109.879 1430 109.832C1433.05 109.483 1436.07 107.296 1438.79 105.363C1439 105.207 1439.15 104.967 1439.19 104.707C1439.23 104.441 1439.17 104.171 1439 103.957C1429.99 91.8945 1421.12 80.0196 1417.75 71.2852C1414.46 62.7539 1416.45 57.2748 1418.55 51.5404C1418.56 51.5091 1418.57 51.4727 1418.58 51.4414C1419.27 51.5039 1419.94 51.5508 1420.61 51.5769C1424.94 51.7331 1429 51.0196 1431.85 48.9987C1439.18 43.8164 1437.59 30.6341 1436.27 18.6341C1436.25 18.4831 1436.2 18.3477 1436.12 18.2227H1436.14L1434.56 -5.46482C1434.53 -5.97523 1434.11 -6.37627 1433.6 -6.39711C1433.6 -6.39711 1433.6 -6.39711 1433.59 -6.39711L1399.34 -7.45961C1398.98 -7.47002 1398.66 -7.28773 1398.47 -7.00648H1398.46C1393.11 -7.40232 1387.77 -7.78773 1382.85 -7.96482C1375.72 -8.22002 1369.32 -8.04815 1365.06 -6.77211C1357.27 -4.43877 1356.63 1.50393 1357.86 7.08727C1359.09 12.6185 1362.2 18.3008 1365.6 21.7435C1368.82 25.0039 1372.3 26.2591 1375.97 26.3946C1376.24 26.405 1376.52 26.405 1376.79 26.405C1377.6 26.3998 1378.43 26.3425 1379.25 26.2435C1374.37 31.3789 1369.39 36.0352 1362.29 38.1133C1358.85 39.1185 1354.9 39.5248 1351.06 39.3894C1345.85 39.1966 1341.04 38.0091 1338.18 36.1029C1333.4 32.9206 1333.8 27.4414 1335.21 24.5404C1335.79 23.3477 1336.53 22.6446 1337.43 21.7956C1338.44 20.8529 1339.59 19.7748 1340.56 17.7852C1340.73 17.4362 1340.9 17.056 1341.06 16.6498C1342.82 12.056 1343.81 2.90498 1339.98 -2.60544C1337.37 -6.37627 1332.65 -8.24086 1327.56 -8.42315C1325.04 -8.51169 1322.39 -8.19398 1319.79 -7.48044C1312.37 -5.43357 1305.33 -0.126274 1300.84 8.13935H1300.83C1301.68 2.34248 1301.41 -4.02211 1297.57 -8.18877C1294.28 -11.7669 1288.52 -13.5221 1282.5 -13.7409C1277.45 -13.9231 1272.06 -13.0325 1267.44 -11.0846C1257.27 -6.79294 1251.03 2.57164 1249.14 11.7175C1247.22 20.9258 1249.68 29.9466 1256.41 37.53C1263.08 45.0508 1273.99 51.1862 1283.26 52.6602C1284.48 52.8529 1285.68 52.9623 1286.84 53.0039C1294.32 53.2748 1300.71 50.6446 1306.86 48.0144C1311.18 52.2644 1316.78 56.1081 1323.04 58.9883L1323.05 58.9935C1322.9 59.0769 1322.78 59.2019 1322.68 59.3581C1318.78 66.155 1314.71 73.2123 1313.84 77.7018C1313.19 80.9935 1314.23 82.9675 1315.15 84.7279C1315.56 85.5195 1315.93 86.2175 1316.17 87.0143C1316.95 89.6289 1316.46 93.431 1315.9 97.5768C1315.86 97.8633 1315.95 98.155 1316.14 98.3737C1316.32 98.5768 1316.58 98.6966 1316.85 98.707C1316.86 98.707 1316.89 98.707 1316.9 98.707L1338.65 98.3945V98.3893C1337.64 101.191 1336.81 104.061 1336.2 107.014C1332.62 124.478 1336.74 144.744 1344.85 157.957C1348.89 164.525 1353.89 169.327 1358.27 173.54C1361.84 176.978 1364.95 179.973 1366.96 183.249C1367.47 184.087 1367.92 184.941 1368.27 185.816C1371.72 194.389 1367.35 205.994 1362.69 218.202C1362.57 218.488 1362.6 218.811 1362.77 219.077C1362.93 219.342 1363.21 219.514 1363.52 219.546L1372.5 220.467H1372.51C1371.89 222.389 1371.27 224.467 1370.66 227.348C1369.99 230.447 1368.95 235.931 1372.16 237.988C1373.03 238.551 1374.11 238.785 1375.28 238.827C1378.44 238.941 1382.82 237.608 1387.09 235.639C1389.32 234.619 1391.56 233.41 1393.66 232.27C1395.59 231.223 1397.41 230.238 1399.06 229.483C1400.36 228.884 1401.5 228.452 1402.48 228.238V228.233C1403.15 228.087 1403.74 228.04 1404.29 228.061C1405.67 228.113 1406.73 228.592 1407.76 229.072C1408.4 229.363 1409.15 229.723 1409.9 229.816C1410 229.827 1410.1 229.837 1410.21 229.842C1411.05 229.874 1411.83 229.582 1412.55 229.129C1410.81 234.004 1408.87 238.572 1405.84 242.238C1402 246.884 1396.36 250.139 1390.5 253.504C1390.26 253.645 1390.09 253.884 1390.03 254.16C1389.97 254.436 1390.03 254.723 1390.2 254.952L1395.14 261.717H1395.15C1392.48 267.066 1389.84 272.306 1387.07 276.431C1384.22 280.676 1381.2 283.754 1378.13 286.895C1377.85 287.176 1377.77 287.598 1377.92 287.967C1378.07 288.332 1378.42 288.572 1378.81 288.587C1378.81 288.587 1378.82 288.587 1378.82 288.587H1378.85C1383.62 288.686 1388.55 288.785 1394.64 286.639C1400.41 284.608 1407.21 280.556 1413.94 276.494C1414.97 278.639 1416.39 281.15 1418.91 281.238C1419.05 281.244 1419.19 281.238 1419.34 281.228C1422.22 281.014 1425.95 277.603 1428.16 274.212C1429.32 272.426 1430.14 270.551 1430.77 268.665V268.66C1431.04 274.41 1430.32 279.905 1425.72 285.165C1422.3 289.077 1416.72 292.884 1411.03 296.764C1406.43 299.9 1401.75 303.077 1398.33 306.316C1390.73 313.499 1388.93 321.358 1392.83 326.478C1395.48 329.947 1400.55 331.785 1405.5 331.962C1407.65 332.04 1409.83 331.811 1411.84 331.233C1412.36 331.082 1412.87 330.91 1413.37 330.717C1410.8 333.796 1408.68 336.686 1407.39 339.238C1404.26 345.436 1405.8 350.072 1408.37 351.639V351.634C1408.93 351.978 1409.53 352.155 1410.15 352.181C1412.19 352.254 1414.42 350.608 1416.82 348.905L1416.96 348.806C1417.68 348.296 1418.45 347.749 1419.26 347.176C1417.09 349.686 1415.28 352.337 1414.16 355.212C1411.72 361.467 1412.54 368.931 1414.73 371.65C1415.43 372.504 1416.29 372.952 1417.25 372.983C1419.44 373.066 1421.77 370.957 1423.45 369.363C1425.03 367.863 1426.45 366.363 1427.81 364.874V364.869C1425.76 375.566 1423.95 386.217 1424.92 394.728C1426.01 404.254 1430.59 411.046 1435.01 417.639C1435.19 417.91 1435.49 418.066 1435.8 418.077Z" fill="#FF6842"/>
</g>
</svg>
