<svg width="108" height="27" viewBox="0 0 108 27" fill="none" xmlns="http://www.w3.org/2000/svg">
<path d="M64.6416 17.2958C64.788 17.2469 64.933 17.199 65.0794 17.1522C66.4295 16.7265 67.7992 16.431 69.2499 16.6922C71.737 17.1418 73.9757 18.3729 76.4262 18.9869C77.0261 19.1368 77.6404 19.3054 78.2598 19.3959C78.2821 19.3991 78.8245 19.4396 78.8245 19.4324C78.8793 18.1492 77.6979 17.0731 76.5112 16.3206C76.1008 16.0615 75.68 15.7836 75.2369 15.5599C75.2173 15.5505 74.769 15.3778 74.7716 15.3684C74.8344 15.1165 76.1949 15.1499 76.2197 15.051C76.2276 15.0208 75.8564 14.8075 75.8316 14.7898C75.331 14.4515 74.7808 14.1622 74.1875 13.9395C71.6638 12.9966 68.7114 13.4681 66.2178 14.2465C64.2534 14.8595 62.3466 15.6889 60.5235 16.5309C60.3065 16.6308 58.912 17.4633 58.6376 17.3385C58.614 17.3281 59.2243 16.7962 59.257 16.7681C59.6948 16.3862 60.1405 16.0105 60.6071 15.6504C62.9935 13.8115 65.6767 12.3316 68.7166 11.2555C71.4599 10.2835 74.6279 9.25528 77.6221 10.0941C78.993 10.4781 80.1641 11.1671 81.3168 11.8529C81.3704 11.8841 82.2395 12.4742 82.2918 12.4461C82.5466 12.3119 82.6956 11.8092 82.7662 11.6021C83.2916 10.0691 82.1061 9.58624 81.5964 8.30513C81.42 7.8597 82.0604 7.28939 82.6394 7.43405C83.8313 7.73065 83.7699 9.7465 84.1711 10.5031C84.7148 11.5344 86.3171 11.7291 87.5483 11.856C87.7469 11.8768 89.2812 12.1672 89.425 12.0288C89.6067 11.855 89.2133 11.2774 89.1323 11.1265C88.6435 10.1971 88.0475 9.2886 87.2921 8.47789C87.0804 8.25101 86.8503 8.02934 86.5915 7.83473C86.4608 7.73378 85.9447 7.63283 86.125 7.60265C89.3087 7.07397 93.1367 8.13445 93.8699 10.834C94.0868 11.6406 94.2358 12.4856 94.2149 13.312C94.2097 13.5243 94.0163 14.2496 94.1796 14.4443C94.5809 14.9251 95.6251 15.4048 96.1348 15.8763C96.3609 16.0865 96.57 16.305 96.7622 16.5371C96.8497 16.6474 97.0039 16.8816 97.0039 16.8816C97.0039 16.8816 97.1751 16.6079 97.2548 16.4684C97.396 16.2166 97.5123 15.9564 97.6103 15.6921C97.9253 14.8522 98.0508 13.9541 98.0782 13.0799C98.0861 12.7791 98.0717 12.4784 98.0664 12.1776C98.0664 12.1568 98.0442 11.8852 98.0285 11.7426C98.0743 11.8581 98.1893 12.0506 98.1972 12.0673C98.4494 12.5481 98.6781 13.0351 98.8166 13.544C99.0505 14.3974 99.0127 15.2758 98.912 16.1396C98.9029 16.2187 98.6703 17.0793 98.6964 17.1095C98.8767 17.3281 99.5014 17.5268 99.7668 17.6933C99.9458 17.8068 100.248 18.0794 100.248 18.0794C100.248 18.0794 100.482 17.7495 100.569 17.5747C100.736 17.251 100.837 16.8962 100.887 16.5496C100.91 16.3789 100.922 16.2072 100.917 16.0355C100.914 15.9366 100.778 15.7181 100.902 15.7378C101.117 15.7722 101.21 16.2707 101.237 16.3852C101.429 17.1719 101.293 17.9837 100.982 18.7403C100.049 21.0371 95.4774 23.4942 92.6662 21.5096C92.4074 21.3264 91.9814 20.2618 92.576 20.1338C93.0334 20.0349 93.5458 20.1994 94.0542 20.0318C95.2709 19.629 95.4473 18.3906 94.5978 17.6507C91.75 15.1644 87.3064 18.6248 88.0553 21.2463C88.8199 23.9428 92.4401 24.8586 95.4879 24.3705C96.5047 24.2082 97.4901 23.9064 98.452 23.6004C98.7617 23.5005 99.0741 23.3995 99.3734 23.2798C99.4191 23.2611 99.4988 23.2361 99.5772 23.2122C99.4609 23.3506 99.3603 23.5837 99.3433 23.6326C99.227 23.9521 99.4086 25.5611 100.101 25.5507C100.384 25.5465 101.041 24.8617 101.262 24.7275C102.568 23.9313 104.016 23.3766 105.094 22.3547C108.295 19.3293 108.229 15.0718 106.584 11.5324C105.763 9.76523 104.633 8.02933 103.089 6.59316C95.7414 -0.241162 82.1035 -0.0496638 72.8452 4.02262C66.8124 6.67746 62.74 11.0422 57.8939 14.8127C53.5313 18.2075 48.5872 20.9965 42.5884 22.1892C41.9937 22.3078 41.3794 22.3786 40.7626 22.4348C41.3285 22.1205 41.8683 21.7802 42.3688 21.4201C43.6967 20.471 44.8572 19.3325 46.3536 18.5415C48.0461 17.6465 50.1973 17.7204 51.8715 16.7099C53.2373 15.8888 53.3327 14.7669 53.9848 13.619C54.1639 13.3047 54.4188 13.0466 54.7638 12.8374C54.803 12.8135 55.3532 12.5783 55.3428 12.5595C55.216 12.3503 54.5416 12.2619 54.3077 12.238C53.2098 12.1245 52.312 12.6636 51.7605 13.3775C51.716 13.4337 51.6101 13.5472 51.5186 13.6648C51.5213 13.6585 51.5239 13.6533 51.5265 13.6471C51.6298 13.4046 51.7539 13.1663 51.8899 12.9332C52.2754 12.2671 52.8387 11.7134 53.6607 11.3627C55.0578 10.7664 56.7503 11.0505 58.1984 10.4344C58.9995 10.0941 59.785 9.64139 60.3901 9.0971C60.7221 8.79842 60.9848 8.302 61.437 8.10634C61.7049 7.99083 61.9389 8.13445 62.1676 8.08553C62.1754 8.08345 62.0853 7.78998 62.08 7.77541C61.9663 7.47048 61.7925 7.16139 61.3873 7.04899C60.7496 6.87311 59.8661 7.34247 59.1982 7.34351C58.8741 7.34351 58.5839 7.24673 58.3173 7.10311C58.3069 7.09583 58.0547 6.93972 58.0729 6.93035C58.2821 6.82004 59.0022 6.87832 59.2466 6.8523C60.2058 6.75031 61.2135 6.65248 62.0878 6.29447C63.4248 5.74602 63.5608 4.6793 64.4848 3.86547C64.7697 3.6157 65.1199 3.45855 65.5408 3.41172C65.6911 3.39506 66.2426 3.51892 66.1198 3.36593C64.8886 1.84962 62.6119 1.38755 60.7849 2.48965C60.0595 2.92883 59.4374 3.36697 58.5486 3.58135C58.4375 3.60841 57.7907 3.78013 57.6822 3.69375C57.6796 3.69271 57.8638 3.58968 57.869 3.58552C57.9841 3.51787 58.0951 3.44399 58.2036 3.36802C58.499 3.15883 58.7931 2.94341 59.0427 2.69572C59.5237 2.21387 59.951 1.58945 59.883 0.954617C59.8634 0.749598 59.7249 0.333315 59.393 0.29793C59.3041 0.288564 58.9486 1.11593 58.8911 1.19398C58.5317 1.69768 57.9423 1.95889 57.2914 2.18785C56.1792 2.58124 55.1859 2.91947 54.2515 3.57095C52.8308 4.56066 51.814 5.96978 50.9828 7.2998C48.6983 10.9558 47.7939 15.4641 44.0691 18.425C41.4448 20.5105 37.7266 22.2745 34.1299 23.2122C35.6969 22.5857 37.1502 21.7875 38.4271 20.803C40.4555 19.2377 42.046 17.1563 43.0393 15.0593C44.601 11.7592 44.8049 6.9085 40.7142 4.64704C39.3184 3.87588 37.5606 3.57303 35.9165 3.97162C33.6071 4.53048 31.5618 6.53385 32.7223 8.48517C33.3693 9.56959 35.6237 10.7664 36.83 9.45823C36.9542 9.32398 37.0444 9.17203 37.0954 9.01072C37.2077 8.64959 37.1045 8.2354 36.7072 8.01061C36.2916 7.77749 35.7296 7.89613 36.1335 7.65572C36.1988 7.61722 36.2641 7.57871 36.3295 7.54229C36.4471 7.47984 36.5712 7.4226 36.6967 7.37161C38.793 6.54425 40.6293 8.16567 41.2958 9.59976C41.4474 9.92342 41.5677 10.2575 41.6761 10.5926C41.7925 10.9444 41.8852 11.3024 41.9336 11.6645C41.9362 11.6833 41.9885 11.9455 41.9611 11.9538C41.948 11.957 41.6591 11.7395 41.6356 11.727C41.271 11.522 40.8632 11.3565 40.4424 11.2389C39.0492 10.8476 37.5227 11.012 36.3465 11.7291C36.0602 11.9039 35.6446 12.1505 35.4904 12.4253C35.3871 12.6064 36.1687 13.0226 36.2942 13.1392C36.966 13.7563 37.4678 14.5192 37.8299 15.2799C37.8678 15.3611 38.2154 15.9783 38.1069 16.0626C38.0978 16.0698 37.6717 15.7202 37.6443 15.7004C37.3568 15.4954 37.0274 15.3247 36.6823 15.1873C35.6564 14.7783 34.2188 14.6357 33.1889 15.127C32.9171 15.257 33.2817 15.3507 33.4203 15.5162C33.7026 15.8502 33.9169 16.2301 34.1051 16.6006C34.2763 16.9315 34.4122 17.2718 34.5102 17.6205C34.5795 17.8682 34.6292 18.12 34.6396 18.3729C34.6448 18.4874 34.6396 18.6008 34.6239 18.7143C34.6122 18.7965 34.5939 18.8777 34.5612 18.9568C34.2946 19.6134 34.1456 18.7517 33.9548 18.4926C33.649 18.0805 33.1379 17.5487 32.5537 17.3718C32.2714 17.2854 32.4309 17.4561 32.4453 17.6548C32.4636 17.8921 32.4505 18.1336 32.4204 18.3698C32.3303 19.0671 31.9617 19.7019 31.4076 20.2452C29.8771 21.7396 27.313 22.4265 25.0637 22.9885C25.5094 22.6835 25.9119 22.3609 26.2217 21.9436C27.2241 20.5907 27.292 18.1169 25.0755 17.4685C24.3358 17.251 23.0706 17.4769 23.0105 18.2449C22.8929 19.6957 24.8324 19.4501 24.0756 20.7728C23.9724 20.9549 23.8338 21.1245 23.6809 21.2827C23.4365 21.5315 23.1412 21.7417 22.8367 21.9415C19.2962 24.2716 13.3797 24.8492 9.21319 23.3225C8.7244 23.1435 8.25914 22.926 7.82523 22.67C7.54686 22.5035 7.27635 22.3255 7.03195 22.1267C6.84898 21.979 6.67512 21.8208 6.54181 21.6428C5.55377 20.3451 8.02521 19.959 8.37939 18.937C8.48786 18.6237 8.36237 18.3688 8.0474 18.1721C7.8788 18.068 7.39261 18.0565 7.49848 17.9088C8.17808 16.9648 9.08248 16.2207 9.52815 15.1478C9.62617 14.9136 9.92941 14.362 9.76212 14.1039C9.6262 13.8958 8.00951 14.3547 7.84614 14.4214C6.51568 14.9552 6.23206 16.355 5.5041 17.2791C5.37733 17.4405 4.74351 18.2158 4.38541 17.9379C4.02077 17.6538 4.41547 16.8618 4.56969 16.5683C5.18134 15.3944 6.73526 14.795 7.40833 13.67C7.57431 13.3963 5.78382 13.1912 5.77859 12.9862C5.77336 12.8665 6.43598 12.6553 6.534 12.6136C7.25935 12.3025 8.34931 12.0548 8.96619 11.6177C8.9871 11.6031 7.56387 11.0984 7.57171 11.0318C7.61876 10.526 9.82612 10.476 10.0065 10.0421C10.0444 9.95465 9.50596 9.64139 9.44323 9.6008C8.78584 9.16995 7.98466 8.86607 7.11293 8.90353C5.94976 8.95349 4.76307 9.50401 3.84429 10.0358C3.71098 10.1128 2.89942 10.7799 2.74128 10.7549C2.45375 10.7081 3.10854 10.3876 3.29543 10.2065C3.67705 9.83912 4.06782 9.48009 4.48865 9.13978C5.9498 7.95961 7.66972 7.07397 9.81832 7.09895C10.873 7.1104 11.8833 7.40284 12.6975 7.94192C12.9785 8.13029 13.2229 8.34571 13.4621 8.56842C13.5758 8.67145 13.6738 8.98054 13.7953 8.88375C13.9888 8.73077 13.7365 7.83161 13.7143 7.63075C13.6973 7.45695 13.4346 7.09062 13.6516 7.10935C14.5808 7.19053 15.8472 8.15838 16.5686 8.5705C16.6993 8.64543 17.7448 9.32086 17.7448 9.20846C17.754 8.5934 17.575 7.96481 17.392 7.37265C17.3593 7.27066 17.0365 6.72117 17.0875 6.63479C17.1319 6.55882 17.243 6.74823 17.324 6.80339C17.4952 6.92411 17.656 7.05211 17.8076 7.18844C18.4389 7.74938 18.9459 8.39255 19.2857 9.09606C20.1993 10.9808 20.2202 13.4316 18.4415 15.0177C17.4443 15.9075 15.4904 16.1167 14.7493 14.8793C14.4318 14.3464 14.5729 13.6856 14.9637 13.2006C15.0918 13.0414 15.2486 12.8957 15.412 12.7594C15.4956 12.6907 15.8054 12.6698 15.7139 12.6053C15.5453 12.4825 14.9232 12.5762 14.7324 12.5918C13.3392 12.7084 12.4531 13.5305 12.2035 14.6004C11.7068 16.7255 14.7846 17.94 17.0417 17.762C19.4726 17.5705 21.5899 15.8523 22.51 14.1372C25.0402 9.40828 19.5079 4.46179 13.8384 3.5928C6.93913 2.5344 0.56258 7.07606 0.288123 12.5075C0.120836 15.8492 1.51666 19.7373 4.66506 22.0539C6.96658 23.7471 10.0326 24.7212 13.0464 25.2811C17.3293 26.0762 21.7088 25.713 26.0505 25.5444C30.9841 25.3519 35.8537 25.2582 40.7626 24.741C43.9685 24.4028 47.1417 24.0031 50.298 23.437C55.0304 22.5867 59.6412 21.3639 64.3867 20.5418C66.0387 20.2556 67.7246 19.9891 69.4119 19.8913C69.953 19.8601 70.494 19.8507 71.0364 19.8684C71.0913 19.8705 71.7944 19.9329 71.7592 19.8507C71.5775 19.4355 70.2457 18.9672 69.8223 18.785C68.2134 18.094 66.4595 17.5237 64.6416 17.2958Z" stroke="#FF6842" stroke-width="0.5" stroke-miterlimit="1.5" stroke-linecap="round" stroke-linejoin="round"/>
</svg>
