<svg width="1440" height="820" viewBox="0 0 1440 820" fill="none" xmlns="http://www.w3.org/2000/svg">
<g clip-path="url(#clip0_377_2)">
<rect width="1440" height="820" fill="#F5F6FA"/>
<mask id="mask0_377_2" style="mask-type:luminance" maskUnits="userSpaceOnUse" x="-7" y="401" width="195" height="432">
<path d="M-7 401H187.667V833H-7V401Z" fill="white"/>
</mask>
<g mask="url(#mask0_377_2)">
<path d="M5.68706 416.459C5.67664 416.459 5.67143 416.459 5.66622 416.459C5.11414 416.453 4.66102 416.891 4.6506 417.438L4.30685 440.084C4.30164 440.631 4.72872 441.078 5.27039 441.094C5.2756 441.094 5.28602 441.094 5.29122 441.094C5.84331 441.104 6.29643 440.667 6.30685 440.115L6.64539 417.469C6.65581 416.927 6.22872 416.479 5.68706 416.459ZM14.2912 455.886C13.8746 455.87 13.4787 456.115 13.3225 456.526C12.3902 458.995 11.4683 461.422 10.1558 464.11C8.84331 466.808 7.12977 469.776 5.39018 472.787C5.11414 473.266 5.28081 473.875 5.75997 474.151C5.90581 474.235 6.06206 474.276 6.21831 474.282C6.57768 474.292 6.92664 474.115 7.11935 473.787V473.782C8.84852 470.787 10.6037 467.756 11.9527 464.979C13.3068 462.203 14.26 459.693 15.1923 457.229C15.385 456.719 15.1246 456.141 14.6089 455.948C14.5048 455.907 14.4006 455.886 14.2912 455.886ZM18.8329 473.802C18.3954 473.787 17.9839 474.063 17.8433 474.5C16.6506 478.287 15.4996 481.907 13.0568 485.276C10.5881 488.672 6.7756 491.854 2.83289 495.146C2.40581 495.5 2.34852 496.125 2.70268 496.547C2.89539 496.776 3.16102 496.896 3.43706 496.907C3.67143 496.912 3.91102 496.839 4.10893 496.672C7.99956 493.433 12.0308 490.084 14.6714 486.443C17.3329 482.776 18.5621 478.849 19.7496 475.094C19.9162 474.573 19.6246 474.011 19.0985 473.849C19.01 473.818 18.9214 473.802 18.8329 473.802ZM31.4162 498.115C31.3485 498.115 31.2756 498.115 31.2079 498.131C25.2704 499.157 19.0412 500.219 15.01 502.62C10.885 505.078 9.10893 508.881 7.45789 512.37V512.375L7.45268 512.391H7.44747C7.2131 512.891 7.42664 513.479 7.92664 513.714C8.05164 513.776 8.18706 513.808 8.31727 513.813C8.70268 513.823 9.08289 513.61 9.25477 513.24L9.26518 513.219C10.9423 509.672 12.4996 506.433 16.036 504.334C19.6766 502.162 25.4683 501.146 31.5516 500.089C32.0933 499.995 32.4579 499.479 32.3641 498.938C32.2808 498.469 31.8798 498.131 31.4162 498.115ZM28.5933 544.427C28.2912 544.417 27.9944 544.542 27.786 544.787C22.385 551.297 16.8121 557.995 14.2808 565.787C11.7496 573.573 12.2808 582.381 12.786 590.938C12.8173 591.459 13.2391 591.86 13.7443 591.875C13.7756 591.875 13.8121 591.875 13.8433 591.875C14.3902 591.844 14.8121 591.37 14.7808 590.823C14.2704 582.172 13.786 573.766 16.1818 566.401C18.5725 559.037 23.8641 552.636 29.3225 546.058C29.6766 545.636 29.6194 545.006 29.1923 544.657C29.0152 544.511 28.8069 544.433 28.5933 544.427ZM57.6975 598.688C57.1766 598.667 56.7235 599.058 56.6714 599.584L55.4162 612.104C55.3589 612.651 55.76 613.141 56.3069 613.193C56.3277 613.198 56.3537 613.198 56.3746 613.198C56.8954 613.219 57.3485 612.828 57.4006 612.302L58.6558 599.782C58.7131 599.235 58.3121 598.745 57.7652 598.693C57.7444 598.688 57.7235 598.688 57.6975 598.688ZM2.23393 576.901C2.12977 576.896 2.01518 576.912 1.90581 576.943C1.37977 577.104 1.08289 577.662 1.24435 578.188C3.17664 584.479 5.14539 590.922 8.72872 596.657C12.3069 602.391 17.4735 607.375 22.5204 612.256C22.7027 612.438 22.9423 612.526 23.1766 612.537C23.4527 612.547 23.7287 612.448 23.9319 612.235C24.3173 611.839 24.3069 611.209 23.911 610.828C18.8225 605.907 13.8485 601.089 10.4214 595.604C6.99956 590.125 5.09852 583.938 3.15581 577.604C3.0256 577.188 2.6506 576.917 2.23393 576.901ZM33.6141 598.084C33.5829 598.084 33.5464 598.084 33.51 598.089C32.9631 598.125 32.5464 598.599 32.5829 599.146L33.6246 614.693C33.661 615.209 34.0777 615.604 34.5829 615.62C34.6194 615.625 34.6558 615.625 34.6871 615.62C35.2391 615.584 35.6558 615.11 35.6194 614.563L34.5725 599.016C34.5412 598.5 34.1194 598.104 33.6141 598.084ZM46.2964 595.599C46.2808 595.599 46.2652 595.599 46.2444 595.599C45.6975 595.61 45.2548 596.058 45.26 596.61L45.5152 619.078C45.5256 619.61 45.9475 620.042 46.4787 620.063C46.4944 620.063 46.51 620.063 46.5256 620.063C47.0777 620.058 47.5204 619.604 47.5152 619.058L47.2548 596.584C47.2496 596.052 46.8225 595.62 46.2964 595.599ZM26.0985 658.641C25.7496 658.625 25.4006 658.797 25.2079 659.12C24.1141 660.922 22.8954 662.907 22.4423 664.87C21.9787 666.865 22.3121 668.761 22.5985 670.438V670.443C22.6819 670.917 23.0829 671.256 23.5464 671.271C23.6141 671.276 23.6819 671.271 23.7496 671.261C24.2964 671.167 24.661 670.651 24.5673 670.11V670.104C24.2704 668.37 24.0256 666.865 24.385 665.318C24.7548 663.729 25.7756 662.032 26.9162 660.151C27.2027 659.677 27.0516 659.068 26.5777 658.782C26.4266 658.693 26.2652 658.646 26.0985 658.641ZM19.6037 656.589C19.1662 656.573 18.76 656.839 18.6193 657.271C17.5621 660.495 16.411 663.969 16.6298 667.198C16.8537 670.448 18.4579 673.365 19.9162 676.047L19.9214 676.063C20.0985 676.381 20.4214 676.568 20.7652 676.584C20.9371 676.589 21.1141 676.547 21.2756 676.459C21.76 676.198 21.9423 675.594 21.6766 675.11L21.6714 675.099C20.1662 672.334 18.8121 669.808 18.6246 667.063C18.4319 664.297 19.4266 661.219 20.5152 657.891C20.6871 657.37 20.4006 656.808 19.8746 656.636C19.786 656.604 19.6923 656.589 19.6037 656.589ZM13.1141 652.235C12.7339 652.219 12.3641 652.427 12.1818 652.787C9.34852 658.479 6.24435 664.61 6.80164 669.438C7.36935 674.396 11.7079 677.771 15.5256 680.808C15.7027 680.948 15.9058 681.021 16.1141 681.026C16.4162 681.037 16.7235 680.907 16.9318 680.651C17.2756 680.224 17.2027 679.594 16.7704 679.25C12.7444 676.052 9.23914 673.188 8.78602 669.214C8.31206 665.11 11.01 659.61 13.9735 653.672C14.2183 653.183 14.0152 652.584 13.5204 652.339C13.3902 652.276 13.2496 652.24 13.1141 652.235ZM37.3485 656.881C36.8694 656.865 36.4371 657.193 36.3381 657.677C36.2235 658.214 36.5725 658.74 37.1141 658.854C44.3641 660.328 51.3746 661.776 57.411 665.917C63.4683 670.073 68.5933 676.995 70.9266 683.172C73.2444 689.297 72.8277 694.724 72.3798 700.365C72.3381 700.912 72.7496 701.391 73.2964 701.433C73.3121 701.438 73.3277 701.438 73.3433 701.438C73.8746 701.453 74.3277 701.052 74.3694 700.521C74.8173 694.901 75.286 689.058 72.7964 682.469C70.3277 675.933 64.9527 668.677 58.5412 664.276C52.1141 659.865 44.6975 658.365 37.5152 656.901C37.4579 656.891 37.4058 656.881 37.3485 656.881ZM32.5256 635.261C32.1246 635.245 31.7339 635.479 31.5673 635.875C31.3589 636.381 31.5985 636.964 32.1089 637.172L32.1558 637.193V637.198C49.0308 644.151 65.4579 650.969 73.5569 662.964C81.661 674.959 81.536 692.287 81.3694 710.084C81.3641 710.625 81.7964 711.068 82.3329 711.089C82.3433 711.089 82.3485 711.089 82.3589 711.089C82.911 711.094 83.3641 710.651 83.3694 710.099C83.5308 692.516 83.7391 674.464 75.2131 661.849C66.7079 649.25 49.5985 642.229 32.9214 635.354L32.8746 635.334C32.76 635.287 32.6454 635.261 32.5256 635.261ZM38.5204 669.74C43.3694 669.912 51.0152 672.448 56.3798 677.052C63.5464 683.203 66.7131 693.136 66.7391 700.657C66.7652 707.167 64.4423 711.828 61.7235 716.407V716.412C61.0256 714.292 60.0204 712.172 58.01 710.953C57.0933 710.396 55.9996 710.052 55.0308 709.74C53.9683 709.396 53.0256 709.089 52.2391 708.615C51.6194 708.235 51.135 707.771 50.8069 707.136C49.5777 704.735 50.3173 699.417 52.4319 695.776C53.3798 694.131 54.5985 692.87 55.7183 691.719C56.5204 690.891 57.3485 690.042 57.8537 689.172C58.1246 688.703 58.3329 688.183 58.3798 687.604C58.6402 684.625 54.7339 681.922 51.0777 680.532C47.1506 679.037 42.5412 678.636 38.1089 678.24C38.0933 678.235 38.0777 678.235 38.0569 678.235C37.8485 678.229 37.6506 678.287 37.4839 678.391C34.7704 674.235 33.5152 671.37 34.9162 670.365C34.9579 670.334 34.9996 670.308 35.0464 670.282C35.6662 669.907 36.8381 669.677 38.5204 669.74ZM43.7912 698.62C43.7652 698.62 43.7391 698.62 43.7131 698.62C43.161 698.646 42.7339 699.11 42.76 699.662C43.0569 706.203 43.3537 712.834 44.4475 718.86C45.5464 724.896 47.4423 730.297 49.3121 735.62C49.4527 736.021 49.8173 736.271 50.2183 736.287C50.3381 736.292 50.4631 736.276 50.5829 736.235C51.1037 736.052 51.3746 735.485 51.1975 734.964C49.3225 729.625 47.4787 724.36 46.4162 718.506C45.3433 712.636 45.0516 706.146 44.7548 699.568C44.7287 699.047 44.3069 698.641 43.7912 698.62ZM107.104 736C106.859 735.99 106.614 736.073 106.411 736.245L97.786 743.719C97.3694 744.078 97.3225 744.709 97.6819 745.125C97.8746 745.339 98.135 745.459 98.4006 745.464C98.6454 745.474 98.8954 745.396 99.0933 745.224L107.724 737.745C108.14 737.386 108.182 736.756 107.822 736.344C107.63 736.125 107.369 736.011 107.104 736ZM32.4266 696.151C32.3641 696.151 32.3016 696.151 32.2391 696.162C31.6923 696.25 31.3225 696.756 31.4058 697.302C32.5621 704.729 33.7183 712.167 35.1871 720.313C36.6506 728.453 38.4162 737.297 40.1819 746.131V746.136C40.2756 746.599 40.6714 746.917 41.1246 746.938C41.2027 746.938 41.2808 746.933 41.3589 746.917C41.9006 746.808 42.2496 746.287 42.1402 745.745C40.3746 736.901 38.6089 728.078 37.1506 719.959C35.6923 711.839 34.536 704.422 33.3798 696.995C33.3016 696.516 32.8954 696.167 32.4266 696.151ZM106.463 745.99C106.364 745.985 106.26 745.995 106.161 746.026L93.7756 749.469C93.2444 749.62 92.9319 750.167 93.0829 750.698C93.2027 751.125 93.5829 751.412 94.0048 751.427C94.1089 751.433 94.2079 751.417 94.3121 751.391L106.697 747.943C107.229 747.797 107.536 747.245 107.39 746.714C107.27 746.287 106.885 746.006 106.463 745.99ZM73.2287 717.391C72.8433 717.375 72.4683 717.589 72.2912 717.959C69.2548 724.313 66.2496 730.604 62.9787 735.828C59.7183 741.042 56.1819 745.209 52.5985 749.433C52.2444 749.854 52.2964 750.485 52.7183 750.839C52.8954 750.99 53.1089 751.063 53.3225 751.073C53.6194 751.084 53.9162 750.964 54.1246 750.719C57.6975 746.506 61.3225 742.235 64.6714 736.886C68.0152 731.547 71.0725 725.146 74.0933 718.813C74.3329 718.318 74.1194 717.724 73.6246 717.49C73.4944 717.427 73.3641 717.396 73.2287 717.391ZM100.218 733.808C99.9631 733.797 99.7027 733.886 99.4996 734.073L81.6246 750.667C81.2235 751.042 81.1975 751.672 81.5777 752.078C81.7652 752.276 82.0152 752.386 82.2704 752.396C82.5256 752.401 82.786 752.313 82.9839 752.125L100.864 735.532C101.265 735.157 101.286 734.526 100.911 734.12C100.724 733.922 100.474 733.813 100.218 733.808ZM18.5673 718.292C18.4162 718.287 18.2652 718.313 18.1193 718.381C17.6193 718.604 17.3954 719.198 17.6246 719.698C20.3902 725.766 23.1298 731.787 25.1975 737.495C27.26 743.198 28.6558 748.604 30.0621 754.052C30.1714 754.49 30.5621 754.787 30.9891 754.802C31.0829 754.808 31.1819 754.797 31.2756 754.771C31.8069 754.636 32.1298 754.094 31.9944 753.558C30.5881 748.115 29.1766 742.625 27.0777 736.823C24.9787 731.021 22.1975 724.927 19.4423 718.875C19.2808 718.516 18.9319 718.302 18.5673 718.292ZM117.635 722.302C117.151 725.938 116.739 729.735 117.588 732.558C117.89 733.563 118.343 734.422 118.744 735.193C119.619 736.87 120.375 738.323 119.869 740.917C119.072 744.995 115.244 751.688 111.25 758.651C111.125 758.87 111.093 759.115 111.14 759.344V759.349C104.921 756.677 98.1142 754.969 91.26 754.719C90.6662 754.698 90.0621 754.688 89.4683 754.688C84.5204 754.698 79.5829 755.495 74.661 756.854C83.0725 745.969 91.4319 734.901 96.3069 722.5H96.3173C96.4423 722.563 96.5777 722.594 96.7235 722.599C96.7391 722.599 96.7548 722.604 96.7756 722.599L117.625 722.302H117.635ZM0.780808 405.146C4.54122 410.87 7.86935 416.719 8.75997 424.495C9.79643 433.552 7.54122 445.261 5.22352 457.203L5.20789 457.282C5.12456 457.719 5.34331 458.162 5.74956 458.365C5.87456 458.427 6.01518 458.459 6.15581 458.464C6.44227 458.474 6.73393 458.36 6.93706 458.131C9.05164 455.756 11.1402 453.412 13.5985 451.078C15.51 449.266 17.1714 447.964 18.3381 448.006C18.6714 448.016 19.01 448.146 19.3746 448.594C20.9527 450.558 21.9371 457.183 19.6454 463.063C17.385 468.87 11.9631 473.802 6.28081 478.948C5.89018 479.302 5.84331 479.896 6.17143 480.308C6.35893 480.542 6.63497 480.672 6.91622 480.677C7.12456 480.688 7.3381 480.631 7.5256 480.5C12.0152 477.349 16.5152 474.193 19.8641 471.818L20.0048 471.719C22.7079 469.797 24.2548 468.766 25.4423 468.813C25.7183 468.818 25.9839 468.896 26.2548 469.063C27.5673 469.86 29.3746 473.151 26.4891 478.865C24.6818 482.448 21.0985 486.808 16.7964 491.511H16.786C13.5725 494.047 10.8537 497.349 8.21831 500.532C7.87977 500.943 7.92664 501.552 8.32768 501.907C8.50477 502.068 8.72872 502.151 8.95268 502.162C9.22872 502.172 9.50477 502.068 9.70789 501.854C12.5881 498.881 15.4996 495.875 18.1714 492.959H18.161C20.0516 491.485 22.0881 490.334 24.3798 489.677C26.1662 489.167 28.1298 488.953 30.0933 489.026C34.7183 489.193 39.1037 490.917 41.2496 493.729C44.2027 497.599 43.3069 504.297 35.9631 511.235C32.6766 514.344 28.1558 517.427 23.51 520.594C17.8902 524.422 12.0673 528.381 8.44227 532.526C1.72873 540.198 2.59331 548.412 3.37456 556.167C3.42664 556.651 3.81727 557.026 4.30164 557.063C4.31206 557.063 4.32248 557.063 4.33289 557.063C4.80685 557.078 5.22872 556.761 5.3381 556.302C6.23914 552.589 7.09852 549.068 9.18185 545.875C11.3485 542.547 14.6089 539.896 16.4735 539.756C16.5516 539.75 16.6194 539.75 16.6871 539.75C18.1037 539.802 19.0568 541.521 20.3902 544.339L20.385 544.344L20.3954 544.354C20.5152 544.61 20.7391 544.802 21.01 544.886C21.0933 544.907 21.1766 544.922 21.26 544.927C21.4527 544.933 21.6454 544.886 21.8121 544.782C28.9162 540.49 35.8902 536.282 41.6923 534.24C46.4996 532.547 50.51 532.334 54.4891 532.365H54.4996C51.9527 535 49.3902 537.813 46.9371 541.459C43.9839 545.849 41.2027 551.427 38.4631 556.927C38.3016 557.261 38.3329 557.657 38.5516 557.959L43.2027 564.328H43.1923C37.7183 567.479 32.1662 570.797 28.2808 575.49C24.1714 580.464 21.9839 586.922 19.8641 593.157C19.7131 593.604 19.9006 594.104 20.3173 594.339C20.4579 594.422 20.6194 594.464 20.7756 594.469C21.0725 594.479 21.3641 594.36 21.5673 594.125C23.1766 592.266 24.2912 591.11 25.385 591.146C25.4319 591.151 25.4735 591.151 25.5152 591.157V591.162C25.9006 591.209 26.3433 591.401 27.0621 591.735C28.0985 592.214 29.4839 592.86 31.3121 592.927C32.0204 592.953 32.786 592.891 33.6141 592.709C34.7964 592.448 36.0933 591.948 37.4423 591.328C39.161 590.537 41.0412 589.521 42.9631 588.479C45.0725 587.334 47.2496 586.157 49.4058 585.167C53.6194 583.235 57.6402 582.063 60.3225 582.162C61.2808 582.193 61.9735 582.391 62.4319 582.683C64.2235 583.834 63.8537 587.5 63.0569 591.24C62.3433 594.604 61.6141 596.823 60.8746 599.084C60.7808 599.37 60.8225 599.683 60.9839 599.933C61.1506 600.188 61.4214 600.354 61.7183 600.386L70.661 601.302H70.6506C66.2496 612.818 61.8589 624.782 65.5464 633.922C65.9475 634.917 66.4371 635.87 67.0048 636.792C69.1714 640.328 72.4891 643.506 76.01 646.891C80.411 651.12 85.2287 655.761 89.1089 662.084C96.9579 674.87 100.989 694.625 97.5048 711.589C94.0256 728.532 83.0412 742.761 71.8641 757.209C71.7391 757.375 71.6714 757.563 71.6558 757.756H71.6454C60.0569 761.485 48.5516 768.089 37.1819 774.625V774.631C36.7235 774.313 36.2496 774.011 35.7652 773.714C31.0308 770.823 24.9319 768.662 19.1246 767.802H19.1193C21.2027 762.084 23.2756 756.068 19.7756 746.995C16.3589 738.151 7.60893 726.36 -1.12544 714.672H-1.13586C1.40581 712.881 3.70789 711.396 5.89539 711.146C6.20268 711.11 6.50997 711.099 6.82247 711.11C8.92143 711.188 11.0412 712.245 13.4214 713.448C13.5516 713.516 13.6923 713.552 13.8381 713.558C14.0204 713.563 14.2079 713.521 14.3693 713.427C14.6662 713.256 14.8537 712.953 14.8693 712.615C15.2391 705.802 15.6089 699.334 17.7443 695.224C19.8225 691.224 23.6454 689.386 27.8485 687.396C28.0048 687.323 28.1402 687.209 28.2339 687.073H28.2235C32.3381 686.771 36.5881 686.235 40.7964 685.709C41.1506 685.662 41.4475 685.438 41.5881 685.115C41.7287 684.792 41.6923 684.422 41.4839 684.136C40.5048 682.776 39.5881 681.495 38.7652 680.297H38.7756C42.9683 680.677 46.9735 681.099 50.3641 682.391C54.2548 683.87 56.51 686.11 56.3954 687.433C56.3746 687.641 56.2964 687.881 56.1246 688.177C55.7704 688.787 55.1454 689.443 54.2808 690.334C53.1766 691.474 51.7912 692.891 50.7027 694.776C48.4423 698.672 47.3537 704.761 49.0256 708.037C49.5569 709.078 50.3433 709.792 51.2027 710.313C52.2235 710.933 53.4006 711.308 54.4162 711.636C55.4423 711.964 56.2964 712.245 56.9735 712.657C58.885 713.813 59.6141 716.193 60.4527 719.131C60.5621 719.511 60.885 719.792 61.2808 719.844C61.3121 719.849 61.3433 719.854 61.3746 719.854C61.7339 719.865 62.0777 719.683 62.2652 719.375C65.4423 714.146 68.7704 708.693 68.7391 700.651C68.7079 692.703 65.3902 682.162 57.6819 675.542C51.9683 670.636 43.885 667.938 38.5933 667.745C36.7964 667.683 35.1454 667.896 34.0204 668.573C33.9266 668.625 33.8381 668.683 33.7496 668.745C29.9735 671.459 34.8433 678.375 38.8798 683.943H38.8694C32.2444 684.766 25.7496 685.506 19.8902 685.297C14.2391 685.094 9.29643 684.006 5.4631 681.354C-2.7869 675.651 -6.24003 662.573 -1.97961 654.636C2.28602 646.683 14.4162 643.511 27.3277 640.224C27.8329 640.094 28.1558 639.594 28.0621 639.084C27.9787 638.615 27.5777 638.282 27.1141 638.261C27.0725 638.261 27.0256 638.261 26.9787 638.266C23.1871 638.662 19.4839 639.042 16.01 638.917C13.2652 638.818 10.7183 638.401 8.43706 637.448C3.61935 635.433 -0.193151 630.948 -4.09419 626.042H-4.10461C2.33289 624.198 8.57768 622.537 14.4058 622.745C15.0777 622.771 15.7444 622.818 16.4006 622.896C17.2496 622.995 18.0933 623.141 18.9266 623.323H18.9162C24.2912 626.464 30.1871 628.912 36.0048 631.328C36.1194 631.375 36.2391 631.401 36.3537 631.401C36.7339 631.417 37.0985 631.214 37.2808 630.854C37.5152 630.391 37.3537 629.823 36.9006 629.552C31.4214 626.276 25.7756 622.881 19.6714 621.453H19.6662C17.7183 620.302 15.8537 619.063 14.0985 617.693C7.66622 612.683 2.62456 605.938 -2.48482 599.032H-2.49523L0.770391 405.146H0.780808ZM25.2079 776.412C24.7444 776.396 24.3173 776.703 24.2027 777.172L21.7808 787.063C21.6454 787.594 21.9735 788.136 22.51 788.266C22.5777 788.282 22.6454 788.292 22.7131 788.292C23.1766 788.313 23.6037 788 23.7183 787.537L26.1454 777.646C26.2756 777.11 25.9475 776.573 25.411 776.443C25.3433 776.422 25.2756 776.417 25.2079 776.412ZM10.5985 775.37C10.5308 775.37 10.4579 775.375 10.385 775.386C9.84331 775.485 9.48393 776.006 9.58289 776.547L11.7391 788.318C11.8277 788.787 12.2287 789.12 12.6871 789.136C12.7548 789.141 12.8277 789.136 12.9006 789.12C13.4423 789.021 13.8016 788.506 13.7027 787.964L11.5464 776.188C11.4579 775.719 11.0568 775.386 10.5985 775.37ZM39.1975 785.172C38.9735 785.167 38.7444 785.235 38.5569 785.381L29.5152 792.276C29.0777 792.61 28.9944 793.235 29.3277 793.672C29.5152 793.922 29.7964 794.052 30.0881 794.063C30.3121 794.073 30.536 794.006 30.7287 793.86L39.7652 786.959C40.2079 786.625 40.2912 786 39.9527 785.563C39.7652 785.318 39.4839 785.183 39.1975 785.172ZM14.9839 769.412C21.5256 769.651 29.1506 772.011 34.7235 775.412C43.8069 780.959 47.2808 789.151 46.4996 794.052C45.786 798.547 41.4475 800.703 36.1819 802.938C32.4787 797.573 24.5829 795.047 18.0725 794.698C17.8902 794.688 17.7079 794.683 17.5308 794.672C11.3433 794.453 6.13497 796.151 1.14018 797.917C-0.130651 786.125 -0.797317 775.698 4.9631 771.625C7.30685 769.969 10.8485 769.266 14.9839 769.412ZM49.7079 799.485C49.3902 799.474 49.0673 799.62 48.8641 799.896L43.9683 806.599C43.6454 807.047 43.7444 807.667 44.1871 807.99C44.3537 808.115 44.5464 808.177 44.7391 808.183C45.0621 808.193 45.3798 808.052 45.5829 807.771L50.4787 801.068C50.8016 800.625 50.7079 800 50.26 799.677C50.0933 799.558 49.9006 799.495 49.7079 799.485ZM61.4006 804.896C61.2391 804.891 61.0777 804.922 60.9214 805L51.2704 809.813C50.7756 810.063 50.5777 810.657 50.8225 811.151C50.9891 811.49 51.3277 811.688 51.6819 811.703C51.8433 811.709 52.0048 811.672 52.161 811.594L61.8121 806.782C62.3069 806.537 62.5048 805.938 62.26 805.448C62.0933 805.11 61.7548 804.912 61.4006 804.896ZM87.6662 766.313C77.5516 765.948 66.536 767.881 55.6558 769.787C55.1141 769.881 54.7496 770.396 54.8485 770.943C54.9319 771.412 55.3329 771.745 55.7912 771.766C55.8641 771.766 55.9319 771.761 56.0048 771.75C66.9319 769.834 77.7287 767.948 87.5985 768.302C91.635 768.448 95.4996 768.969 99.135 770.011C111.708 773.615 121.64 783.448 123.75 791.683C125.828 799.771 120.437 806.625 114.52 814.021C114.177 814.448 114.25 815.073 114.677 815.417C114.854 815.558 115.057 815.625 115.265 815.636C115.572 815.646 115.875 815.516 116.083 815.261C121.807 808.104 128.052 800.417 125.687 791.188C123.354 782.099 112.755 771.844 99.6871 768.099C95.8589 767 91.8277 766.464 87.6662 766.313ZM23.0048 804.032C22.7496 804.021 22.4891 804.11 22.286 804.297L14.6193 811.417C14.2131 811.792 14.1923 812.422 14.5673 812.823C14.7548 813.026 15.01 813.131 15.2652 813.141C15.5204 813.151 15.7756 813.063 15.9787 812.875L23.6454 805.756C24.0516 805.381 24.0725 804.75 23.6975 804.344C23.51 804.146 23.26 804.037 23.0048 804.032ZM11.2183 801.026C10.7339 801.006 10.2964 801.344 10.2027 801.839L8.06727 813.287C7.9631 813.828 8.32247 814.344 8.86414 814.448C8.91622 814.459 8.9631 814.464 9.00997 814.464C9.49956 814.479 9.93706 814.141 10.0308 813.651L12.1662 802.203C12.2652 801.662 11.911 801.141 11.3693 801.042C11.3173 801.032 11.2704 801.026 11.2183 801.026ZM67.5881 814.927C67.5256 814.922 67.4527 814.927 67.385 814.938L52.3016 817.49C51.7548 817.584 51.3902 818.099 51.4839 818.641C51.5621 819.115 51.9683 819.453 52.4319 819.469C52.4996 819.469 52.5673 819.469 52.635 819.453L67.7183 816.901C68.2652 816.813 68.6298 816.297 68.536 815.756C68.4579 815.282 68.0516 814.943 67.5881 814.927ZM29.8641 814.427C29.7808 814.422 29.6923 814.433 29.6037 814.448L15.3537 817.719C14.8173 817.844 14.4839 818.381 14.6089 818.917C14.7079 819.365 15.1037 819.672 15.5412 819.688C15.6298 819.693 15.7131 819.683 15.8016 819.662L30.0516 816.391C30.5881 816.266 30.9266 815.735 30.8016 815.198C30.6975 814.75 30.3068 814.443 29.8641 814.427ZM91.1871 756.709C105.239 757.219 119.13 764.146 127.64 772.636H127.63C127.734 772.844 127.901 773 128.104 773.094H128.093C129.401 774.433 130.567 775.813 131.583 777.209C139.359 787.891 138.046 799.693 133.849 808.396C129.661 817.084 122.651 822.542 115.343 824.558C112.932 825.224 110.484 825.516 108.182 825.433C103.463 825.261 99.4579 823.547 97.3225 820.469C94.0516 815.756 94.8069 807.401 96.4735 803.058C96.6141 802.703 96.7548 802.381 96.8954 802.084C97.6975 800.443 98.6194 799.573 99.5985 798.651C100.505 797.808 101.494 796.886 102.255 795.328C103.911 791.933 104.526 785.188 98.5933 781.24C95.2964 779.042 90.0621 777.818 84.6766 777.62C80.6714 777.479 76.4891 777.901 72.8121 778.974C64.2444 781.479 58.5829 787.495 53.1506 793.318H53.1402C51.5725 793.662 49.9996 794.094 48.4423 794.542C48.4527 794.485 48.4631 794.427 48.4735 794.365C49.3069 789.125 46.2079 781.61 38.9475 775.917H38.9371C55.9839 766.12 72.7287 756.709 89.4735 756.683C90.0412 756.677 90.6194 756.688 91.1871 756.709ZM59.6246 794.594C62.8173 794.709 65.8016 795.776 68.6402 798.651C71.76 801.813 74.6975 807.151 75.8485 812.344C76.9891 817.485 76.3381 821.974 70.0308 823.865C66.1246 825.037 60.036 825.229 52.885 824.969C48.0881 824.797 42.8694 824.427 37.6089 824.037H37.5985C38.7079 817.136 39.6766 809.959 37.1871 804.683H37.1766C41.4058 802.896 45.8798 800.797 47.7287 796.823H47.7183C51.6402 795.683 55.3902 794.615 58.8902 794.584C59.1402 794.584 59.385 794.589 59.6246 794.594ZM17.4631 796.667C17.6298 796.672 17.7964 796.677 17.9631 796.688C24.3069 797.026 31.4475 799.5 34.5933 804.151H34.5829C34.5621 804.318 34.5829 804.495 34.6558 804.662C34.7652 804.927 34.9787 805.12 35.2287 805.209H35.2235C37.6871 809.985 36.7235 816.927 35.5152 824.438H35.5048L3.03602 823.433L1.47352 799.912H1.46831C6.56727 798.11 11.5412 796.453 17.4631 796.667ZM148.75 767.985C149.838 768.021 150.953 768.125 152.093 768.308C160.875 769.703 171.369 775.589 177.76 782.787C184.093 789.927 186.354 798.318 184.578 806.881C182.791 815.495 176.921 824.25 167.442 828.25C163.125 830.073 158.026 830.922 153.239 830.75C147.447 830.537 142.338 828.849 139.562 825.839C134.447 820.297 136.661 809.61 138.802 802.677C140.875 795.969 142.447 794.104 145.901 793.078C147.489 792.604 149.479 792.323 151.447 792.391C154.13 792.49 156.578 793.235 158.031 794.813C160.651 797.667 160.494 803.703 158.421 806.558C156.791 808.797 153.838 809.089 150.046 808.953C149.572 808.938 149.093 808.917 148.614 808.891H148.604C148.463 808.813 148.307 808.766 148.145 808.761C147.994 808.756 147.843 808.782 147.697 808.849C147.244 809.058 147.02 809.558 147.145 810.021H147.135C147.166 810.209 147.25 810.381 147.369 810.516H147.359C149.468 815.125 151.932 820.448 157.583 820.87C157.703 820.881 157.833 820.886 157.953 820.891C163.479 821.089 171.557 816.74 174.343 808.828C177.166 800.818 174.5 789.25 169.302 783.193C163.989 777.006 156.109 776.61 148.791 776.188C148.781 776.188 148.776 776.188 148.77 776.188C148.229 776.167 147.765 776.584 147.734 777.125C147.703 777.677 148.125 778.146 148.677 778.177C156.182 778.61 163.119 779.052 167.786 784.49C172.557 790.052 175.026 800.881 172.458 808.167C169.968 815.235 162.697 819.068 158.026 818.901C157.927 818.896 157.828 818.891 157.734 818.886C153.812 818.589 151.791 815.245 149.755 810.938H149.765C149.838 810.938 149.906 810.943 149.974 810.943C153.64 811.078 157.708 810.922 160.036 807.729C162.578 804.235 162.864 797.131 159.505 793.469C157.526 791.318 154.432 790.506 151.52 790.401C149.328 790.323 147.125 790.636 145.333 791.167C142.427 792.032 140.63 793.49 139.135 796.302C139.578 789.756 138.046 782.698 133.203 776.037C132.333 774.849 131.364 773.672 130.296 772.521L130.286 772.516C136.218 769.995 142.036 767.74 148.75 767.985ZM-0.135859 400.922C-0.240027 400.917 -0.349401 400.927 -0.453567 400.959C-0.875442 401.084 -1.1619 401.464 -1.17232 401.901L-4.49523 599.323C-4.50044 599.542 -4.43273 599.761 -4.30253 599.933C0.848516 606.891 6.09852 613.99 12.8693 619.266C13.5412 619.787 14.2235 620.287 14.9214 620.776C14.7704 620.766 14.6246 620.761 14.4787 620.756C7.8381 620.516 0.7756 622.563 -6.07857 624.537C-6.40148 624.631 -6.65148 624.875 -6.75565 625.193C-6.85461 625.506 -6.79211 625.849 -6.58898 626.11C-2.44836 631.344 1.9006 636.87 7.66622 639.282V639.287C10.2391 640.36 13.0464 640.802 15.9423 640.907C16.2808 640.917 16.6246 640.927 16.9683 640.927H16.9787C7.93185 643.604 -0.219191 647.131 -3.74003 653.693C-8.53169 662.615 -4.66711 676.776 4.32247 682.99C8.60893 685.953 13.9891 687.078 19.8173 687.287C21.0256 687.328 22.26 687.334 23.5152 687.308H23.5256C20.5464 688.901 17.7287 690.927 15.9683 694.308C13.7704 698.542 13.3016 704.823 12.9579 710.99C11.0569 710.052 9.00477 709.198 6.89539 709.12C6.48914 709.104 6.07768 709.12 5.66622 709.167C2.61935 709.516 -0.401483 711.703 -3.12023 713.636C-3.33898 713.792 -3.48482 714.032 -3.52648 714.292C-3.56815 714.558 -3.50044 714.828 -3.33898 715.042C5.67664 727.104 14.5412 738.979 17.911 747.714C21.2079 756.245 19.2131 761.724 17.1193 767.459C17.1089 767.49 17.0985 767.526 17.0881 767.558C16.4006 767.495 15.7235 767.448 15.0568 767.422C10.7287 767.266 6.66622 767.979 3.81206 770C-3.51607 775.183 -1.92752 788.365 -0.599401 800.365C-0.583775 800.516 -0.531693 800.651 -0.458776 800.776H-0.469192L1.10893 824.464C1.14018 824.974 1.55685 825.375 2.06727 825.396C2.06727 825.396 2.06727 825.396 2.07247 825.396L36.3277 826.459C36.6871 826.469 37.01 826.287 37.1975 826.006H37.2027C42.5516 826.401 47.8954 826.787 52.8121 826.964C59.9475 827.219 66.3433 827.047 70.6089 825.771C78.3954 823.438 79.036 817.495 77.8016 811.912C76.5725 806.381 73.4631 800.698 70.0621 797.256C66.8433 793.995 63.3694 792.74 59.6975 792.604C59.4266 792.594 59.1506 792.594 58.8746 792.594C58.0621 792.599 57.2391 792.657 56.4162 792.756C61.2912 787.62 66.2808 782.964 73.3746 780.886C76.8121 779.881 80.7704 779.474 84.6037 779.61C89.8173 779.802 94.6246 780.99 97.4839 782.896C102.265 786.078 101.869 791.558 100.458 794.459C99.8746 795.651 99.1402 796.354 98.2339 797.203C97.2287 798.146 96.0725 799.224 95.1037 801.214C94.9319 801.563 94.7652 801.943 94.6089 802.349C92.8485 806.943 91.8589 816.094 95.6819 821.604C98.2964 825.375 103.015 827.24 108.109 827.422C110.63 827.511 113.276 827.193 115.875 826.479C123.296 824.433 130.333 819.125 134.828 810.86H134.838C133.989 816.657 134.255 823.021 138.093 827.188C141.39 830.766 147.145 832.521 153.166 832.74C158.213 832.922 163.609 832.032 168.224 830.084C178.401 825.792 184.635 816.427 186.531 807.282C188.442 798.073 185.984 789.052 179.255 781.469C172.583 773.948 161.677 767.813 152.406 766.339C151.182 766.146 149.989 766.037 148.822 765.995C141.349 765.724 134.958 768.354 128.807 770.985C124.484 766.735 118.89 762.891 112.63 760.011L112.619 760.006C112.765 759.922 112.89 759.797 112.984 759.641C116.885 752.844 120.953 745.787 121.828 741.297C122.474 738.006 121.432 736.032 120.515 734.271C120.104 733.479 119.739 732.782 119.5 731.985C118.713 729.37 119.208 725.568 119.77 721.422C119.807 721.136 119.718 720.844 119.526 720.625C119.349 720.422 119.088 720.302 118.817 720.292C118.802 720.292 118.781 720.292 118.765 720.292L97.0204 720.604V720.61C98.0308 717.808 98.8589 714.938 99.4631 711.985C103.046 694.521 98.9214 674.256 90.8121 661.042C86.7808 654.474 81.7808 649.672 77.3954 645.459C73.8225 642.021 70.7131 639.026 68.7079 635.75C68.1923 634.912 67.7496 634.058 67.3954 633.183C63.9423 624.61 68.3121 613.006 72.9787 600.797C73.0933 600.511 73.0621 600.188 72.9006 599.922C72.7339 599.657 72.4579 599.485 72.1506 599.453L63.1662 598.532H63.1558C63.7756 596.61 64.4006 594.532 65.01 591.651C65.6714 588.552 66.7131 583.068 63.51 581.011C62.6402 580.448 61.5516 580.214 60.3902 580.172C57.2287 580.058 52.8485 581.391 48.5725 583.36C46.3433 584.381 44.1089 585.589 42.01 586.729C40.0725 587.776 38.2548 588.761 36.6089 589.516C35.3069 590.115 34.161 590.547 33.1871 590.761V590.766C32.5152 590.912 31.9214 590.959 31.3798 590.938C29.9996 590.886 28.9371 590.407 27.9058 589.927C27.2704 589.636 26.5204 589.276 25.7652 589.183C25.661 589.172 25.5621 589.162 25.4579 589.157C24.6141 589.125 23.8329 589.417 23.1141 589.87C24.8537 584.995 26.7912 580.427 29.8225 576.761C33.661 572.115 39.3069 568.86 45.161 565.495C45.4058 565.354 45.5777 565.115 45.635 564.839C45.6975 564.563 45.635 564.276 45.4683 564.047L40.5256 557.282H40.5204C43.1871 551.933 45.8225 546.693 48.5933 542.568C51.4475 538.323 54.4631 535.245 57.536 532.104C57.8173 531.823 57.9006 531.401 57.7496 531.032C57.5985 530.667 57.2496 530.427 56.8589 530.412C56.8537 530.412 56.8485 530.412 56.8433 530.412H56.8121C52.0464 530.313 47.1194 530.214 41.0308 532.36C35.26 534.391 28.4579 538.443 21.7287 542.506C20.6975 540.36 19.2756 537.849 16.76 537.761C16.6194 537.756 16.4735 537.761 16.3225 537.771C13.4423 537.985 9.71831 541.396 7.50477 544.787C6.34331 546.573 5.53081 548.448 4.89539 550.334V550.339C4.62977 544.589 5.34331 539.094 9.94747 533.834C13.3693 529.922 18.9423 526.115 24.6402 522.235C29.2391 519.099 33.911 515.922 37.3381 512.683C44.9371 505.5 46.7391 497.641 42.8381 492.521C40.1871 489.052 35.1141 487.214 30.1662 487.037C28.0152 486.959 25.8381 487.188 23.8277 487.766C23.3016 487.917 22.7912 488.089 22.2912 488.282C24.8694 485.203 26.9839 482.313 28.2756 479.761C31.4058 473.563 29.8641 468.927 27.2964 467.36V467.365C26.7339 467.021 26.1402 466.844 25.5152 466.818C23.4735 466.745 21.2496 468.391 18.8485 470.094L18.7079 470.193C17.9891 470.703 17.2183 471.25 16.4058 471.823C18.5725 469.313 20.3902 466.662 21.51 463.787C23.9475 457.532 23.1246 450.068 20.9318 447.349C20.2391 446.495 19.3798 446.047 18.411 446.016C16.2235 445.933 13.9006 448.042 12.2183 449.636C10.6402 451.136 9.2131 452.636 7.85372 454.125V454.131C9.90581 443.433 11.7183 432.782 10.7443 424.271C9.65581 414.745 5.07768 407.953 0.655808 401.36C0.473516 401.089 0.17664 400.933 -0.135859 400.922Z" fill="#FF6842"/>
</g>
<mask id="mask1_377_2" style="mask-type:luminance" maskUnits="userSpaceOnUse" x="1247" y="-14" width="196" height="432">
<path d="M1442.67 418H1248V-14H1442.67V418Z" fill="white"/>
</mask>
<g mask="url(#mask1_377_2)">
<path d="M1429.98 402.541C1429.99 402.541 1429.99 402.541 1430 402.541C1430.55 402.547 1431 402.109 1431.02 401.562L1431.36 378.916C1431.36 378.369 1430.94 377.922 1430.4 377.906C1430.39 377.906 1430.38 377.906 1430.37 377.906C1429.82 377.896 1429.37 378.333 1429.36 378.885L1429.02 401.531C1429.01 402.073 1429.44 402.521 1429.98 402.541ZM1421.37 363.114C1421.79 363.13 1422.19 362.885 1422.34 362.474C1423.28 360.005 1424.2 357.578 1425.51 354.89C1426.82 352.192 1428.54 349.224 1430.28 346.213C1430.55 345.734 1430.39 345.125 1429.91 344.849C1429.76 344.765 1429.6 344.724 1429.45 344.718C1429.09 344.708 1428.74 344.885 1428.55 345.213V345.218C1426.82 348.213 1425.06 351.244 1423.71 354.021C1422.36 356.797 1421.41 359.307 1420.47 361.771C1420.28 362.281 1420.54 362.859 1421.06 363.052C1421.16 363.093 1421.27 363.114 1421.37 363.114ZM1416.83 345.198C1417.27 345.213 1417.68 344.937 1417.82 344.5C1419.02 340.713 1420.17 337.093 1422.61 333.724C1425.08 330.328 1428.89 327.146 1432.83 323.854C1433.26 323.5 1433.32 322.875 1432.96 322.453C1432.77 322.224 1432.5 322.104 1432.23 322.093C1431.99 322.088 1431.75 322.161 1431.56 322.328C1427.67 325.567 1423.64 328.916 1420.99 332.557C1418.33 336.224 1417.1 340.151 1415.92 343.906C1415.75 344.427 1416.04 344.989 1416.57 345.151C1416.66 345.182 1416.74 345.198 1416.83 345.198ZM1404.25 320.885C1404.32 320.885 1404.39 320.885 1404.46 320.869C1410.4 319.843 1416.62 318.781 1420.66 316.38C1424.78 313.922 1426.56 310.119 1428.21 306.63V306.625L1428.21 306.609H1428.22C1428.45 306.109 1428.24 305.521 1427.74 305.286C1427.61 305.224 1427.48 305.192 1427.35 305.187C1426.96 305.177 1426.58 305.39 1426.41 305.76L1426.4 305.781C1424.72 309.328 1423.17 312.567 1419.63 314.666C1415.99 316.838 1410.2 317.854 1404.11 318.911C1403.57 319.005 1403.21 319.521 1403.3 320.062C1403.39 320.531 1403.79 320.869 1404.25 320.885ZM1407.07 274.573C1407.37 274.583 1407.67 274.458 1407.88 274.213C1413.28 267.703 1418.85 261.005 1421.39 253.213C1423.92 245.427 1423.39 236.619 1422.88 228.062C1422.85 227.541 1422.43 227.14 1421.92 227.125C1421.89 227.125 1421.85 227.125 1421.82 227.125C1421.28 227.156 1420.85 227.63 1420.89 228.177C1421.4 236.828 1421.88 245.234 1419.48 252.599C1417.09 259.963 1411.8 266.364 1406.34 272.942C1405.99 273.364 1406.05 273.994 1406.47 274.343C1406.65 274.489 1406.86 274.567 1407.07 274.573ZM1377.97 220.312C1378.49 220.333 1378.94 219.942 1378.99 219.416L1380.25 206.896C1380.31 206.349 1379.91 205.859 1379.36 205.807C1379.34 205.802 1379.31 205.802 1379.29 205.802C1378.77 205.781 1378.32 206.172 1378.27 206.698L1377.01 219.218C1376.95 219.765 1377.35 220.255 1377.9 220.307C1377.92 220.312 1377.94 220.312 1377.97 220.312ZM1433.43 242.099C1433.54 242.104 1433.65 242.088 1433.76 242.057C1434.29 241.896 1434.58 241.338 1434.42 240.812C1432.49 234.521 1430.52 228.078 1426.94 222.343C1423.36 216.609 1418.19 211.625 1413.15 206.744C1412.96 206.562 1412.72 206.474 1412.49 206.463C1412.21 206.453 1411.94 206.552 1411.73 206.765C1411.35 207.161 1411.36 207.791 1411.75 208.172C1416.84 213.093 1421.82 217.911 1425.24 223.396C1428.67 228.875 1430.57 235.062 1432.51 241.396C1432.64 241.812 1433.02 242.083 1433.43 242.099ZM1402.05 220.916C1402.08 220.916 1402.12 220.916 1402.16 220.911C1402.7 220.875 1403.12 220.401 1403.08 219.854L1402.04 204.307C1402 203.791 1401.59 203.396 1401.08 203.38C1401.05 203.375 1401.01 203.375 1400.98 203.38C1400.43 203.416 1400.01 203.89 1400.05 204.437L1401.09 219.984C1401.12 220.5 1401.55 220.896 1402.05 220.916ZM1389.37 223.401C1389.39 223.401 1389.4 223.401 1389.42 223.401C1389.97 223.39 1390.41 222.942 1390.41 222.39L1390.15 199.922C1390.14 199.39 1389.72 198.958 1389.19 198.937C1389.17 198.937 1389.16 198.937 1389.14 198.937C1388.59 198.942 1388.15 199.396 1388.15 199.942L1388.41 222.416C1388.42 222.948 1388.84 223.38 1389.37 223.401ZM1409.57 160.359C1409.92 160.375 1410.27 160.203 1410.46 159.88C1411.55 158.078 1412.77 156.093 1413.22 154.13C1413.69 152.135 1413.35 150.239 1413.07 148.562V148.557C1412.98 148.083 1412.58 147.744 1412.12 147.729C1412.05 147.724 1411.98 147.729 1411.92 147.739C1411.37 147.833 1411 148.349 1411.1 148.89V148.896C1411.4 150.63 1411.64 152.135 1411.28 153.682C1410.91 155.271 1409.89 156.968 1408.75 158.849C1408.46 159.323 1408.61 159.932 1409.09 160.218C1409.24 160.307 1409.4 160.354 1409.57 160.359ZM1416.06 162.411C1416.5 162.427 1416.91 162.161 1417.05 161.729C1418.1 158.505 1419.25 155.031 1419.04 151.802C1418.81 148.552 1417.21 145.635 1415.75 142.953L1415.74 142.937C1415.57 142.619 1415.24 142.432 1414.9 142.416C1414.73 142.411 1414.55 142.453 1414.39 142.541C1413.91 142.802 1413.72 143.406 1413.99 143.89L1413.99 143.901C1415.5 146.666 1416.85 149.192 1417.04 151.937C1417.23 154.703 1416.24 157.781 1415.15 161.109C1414.98 161.63 1415.27 162.192 1415.79 162.364C1415.88 162.396 1415.97 162.411 1416.06 162.411ZM1422.55 166.765C1422.93 166.781 1423.3 166.573 1423.48 166.213C1426.32 160.521 1429.42 154.39 1428.86 149.562C1428.3 144.604 1423.96 141.229 1420.14 138.192C1419.96 138.052 1419.76 137.979 1419.55 137.974C1419.25 137.963 1418.94 138.093 1418.73 138.349C1418.39 138.776 1418.46 139.406 1418.9 139.75C1422.92 142.948 1426.43 145.812 1426.88 149.786C1427.35 153.89 1424.66 159.39 1421.69 165.328C1421.45 165.817 1421.65 166.416 1422.15 166.661C1422.28 166.724 1422.42 166.76 1422.55 166.765ZM1398.32 162.119C1398.8 162.135 1399.23 161.807 1399.33 161.323C1399.44 160.786 1399.09 160.26 1398.55 160.146C1391.3 158.672 1384.29 157.224 1378.25 153.083C1372.2 148.927 1367.07 142.005 1364.74 135.828C1362.42 129.703 1362.84 124.276 1363.29 118.635C1363.33 118.088 1362.92 117.609 1362.37 117.567C1362.35 117.562 1362.34 117.562 1362.32 117.562C1361.79 117.547 1361.34 117.948 1361.3 118.479C1360.85 124.099 1360.38 129.942 1362.87 136.531C1365.34 143.067 1370.71 150.323 1377.12 154.724C1383.55 159.135 1390.97 160.635 1398.15 162.099C1398.21 162.109 1398.26 162.119 1398.32 162.119ZM1403.14 183.739C1403.54 183.755 1403.93 183.521 1404.1 183.125C1404.31 182.619 1404.07 182.036 1403.56 181.828L1403.51 181.807V181.802C1386.64 174.849 1370.21 168.031 1362.11 156.036C1354 144.041 1354.13 126.713 1354.3 108.916C1354.3 108.375 1353.87 107.932 1353.33 107.911C1353.32 107.911 1353.32 107.911 1353.31 107.911C1352.75 107.906 1352.3 108.349 1352.3 108.901C1352.14 126.484 1351.93 144.536 1360.45 157.151C1368.96 169.75 1386.07 176.771 1402.74 183.646L1402.79 183.666C1402.91 183.713 1403.02 183.739 1403.14 183.739ZM1397.15 149.26C1392.3 149.088 1384.65 146.552 1379.29 141.948C1372.12 135.797 1368.95 125.864 1368.93 118.343C1368.9 111.833 1371.22 107.172 1373.94 102.593V102.588C1374.64 104.708 1375.65 106.828 1377.66 108.047C1378.57 108.604 1379.67 108.948 1380.64 109.26C1381.7 109.604 1382.64 109.911 1383.43 110.385C1384.05 110.765 1384.53 111.229 1384.86 111.864C1386.09 114.265 1385.35 119.583 1383.23 123.224C1382.29 124.869 1381.07 126.13 1379.95 127.281C1379.15 128.109 1378.32 128.958 1377.81 129.828C1377.54 130.297 1377.33 130.817 1377.29 131.396C1377.03 134.375 1380.93 137.078 1384.59 138.468C1388.52 139.963 1393.12 140.364 1397.56 140.76C1397.57 140.765 1397.59 140.765 1397.61 140.765C1397.82 140.771 1398.02 140.713 1398.18 140.609C1400.9 144.765 1402.15 147.63 1400.75 148.635C1400.71 148.666 1400.67 148.692 1400.62 148.718C1400 149.093 1398.83 149.323 1397.15 149.26ZM1391.87 120.38C1391.9 120.38 1391.93 120.38 1391.95 120.38C1392.5 120.354 1392.93 119.89 1392.91 119.338C1392.61 112.797 1392.31 106.166 1391.22 100.14C1390.12 94.1039 1388.22 88.7028 1386.35 83.3799C1386.21 82.9789 1385.85 82.7289 1385.45 82.7132C1385.33 82.708 1385.2 82.7236 1385.08 82.7653C1384.56 82.9476 1384.29 83.5153 1384.47 84.0361C1386.34 89.3747 1388.19 94.6403 1389.25 100.494C1390.32 106.364 1390.61 112.854 1390.91 119.432C1390.94 119.953 1391.36 120.359 1391.87 120.38ZM1328.56 82.9997C1328.81 83.0101 1329.05 82.9268 1329.25 82.7549L1337.88 75.281C1338.3 74.9216 1338.34 74.2914 1337.98 73.8747C1337.79 73.6612 1337.53 73.5414 1337.27 73.5362C1337.02 73.5257 1336.77 73.6039 1336.57 73.7757L1327.94 81.2549C1327.53 81.6143 1327.48 82.2445 1327.84 82.6559C1328.04 82.8747 1328.3 82.9893 1328.56 82.9997ZM1403.24 122.849C1403.3 122.849 1403.36 122.849 1403.43 122.838C1403.97 122.75 1404.34 122.244 1404.26 121.698C1403.1 114.271 1401.95 106.833 1400.48 98.6872C1399.02 90.5466 1397.25 81.7028 1395.48 72.8695V72.8643C1395.39 72.4007 1394.99 72.083 1394.54 72.0622C1394.46 72.0622 1394.39 72.0674 1394.31 72.083C1393.77 72.1924 1393.42 72.7132 1393.53 73.2549C1395.29 82.0987 1397.06 90.9216 1398.52 99.0414C1399.97 107.161 1401.13 114.578 1402.29 122.005C1402.36 122.484 1402.77 122.833 1403.24 122.849ZM1329.2 73.0101C1329.3 73.0153 1329.41 73.0049 1329.5 72.9737L1341.89 69.531C1342.42 69.3799 1342.73 68.833 1342.58 68.3018C1342.46 67.8747 1342.08 67.5882 1341.66 67.5726C1341.56 67.5674 1341.46 67.583 1341.35 67.6091L1328.97 71.057C1328.44 71.2028 1328.13 71.7549 1328.28 72.2862C1328.4 72.7132 1328.78 72.9945 1329.2 73.0101ZM1362.44 101.609C1362.82 101.625 1363.2 101.411 1363.37 101.041C1366.41 94.6872 1369.42 88.3955 1372.69 83.1716C1375.95 77.958 1379.48 73.7914 1383.07 69.5674C1383.42 69.1455 1383.37 68.5153 1382.95 68.1612C1382.77 68.0101 1382.56 67.9372 1382.34 67.9268C1382.05 67.9164 1381.75 68.0362 1381.54 68.281C1377.97 72.4945 1374.34 76.7653 1370.99 82.1143C1367.65 87.4528 1364.59 93.8539 1361.57 100.187C1361.33 100.682 1361.55 101.276 1362.04 101.51C1362.17 101.573 1362.3 101.604 1362.44 101.609ZM1335.45 85.1924C1335.7 85.2028 1335.96 85.1143 1336.17 84.9268L1354.04 68.333C1354.44 67.958 1354.47 67.3278 1354.09 66.9216C1353.9 66.7237 1353.65 66.6143 1353.4 66.6039C1353.14 66.5987 1352.88 66.6872 1352.68 66.8747L1334.8 83.4684C1334.4 83.8434 1334.38 84.4736 1334.75 84.8799C1334.94 85.0778 1335.19 85.1872 1335.45 85.1924ZM1417.1 100.708C1417.25 100.713 1417.4 100.687 1417.55 100.619C1418.05 100.396 1418.27 99.8018 1418.04 99.3018C1415.28 93.2341 1412.54 87.2132 1410.47 81.5049C1408.41 75.8018 1407.01 70.3955 1405.6 64.9476C1405.49 64.5101 1405.1 64.2132 1404.68 64.1976C1404.58 64.1924 1404.48 64.2028 1404.39 64.2289C1403.86 64.3643 1403.54 64.906 1403.67 65.4424C1405.08 70.8851 1406.49 76.3747 1408.59 82.1768C1410.69 87.9789 1413.47 94.0726 1416.22 100.125C1416.39 100.484 1416.73 100.698 1417.1 100.708ZM1318.03 96.6976C1318.52 93.0622 1318.93 89.2653 1318.08 86.4424C1317.78 85.4372 1317.32 84.5778 1316.92 83.807C1316.05 82.1299 1315.29 80.6768 1315.8 78.083C1316.59 74.0049 1320.42 67.3122 1324.42 60.3487C1324.54 60.1299 1324.57 59.8851 1324.53 59.656V59.6507C1330.74 62.3226 1337.55 64.031 1344.41 64.281C1345 64.3018 1345.6 64.3122 1346.2 64.3122C1351.15 64.3018 1356.08 63.5049 1361 62.1455C1352.59 73.031 1344.23 84.0986 1339.36 96.4997H1339.35C1339.22 96.4372 1339.09 96.4059 1338.94 96.4007C1338.93 96.4007 1338.91 96.3955 1338.89 96.4007L1318.04 96.6976H1318.03ZM1434.89 413.854C1431.12 408.13 1427.8 402.281 1426.91 394.505C1425.87 385.448 1428.12 373.739 1430.44 361.797L1430.46 361.718C1430.54 361.281 1430.32 360.838 1429.92 360.635C1429.79 360.573 1429.65 360.541 1429.51 360.536C1429.22 360.526 1428.93 360.64 1428.73 360.869C1426.61 363.244 1424.53 365.588 1422.07 367.922C1420.16 369.734 1418.49 371.036 1417.33 370.994C1416.99 370.984 1416.66 370.854 1416.29 370.406C1414.71 368.442 1413.73 361.817 1416.02 355.937C1418.28 350.13 1423.7 345.198 1429.39 340.052C1429.78 339.698 1429.82 339.104 1429.49 338.692C1429.31 338.458 1429.03 338.328 1428.75 338.323C1428.54 338.312 1428.33 338.369 1428.14 338.5C1423.65 341.651 1419.15 344.807 1415.8 347.182L1415.66 347.281C1412.96 349.203 1411.41 350.234 1410.22 350.187C1409.95 350.182 1409.68 350.104 1409.41 349.937C1408.1 349.14 1406.29 345.849 1409.18 340.135C1410.98 336.552 1414.57 332.192 1418.87 327.489H1418.88C1422.09 324.953 1424.81 321.651 1427.45 318.468C1427.79 318.057 1427.74 317.448 1427.34 317.093C1427.16 316.932 1426.94 316.849 1426.71 316.838C1426.44 316.828 1426.16 316.932 1425.96 317.146C1423.08 320.119 1420.17 323.125 1417.49 326.041H1417.5C1415.61 327.515 1413.58 328.666 1411.29 329.323C1409.5 329.833 1407.54 330.047 1405.57 329.974C1400.95 329.807 1396.56 328.083 1394.42 325.271C1391.46 321.401 1392.36 314.703 1399.7 307.765C1402.99 304.656 1407.51 301.573 1412.16 298.406C1417.78 294.578 1423.6 290.619 1427.22 286.474C1433.94 278.802 1433.07 270.588 1432.29 262.833C1432.24 262.349 1431.85 261.974 1431.36 261.937C1431.35 261.937 1431.34 261.937 1431.33 261.937C1430.86 261.922 1430.44 262.239 1430.33 262.698C1429.43 266.411 1428.57 269.932 1426.48 273.125C1424.32 276.453 1421.06 279.104 1419.19 279.244C1419.11 279.25 1419.05 279.25 1418.98 279.25C1417.56 279.198 1416.61 277.479 1415.28 274.661L1415.28 274.656L1415.27 274.646C1415.15 274.39 1414.93 274.198 1414.66 274.114C1414.57 274.093 1414.49 274.078 1414.41 274.073C1414.21 274.067 1414.02 274.114 1413.85 274.218C1406.75 278.51 1399.78 282.718 1393.97 284.76C1389.17 286.453 1385.16 286.666 1381.18 286.635H1381.17C1383.71 284 1386.28 281.187 1388.73 277.541C1391.68 273.151 1394.46 267.573 1397.2 262.073C1397.36 261.739 1397.33 261.343 1397.11 261.041L1392.46 254.672H1392.47C1397.95 251.521 1403.5 248.203 1407.39 243.51C1411.49 238.536 1413.68 232.078 1415.8 225.843C1415.95 225.396 1415.77 224.896 1415.35 224.661C1415.21 224.578 1415.05 224.536 1414.89 224.531C1414.59 224.521 1414.3 224.64 1414.1 224.875C1412.49 226.734 1411.37 227.89 1410.28 227.854C1410.23 227.849 1410.19 227.849 1410.15 227.843V227.838C1409.77 227.791 1409.32 227.599 1408.6 227.265C1407.57 226.786 1406.18 226.14 1404.35 226.073C1403.65 226.047 1402.88 226.109 1402.05 226.291C1400.87 226.552 1399.57 227.052 1398.22 227.672C1396.5 228.463 1394.62 229.479 1392.7 230.521C1390.59 231.666 1388.42 232.843 1386.26 233.833C1382.05 235.765 1378.03 236.937 1375.34 236.838C1374.39 236.807 1373.69 236.609 1373.23 236.317C1371.44 235.166 1371.81 231.5 1372.61 227.76C1373.32 224.396 1374.05 222.177 1374.79 219.916C1374.89 219.63 1374.84 219.317 1374.68 219.067C1374.52 218.812 1374.24 218.646 1373.95 218.614L1365 217.698H1365.02C1369.42 206.182 1373.81 194.218 1370.12 185.078C1369.72 184.083 1369.23 183.13 1368.66 182.208C1366.49 178.672 1363.18 175.494 1359.66 172.109C1355.25 167.88 1350.44 163.239 1346.56 156.916C1338.71 144.13 1334.68 124.375 1338.16 107.411C1341.64 90.4684 1352.62 76.2393 1363.8 61.7914C1363.93 61.6247 1363.99 61.4372 1364.01 61.2445H1364.02C1375.61 57.5153 1387.11 50.9112 1398.48 44.3747V44.3695C1398.94 44.6872 1399.42 44.9893 1399.9 45.2862C1404.64 48.1768 1410.73 50.3382 1416.54 51.1976H1416.55C1414.46 56.9164 1412.39 62.932 1415.89 72.0049C1419.31 80.8487 1428.06 92.6403 1436.79 104.328H1436.8C1434.26 106.119 1431.96 107.604 1429.77 107.854C1429.46 107.89 1429.16 107.901 1428.84 107.89C1426.74 107.812 1424.62 106.755 1422.24 105.552C1422.11 105.484 1421.97 105.448 1421.83 105.442C1421.65 105.437 1421.46 105.479 1421.3 105.573C1421 105.744 1420.81 106.047 1420.8 106.385C1420.43 113.198 1420.06 119.666 1417.92 123.776C1415.84 127.776 1412.02 129.614 1407.82 131.604C1407.66 131.677 1407.53 131.791 1407.43 131.927H1407.44C1403.33 132.229 1399.08 132.765 1394.87 133.291C1394.52 133.338 1394.22 133.562 1394.08 133.885C1393.94 134.208 1393.97 134.578 1394.18 134.864C1395.16 136.224 1396.08 137.505 1396.9 138.703H1396.89C1392.7 138.323 1388.69 137.901 1385.3 136.609C1381.41 135.13 1379.16 132.89 1379.27 131.567C1379.29 131.359 1379.37 131.119 1379.54 130.823C1379.9 130.213 1380.52 129.557 1381.39 128.666C1382.49 127.526 1383.87 126.109 1384.96 124.224C1387.22 120.328 1388.31 114.239 1386.64 110.963C1386.11 109.922 1385.32 109.208 1384.46 108.687C1383.44 108.067 1382.27 107.692 1381.25 107.364C1380.22 107.036 1379.37 106.755 1378.69 106.343C1376.78 105.187 1376.05 102.807 1375.21 99.8695C1375.1 99.4893 1374.78 99.208 1374.39 99.1559C1374.35 99.1507 1374.32 99.1455 1374.29 99.1455C1373.93 99.1351 1373.59 99.3174 1373.4 99.6247C1370.22 104.854 1366.9 110.307 1366.93 118.349C1366.96 126.297 1370.28 136.838 1377.98 143.458C1383.7 148.364 1391.78 151.062 1397.07 151.255C1398.87 151.317 1400.52 151.104 1401.65 150.427C1401.74 150.375 1401.83 150.317 1401.92 150.255C1405.69 147.541 1400.82 140.625 1396.79 135.057H1396.8C1403.42 134.234 1409.92 133.494 1415.78 133.703C1421.43 133.906 1426.37 134.994 1430.2 137.646C1438.45 143.349 1441.91 156.427 1437.65 164.364C1433.38 172.317 1421.25 175.489 1408.34 178.776C1407.83 178.906 1407.51 179.406 1407.6 179.916C1407.69 180.385 1408.09 180.718 1408.55 180.739C1408.59 180.739 1408.64 180.739 1408.69 180.734C1412.48 180.338 1416.18 179.958 1419.66 180.083C1422.4 180.182 1424.95 180.599 1427.23 181.552C1432.05 183.567 1435.86 188.052 1439.76 192.958H1439.77C1433.33 194.802 1427.09 196.463 1421.26 196.255C1420.59 196.229 1419.92 196.182 1419.27 196.104C1418.42 196.005 1417.57 195.859 1416.74 195.677H1416.75C1411.37 192.536 1405.48 190.088 1399.66 187.672C1399.55 187.625 1399.43 187.599 1399.31 187.599C1398.93 187.583 1398.57 187.786 1398.39 188.146C1398.15 188.609 1398.31 189.177 1398.77 189.448C1404.24 192.724 1409.89 196.119 1415.99 197.547H1416C1417.95 198.698 1419.81 199.937 1421.57 201.307C1428 206.317 1433.04 213.062 1438.15 219.968H1438.16L1434.9 413.854H1434.89ZM1410.46 42.5882C1410.92 42.6039 1411.35 42.2966 1411.46 41.8278L1413.89 31.9372C1414.02 31.406 1413.69 30.8643 1413.16 30.7341C1413.09 30.7185 1413.02 30.708 1412.95 30.708C1412.49 30.6872 1412.06 30.9997 1411.95 31.4632L1409.52 41.3539C1409.39 41.8903 1409.72 42.4268 1410.25 42.557C1410.32 42.5778 1410.39 42.583 1410.46 42.5882ZM1425.07 43.6299C1425.14 43.6299 1425.21 43.6247 1425.28 43.6143C1425.82 43.5153 1426.18 42.9945 1426.08 42.4528L1423.93 30.682C1423.84 30.2132 1423.44 29.8799 1422.98 29.8643C1422.91 29.8591 1422.84 29.8643 1422.77 29.8799C1422.22 29.9789 1421.86 30.4945 1421.96 31.0362L1424.12 42.8122C1424.21 43.281 1424.61 43.6143 1425.07 43.6299ZM1396.47 33.8278C1396.69 33.833 1396.92 33.7653 1397.11 33.6195L1406.15 26.7237C1406.59 26.3903 1406.67 25.7653 1406.34 25.3278C1406.15 25.0778 1405.87 24.9476 1405.58 24.9372C1405.35 24.9268 1405.13 24.9945 1404.94 25.1403L1395.9 32.0414C1395.46 32.3747 1395.37 32.9997 1395.71 33.4372C1395.9 33.682 1396.18 33.8174 1396.47 33.8278ZM1420.68 49.5882C1414.14 49.3487 1406.52 46.9893 1400.94 43.5882C1391.86 38.0414 1388.39 29.8487 1389.17 24.9476C1389.88 20.4528 1394.22 18.2966 1399.48 16.0622C1403.19 21.4268 1411.08 23.9528 1417.59 24.3018C1417.78 24.3122 1417.96 24.3174 1418.14 24.3278C1424.32 24.5466 1429.53 22.8487 1434.53 21.083C1435.8 32.8747 1436.46 43.3018 1430.7 47.3747C1428.36 49.031 1424.82 49.7341 1420.68 49.5882ZM1385.96 19.5153C1386.28 19.5257 1386.6 19.3799 1386.8 19.1039L1391.7 12.4007C1392.02 11.9528 1391.92 11.333 1391.48 11.0101C1391.31 10.8851 1391.12 10.8226 1390.93 10.8174C1390.6 10.807 1390.29 10.9476 1390.08 11.2289L1385.19 17.932C1384.86 18.3747 1384.96 18.9997 1385.41 19.3226C1385.57 19.4424 1385.77 19.5049 1385.96 19.5153ZM1374.27 14.1039C1374.43 14.1091 1374.59 14.0778 1374.74 13.9997L1384.4 9.1872C1384.89 8.9372 1385.09 8.34345 1384.84 7.84866C1384.68 7.51012 1384.34 7.3122 1383.98 7.29658C1383.82 7.29137 1383.66 7.32783 1383.5 7.40595L1373.85 12.2185C1373.36 12.4632 1373.16 13.0622 1373.41 13.5518C1373.57 13.8903 1373.91 14.0882 1374.27 14.1039ZM1348 52.6872C1358.11 53.0518 1369.13 51.1195 1380.01 49.2132C1380.55 49.1195 1380.92 48.6039 1380.82 48.057C1380.73 47.5882 1380.33 47.2549 1379.87 47.2341C1379.8 47.2341 1379.73 47.2393 1379.66 47.2497C1368.73 49.1664 1357.94 51.0518 1348.07 50.6976C1344.03 50.5518 1340.17 50.031 1336.53 48.9893C1323.96 45.3851 1314.03 35.5518 1311.92 27.3174C1309.84 19.2289 1315.23 12.3747 1321.15 4.97887C1321.49 4.55179 1321.42 3.92679 1320.99 3.58304C1320.81 3.44241 1320.61 3.3747 1320.4 3.36429C1320.09 3.35387 1319.79 3.48408 1319.58 3.73929C1313.86 10.8955 1307.61 18.583 1309.98 27.8122C1312.31 36.9007 1322.91 47.156 1335.98 50.9007C1339.81 51.9997 1343.84 52.5362 1348 52.6872ZM1412.66 14.9685C1412.92 14.9789 1413.18 14.8903 1413.38 14.7028L1421.05 7.58304C1421.45 7.20804 1421.47 6.57783 1421.1 6.17679C1420.91 5.97366 1420.66 5.8695 1420.4 5.85908C1420.15 5.84866 1419.89 5.9372 1419.69 6.1247L1412.02 13.2445C1411.61 13.6195 1411.59 14.2497 1411.97 14.656C1412.16 14.8539 1412.41 14.9632 1412.66 14.9685ZM1424.45 17.9737C1424.93 17.9945 1425.37 17.656 1425.46 17.1612L1427.6 5.71324C1427.7 5.17158 1427.34 4.65595 1426.8 4.55179C1426.75 4.54137 1426.7 4.53616 1426.66 4.53616C1426.17 4.52054 1425.73 4.85908 1425.64 5.34866L1423.5 16.7966C1423.4 17.3382 1423.75 17.8591 1424.3 17.958C1424.35 17.9685 1424.4 17.9737 1424.45 17.9737ZM1368.08 4.07262C1368.14 4.07783 1368.21 4.07262 1368.28 4.0622L1383.36 1.51012C1383.91 1.41637 1384.28 0.900744 1384.18 0.359078C1384.1 -0.11488 1383.7 -0.453422 1383.23 -0.469047C1383.17 -0.469047 1383.1 -0.469048 1383.03 -0.453422L1367.95 2.09866C1367.4 2.1872 1367.04 2.70283 1367.13 3.24449C1367.21 3.71845 1367.61 4.05699 1368.08 4.07262ZM1405.8 4.57262C1405.89 4.57783 1405.97 4.56741 1406.06 4.55179L1420.31 1.28095C1420.85 1.15595 1421.18 0.619495 1421.06 0.083036C1420.96 -0.36488 1420.56 -0.672172 1420.12 -0.687797C1420.04 -0.693005 1419.95 -0.68259 1419.86 -0.661756L1405.61 2.60908C1405.08 2.73408 1404.74 3.26533 1404.86 3.80179C1404.97 4.2497 1405.36 4.55699 1405.8 4.57262ZM1344.48 62.2914C1330.43 61.781 1316.54 54.8539 1308.03 46.3643H1308.04C1307.93 46.156 1307.77 45.9997 1307.56 45.906H1307.57C1306.27 44.5674 1305.1 43.1872 1304.08 41.7914C1296.31 31.1091 1297.62 19.307 1301.82 10.6039C1306 1.91637 1313.02 -3.54196 1320.32 -5.55759C1322.73 -6.22426 1325.18 -6.51592 1327.48 -6.43259C1332.2 -6.26071 1336.21 -4.54717 1338.34 -1.46905C1341.61 3.24449 1340.86 11.5987 1339.19 15.9424C1339.05 16.2966 1338.91 16.6195 1338.77 16.9164C1337.97 18.557 1337.05 19.4268 1336.07 20.3487C1335.16 21.1924 1334.17 22.1143 1333.41 23.6716C1331.75 27.0674 1331.14 33.8122 1337.07 37.7601C1340.37 39.958 1345.6 41.182 1350.99 41.3799C1354.99 41.5205 1359.18 41.0987 1362.85 40.0257C1371.42 37.5205 1377.08 31.5049 1382.52 25.682H1382.53C1384.09 25.3382 1385.67 24.906 1387.22 24.458C1387.21 24.5153 1387.2 24.5726 1387.19 24.6351C1386.36 29.8747 1389.46 37.3903 1396.72 43.083H1396.73C1379.68 52.8799 1362.94 62.2914 1346.19 62.3174C1345.62 62.3226 1345.05 62.3122 1344.48 62.2914ZM1376.04 24.406C1372.85 24.2914 1369.86 23.2237 1367.03 20.3487C1363.91 17.1872 1360.97 11.8487 1359.82 6.65595C1358.68 1.51533 1359.33 -2.97426 1365.64 -4.86488C1369.54 -6.03676 1375.63 -6.22946 1382.78 -5.96905C1387.58 -5.79717 1392.8 -5.42738 1398.06 -5.03676H1398.07C1396.96 1.86429 1395.99 9.04137 1398.48 14.3174H1398.49C1394.26 16.1039 1389.79 18.2028 1387.94 22.1768H1387.95C1384.03 23.3174 1380.28 24.3851 1376.78 24.4164C1376.53 24.4164 1376.28 24.4112 1376.04 24.406ZM1418.2 22.333C1418.04 22.3278 1417.87 22.3226 1417.7 22.3122C1411.36 21.9737 1404.22 19.4997 1401.07 14.8487H1401.08C1401.1 14.682 1401.08 14.5049 1401.01 14.3382C1400.9 14.0726 1400.69 13.8799 1400.44 13.7914H1400.44C1397.98 9.01533 1398.94 2.07262 1400.15 -5.4378H1400.16L1432.63 -4.43259L1434.19 19.0882H1434.2C1429.1 20.8903 1424.12 22.5466 1418.2 22.333ZM1286.92 51.0153C1285.83 50.9789 1284.71 50.8747 1283.57 50.6924C1274.79 49.2966 1264.3 43.4112 1257.91 36.2132C1251.57 29.0726 1249.31 20.682 1251.09 12.1195C1252.87 3.50491 1258.74 -5.2503 1268.22 -9.2503C1272.54 -11.0732 1277.64 -11.9222 1282.43 -11.7503C1288.22 -11.5368 1293.33 -9.84926 1296.1 -6.83884C1301.22 -1.29717 1299 9.39033 1296.86 16.3226C1294.79 23.031 1293.22 24.8955 1289.77 25.9216C1288.18 26.3955 1286.19 26.6768 1284.22 26.6091C1281.54 26.5101 1279.09 25.7653 1277.64 24.1872C1275.02 21.333 1275.17 15.2966 1277.24 12.4424C1278.87 10.2028 1281.83 9.91116 1285.62 10.0466C1286.09 10.0622 1286.57 10.083 1287.05 10.1091H1287.06C1287.2 10.1872 1287.36 10.2341 1287.52 10.2393C1287.67 10.2445 1287.82 10.2185 1287.97 10.1507C1288.42 9.94241 1288.65 9.44241 1288.52 8.97887H1288.53C1288.5 8.79137 1288.42 8.6195 1288.3 8.48408H1288.31C1286.2 3.8747 1283.73 -1.44821 1278.08 -1.87009C1277.96 -1.88051 1277.83 -1.88571 1277.71 -1.89092C1272.19 -2.08884 1264.11 2.26012 1261.32 10.1716C1258.5 18.182 1261.17 29.7497 1266.36 35.807C1271.68 41.9945 1279.56 42.3903 1286.87 42.8122C1286.89 42.8122 1286.89 42.8122 1286.9 42.8122C1287.44 42.833 1287.9 42.4164 1287.93 41.8747C1287.96 41.3226 1287.54 40.8539 1286.99 40.8226C1279.48 40.3903 1272.55 39.9476 1267.88 34.5101C1263.11 28.9476 1260.64 18.1195 1263.21 10.833C1265.7 3.76533 1272.97 -0.0680056 1277.64 0.098661C1277.74 0.103869 1277.84 0.109077 1277.93 0.114286C1281.85 0.411161 1283.87 3.75491 1285.91 8.0622H1285.9C1285.83 8.0622 1285.76 8.05699 1285.69 8.05699C1282.03 7.92158 1277.96 8.07783 1275.63 11.2705C1273.09 14.7653 1272.8 21.8695 1276.16 25.531C1278.14 27.682 1281.23 28.4945 1284.15 28.5987C1286.34 28.6768 1288.54 28.3643 1290.33 27.833C1293.24 26.9685 1295.04 25.5101 1296.53 22.6976C1296.09 29.2445 1297.62 36.3018 1302.46 42.9632C1303.33 44.1507 1304.3 45.3278 1305.37 46.4789L1305.38 46.4841C1299.45 49.0049 1293.63 51.2601 1286.92 51.0153ZM1435.8 418.078C1435.91 418.083 1436.02 418.073 1436.12 418.041C1436.54 417.916 1436.83 417.536 1436.84 417.099L1440.16 219.677C1440.17 219.458 1440.1 219.239 1439.97 219.067C1434.82 212.109 1429.57 205.01 1422.8 199.734C1422.12 199.213 1421.44 198.713 1420.74 198.224C1420.9 198.234 1421.04 198.239 1421.19 198.244C1427.83 198.484 1434.89 196.437 1441.74 194.463C1442.07 194.369 1442.32 194.125 1442.42 193.807C1442.52 193.494 1442.46 193.151 1442.25 192.89C1438.11 187.656 1433.77 182.13 1428 179.718V179.713C1425.43 178.64 1422.62 178.198 1419.72 178.093C1419.39 178.083 1419.04 178.073 1418.7 178.073H1418.69C1427.73 175.396 1435.89 171.869 1439.41 165.307C1444.2 156.385 1440.33 142.224 1431.34 136.01C1427.06 133.047 1421.68 131.922 1415.85 131.713C1414.64 131.672 1413.41 131.666 1412.15 131.692H1412.14C1415.12 130.099 1417.94 128.073 1419.7 124.692C1421.9 120.458 1422.36 114.177 1422.71 108.01C1424.61 108.948 1426.66 109.802 1428.77 109.88C1429.18 109.896 1429.59 109.88 1430 109.833C1433.05 109.484 1436.07 107.297 1438.79 105.364C1439 105.208 1439.15 104.968 1439.19 104.708C1439.23 104.442 1439.17 104.172 1439 103.958C1429.99 91.8955 1421.12 80.0205 1417.75 71.2862C1414.46 62.7549 1416.45 57.2757 1418.55 51.5414C1418.56 51.5101 1418.57 51.4737 1418.58 51.4424C1419.27 51.5049 1419.94 51.5518 1420.61 51.5778C1424.94 51.7341 1429 51.0205 1431.85 48.9997C1439.18 43.8174 1437.59 30.6351 1436.27 18.6351C1436.25 18.4841 1436.2 18.3487 1436.12 18.2237H1436.14L1434.56 -5.46384C1434.53 -5.97426 1434.11 -6.3753 1433.6 -6.39613C1433.6 -6.39613 1433.6 -6.39613 1433.59 -6.39613L1399.34 -7.45863C1398.98 -7.46905 1398.66 -7.28676 1398.47 -7.00551H1398.46C1393.11 -7.40134 1387.77 -7.78676 1382.85 -7.96384C1375.72 -8.21905 1369.32 -8.04717 1365.06 -6.77113C1357.27 -4.4378 1356.63 1.50491 1357.86 7.08824C1359.09 12.6195 1362.2 18.3018 1365.6 21.7445C1368.82 25.0049 1372.3 26.2601 1375.97 26.3955C1376.24 26.406 1376.52 26.406 1376.79 26.406C1377.6 26.4007 1378.43 26.3435 1379.25 26.2445C1374.37 31.3799 1369.39 36.0362 1362.29 38.1143C1358.85 39.1195 1354.9 39.5257 1351.06 39.3903C1345.85 39.1976 1341.04 38.0101 1338.18 36.1039C1333.4 32.9216 1333.8 27.4424 1335.21 24.5414C1335.79 23.3487 1336.53 22.6455 1337.43 21.7966C1338.44 20.8539 1339.59 19.7757 1340.56 17.7862C1340.73 17.4372 1340.9 17.057 1341.06 16.6507C1342.82 12.057 1343.81 2.90595 1339.98 -2.60446C1337.37 -6.3753 1332.65 -8.23988 1327.56 -8.42217C1325.04 -8.51071 1322.39 -8.19301 1319.79 -7.47946C1312.37 -5.43259 1305.33 -0.125298 1300.84 8.14033H1300.83C1301.68 2.34345 1301.41 -4.02113 1297.57 -8.1878C1294.28 -11.7659 1288.52 -13.5211 1282.5 -13.7399C1277.45 -13.9222 1272.06 -13.0315 1267.44 -11.0836C1257.27 -6.79196 1251.03 2.57262 1249.14 11.7185C1247.22 20.9268 1249.68 29.9476 1256.41 37.531C1263.08 45.0518 1273.99 51.1872 1283.26 52.6612C1284.48 52.8539 1285.68 52.9632 1286.84 53.0049C1294.32 53.2757 1300.71 50.6455 1306.86 48.0153C1311.18 52.2653 1316.78 56.1091 1323.04 58.9893L1323.05 58.9945C1322.9 59.0778 1322.78 59.2028 1322.68 59.3591C1318.78 66.156 1314.71 73.2132 1313.84 77.7028C1313.19 80.9945 1314.23 82.9684 1315.15 84.7289C1315.56 85.5205 1315.93 86.2184 1316.17 87.0153C1316.95 89.6299 1316.46 93.432 1315.9 97.5778C1315.86 97.8643 1315.95 98.1559 1316.14 98.3747C1316.32 98.5778 1316.58 98.6976 1316.85 98.708C1316.86 98.708 1316.89 98.708 1316.9 98.708L1338.65 98.3955V98.3903C1337.64 101.192 1336.81 104.062 1336.2 107.015C1332.62 124.479 1336.74 144.744 1344.85 157.958C1348.89 164.526 1353.89 169.328 1358.27 173.541C1361.84 176.979 1364.95 179.974 1366.96 183.25C1367.47 184.088 1367.92 184.942 1368.27 185.817C1371.72 194.39 1367.35 205.994 1362.69 218.203C1362.57 218.489 1362.6 218.812 1362.77 219.078C1362.93 219.343 1363.21 219.515 1363.52 219.547L1372.5 220.468H1372.51C1371.89 222.39 1371.27 224.468 1370.66 227.349C1369.99 230.448 1368.95 235.932 1372.16 237.989C1373.03 238.552 1374.11 238.786 1375.28 238.828C1378.44 238.942 1382.82 237.609 1387.09 235.64C1389.32 234.619 1391.56 233.411 1393.66 232.271C1395.59 231.224 1397.41 230.239 1399.06 229.484C1400.36 228.885 1401.5 228.453 1402.48 228.239V228.234C1403.15 228.088 1403.74 228.041 1404.29 228.062C1405.67 228.114 1406.73 228.593 1407.76 229.073C1408.4 229.364 1409.15 229.724 1409.9 229.817C1410 229.828 1410.1 229.838 1410.21 229.843C1411.05 229.875 1411.83 229.583 1412.55 229.13C1410.81 234.005 1408.87 238.573 1405.84 242.239C1402 246.885 1396.36 250.14 1390.5 253.505C1390.26 253.646 1390.09 253.885 1390.03 254.161C1389.97 254.437 1390.03 254.724 1390.2 254.953L1395.14 261.718H1395.15C1392.48 267.067 1389.84 272.307 1387.07 276.432C1384.22 280.677 1381.2 283.755 1378.13 286.896C1377.85 287.177 1377.77 287.599 1377.92 287.968C1378.07 288.333 1378.42 288.573 1378.81 288.588C1378.81 288.588 1378.82 288.588 1378.82 288.588H1378.85C1383.62 288.687 1388.55 288.786 1394.64 286.64C1400.41 284.609 1407.21 280.557 1413.94 276.494C1414.97 278.64 1416.39 281.151 1418.91 281.239C1419.05 281.244 1419.19 281.239 1419.34 281.229C1422.22 281.015 1425.95 277.604 1428.16 274.213C1429.32 272.427 1430.14 270.552 1430.77 268.666V268.661C1431.04 274.411 1430.32 279.906 1425.72 285.166C1422.3 289.078 1416.72 292.885 1411.03 296.765C1406.43 299.901 1401.75 303.078 1398.33 306.317C1390.73 313.5 1388.93 321.359 1392.83 326.479C1395.48 329.948 1400.55 331.786 1405.5 331.963C1407.65 332.041 1409.83 331.812 1411.84 331.234C1412.36 331.083 1412.87 330.911 1413.37 330.718C1410.8 333.797 1408.68 336.687 1407.39 339.239C1404.26 345.437 1405.8 350.073 1408.37 351.64V351.635C1408.93 351.979 1409.53 352.156 1410.15 352.182C1412.19 352.255 1414.42 350.609 1416.82 348.906L1416.96 348.807C1417.68 348.297 1418.45 347.75 1419.26 347.177C1417.09 349.687 1415.28 352.338 1414.16 355.213C1411.72 361.468 1412.54 368.932 1414.73 371.651C1415.43 372.505 1416.29 372.953 1417.25 372.984C1419.44 373.067 1421.77 370.958 1423.45 369.364C1425.03 367.864 1426.45 366.364 1427.81 364.875V364.869C1425.76 375.567 1423.95 386.218 1424.92 394.729C1426.01 404.255 1430.59 411.047 1435.01 417.64C1435.19 417.911 1435.49 418.067 1435.8 418.078Z" fill="#FF6842"/>
</g>
</g>
<defs>
<clipPath id="clip0_377_2">
<rect width="1440" height="820" fill="white"/>
</clipPath>
</defs>
</svg>
