<svg width="15" height="14" viewBox="0 0 15 14" fill="none" xmlns="http://www.w3.org/2000/svg">
<path d="M8.5625 0.8125C8.5625 0.663316 8.62176 0.520241 8.72725 0.414752C8.83274 0.309263 8.97582 0.25 9.125 0.25H13.625C13.7742 0.25 13.9173 0.309263 14.0227 0.414752C14.1282 0.520241 14.1875 0.663316 14.1875 0.8125L14.1875 13.1875C14.1875 13.3367 14.1282 13.4798 14.0227 13.5852C13.9173 13.6907 13.7742 13.75 13.625 13.75H9.125C8.97582 13.75 8.83274 13.6907 8.72725 13.5852C8.62176 13.4798 8.5625 13.3367 8.5625 13.1875C8.5625 13.0383 8.62176 12.8952 8.72725 12.7898C8.83274 12.6843 8.97582 12.625 9.125 12.625H13.0625L13.0625 1.375H9.125C8.97582 1.375 8.83274 1.31574 8.72725 1.21025C8.62176 1.10476 8.5625 0.961684 8.5625 0.8125ZM0.852031 7.39797L3.66453 10.2105C3.77008 10.316 3.91323 10.3753 4.0625 10.3753C4.21177 10.3753 4.35492 10.316 4.46047 10.2105C4.56602 10.1049 4.62531 9.96177 4.62531 9.8125C4.62531 9.66323 4.56602 9.52008 4.46047 9.41453L2.60773 7.5625L9.125 7.5625C9.27418 7.5625 9.41726 7.50324 9.52275 7.39775C9.62824 7.29226 9.6875 7.14918 9.6875 7C9.6875 6.85082 9.62824 6.70774 9.52275 6.60225C9.41726 6.49676 9.27418 6.4375 9.125 6.4375L2.60773 6.4375L4.46047 4.58547C4.56602 4.47992 4.62531 4.33677 4.62531 4.1875C4.62531 4.03823 4.56602 3.89508 4.46047 3.78953C4.35492 3.68398 4.21177 3.62469 4.0625 3.62469C3.91323 3.62469 3.77008 3.68398 3.66453 3.78953L0.852031 6.60203C0.799732 6.65427 0.758242 6.71631 0.729935 6.7846C0.701628 6.85288 0.687057 6.92608 0.687057 7C0.687057 7.07392 0.701628 7.14712 0.729935 7.2154C0.758242 7.28369 0.799732 7.34573 0.852031 7.39797Z" fill="#FF6842"/>
</svg>
