<svg width="20" height="16" viewBox="0 0 20 16" fill="none" xmlns="http://www.w3.org/2000/svg">
<path d="M8.27074 11.3892C10.851 11.3892 12.9427 9.11314 12.9427 6.30554C12.9427 3.49794 10.851 1.22192 8.27074 1.22192C5.69047 1.22192 3.59875 3.49794 3.59875 6.30554C3.59875 9.11314 5.69047 11.3892 8.27074 11.3892Z" stroke="black" stroke-width="1.5" stroke-linecap="round" stroke-linejoin="round"/>
<path d="M1.73047 14.7782C3.33062 12.7067 5.58953 11.3892 8.27125 11.3892C10.953 11.3892 13.2119 12.7067 14.812 14.7782" stroke="black" stroke-width="1.5" stroke-linecap="round" stroke-linejoin="round"/>
<path d="M17.3035 10.7113C17.9916 10.7113 18.5493 10.1043 18.5493 9.35563C18.5493 8.60694 17.9916 8 17.3035 8C16.6154 8 16.0576 8.60694 16.0576 9.35563C16.0576 10.1043 16.6154 10.7113 17.3035 10.7113Z" stroke="black" stroke-width="1.5" stroke-linecap="round" stroke-linejoin="round"/>
<path d="M17.3035 8.00012V6.9834" stroke="black" stroke-width="1.5" stroke-linecap="round" stroke-linejoin="round"/>
<path d="M16.225 8.6778L15.416 8.16943" stroke="black" stroke-width="1.5" stroke-linecap="round" stroke-linejoin="round"/>
<path d="M16.225 10.0334L15.416 10.5418" stroke="black" stroke-width="1.5" stroke-linecap="round" stroke-linejoin="round"/>
<path d="M17.3035 10.7114V11.7281" stroke="black" stroke-width="1.5" stroke-linecap="round" stroke-linejoin="round"/>
<path d="M18.3831 10.0334L19.1921 10.5418" stroke="black" stroke-width="1.5" stroke-linecap="round" stroke-linejoin="round"/>
<path d="M18.3831 8.6778L19.1921 8.16943" stroke="black" stroke-width="1.5" stroke-linecap="round" stroke-linejoin="round"/>
</svg>
