<svg width="21" height="16" viewBox="0 0 21 16" fill="none" xmlns="http://www.w3.org/2000/svg">
<path d="M16.005 6.57129C16.8119 6.57067 17.6078 6.76403 18.3295 7.13601C19.0512 7.50799 19.6789 8.04835 20.1625 8.71415" stroke="black" stroke-width="1.5" stroke-linecap="round" stroke-linejoin="round"/>
<path d="M0.760742 8.71439C1.2444 8.04859 1.87201 7.50824 2.59372 7.13625C3.31543 6.76427 4.11135 6.57091 4.91825 6.57153" stroke="black" stroke-width="1.5" stroke-linecap="round" stroke-linejoin="round"/>
<path d="M10.4617 12.2859C12.3751 12.2859 13.9263 10.6869 13.9263 8.7145C13.9263 6.74205 12.3751 5.14307 10.4617 5.14307C8.54822 5.14307 6.99707 6.74205 6.99707 8.7145C6.99707 10.6869 8.54822 12.2859 10.4617 12.2859Z" stroke="black" stroke-width="1.5" stroke-linecap="round" stroke-linejoin="round"/>
<path d="M5.61121 15.1428C6.10863 14.2727 6.81772 13.5514 7.66839 13.0503C8.51906 12.5492 9.48187 12.2856 10.4616 12.2856C11.4414 12.2856 12.4042 12.5492 13.2549 13.0503C14.1055 13.5514 14.8146 14.2727 15.3121 15.1428" stroke="black" stroke-width="1.5" stroke-linecap="round" stroke-linejoin="round"/>
<path d="M13.3198 3.00004C13.4494 2.48268 13.7171 2.01315 14.0926 1.64477C14.468 1.27639 14.9362 1.02392 15.4438 0.916028C15.9515 0.80814 16.4783 0.849158 16.9645 1.03442C17.4507 1.21969 17.8767 1.54178 18.1943 1.96412C18.5118 2.38645 18.708 2.89211 18.7608 3.42366C18.8135 3.9552 18.7206 4.49134 18.4926 4.97119C18.2646 5.45103 17.9106 5.85535 17.4708 6.13822C17.0311 6.4211 16.5232 6.57119 16.0049 6.57146" stroke="black" stroke-width="1.5" stroke-linecap="round" stroke-linejoin="round"/>
<path d="M4.91823 6.57146C4.39989 6.57119 3.89201 6.4211 3.45227 6.13822C3.01253 5.85535 2.65855 5.45103 2.43054 4.97119C2.20252 4.49134 2.1096 3.9552 2.16233 3.42366C2.21506 2.89211 2.41133 2.38645 2.72885 1.96412C3.04637 1.54178 3.47241 1.21969 3.95859 1.03442C4.44477 0.849158 4.97161 0.80814 5.47927 0.916028C5.98693 1.02392 6.45507 1.27639 6.83053 1.64477C7.20598 2.01315 7.4737 2.48268 7.60328 3.00004" stroke="black" stroke-width="1.5" stroke-linecap="round" stroke-linejoin="round"/>
</svg>
