<svg width="15" height="20" viewBox="0 0 15 20" fill="none" xmlns="http://www.w3.org/2000/svg">
<path d="M7.52144 10L1.99195 5.725C1.90159 5.65514 1.82825 5.56455 1.77774 5.46041C1.72723 5.35627 1.70093 5.24143 1.70093 5.125V1.75C1.70093 1.55109 1.77758 1.36032 1.91403 1.21967C2.05047 1.07902 2.23553 1 2.42849 1H12.6144C12.8074 1 12.9924 1.07902 13.1289 1.21967C13.2653 1.36032 13.342 1.55109 13.342 1.75V5.09125C13.3416 5.20689 13.3153 5.32088 13.2651 5.42432C13.215 5.52775 13.1423 5.61783 13.0527 5.6875L7.52144 10Z" stroke="black" stroke-width="1.5" stroke-linecap="round" stroke-linejoin="round"/>
<path d="M1.70093 4H13.342" stroke="black" stroke-width="1.5" stroke-linecap="round" stroke-linejoin="round"/>
<path d="M7.53336 10L1.99812 14.275C1.90766 14.3449 1.83424 14.4354 1.78368 14.5396C1.73311 14.6437 1.70679 14.7586 1.70679 14.875V18.25C1.70679 18.4489 1.78352 18.6397 1.92011 18.7803C2.05669 18.921 2.24195 19 2.43511 19H12.6316C12.8248 19 13.01 18.921 13.1466 18.7803C13.2832 18.6397 13.3599 18.4489 13.3599 18.25V14.9088C13.3599 14.7928 13.3337 14.6784 13.2834 14.5746C13.2332 14.4709 13.1603 14.3805 13.0704 14.3106L7.53336 10Z" stroke="black" stroke-width="1.5" stroke-linecap="round" stroke-linejoin="round"/>
</svg>
