<svg width="53" height="53" viewBox="0 0 53 53" fill="none" xmlns="http://www.w3.org/2000/svg">
<rect width="53" height="53" rx="10" fill="#FF7070" fill-opacity="0.4"/>
<path d="M33.5 21.8412V18.5C33.5 18.1022 33.342 17.7206 33.0607 17.4393C32.7794 17.158 32.3978 17 32 17H21.5C21.1022 17 20.7206 17.158 20.4393 17.4393C20.158 17.7206 20 18.1022 20 18.5V21.875C20.0005 22.1078 20.0549 22.3373 20.159 22.5455C20.2632 22.7537 20.4141 22.9349 20.6 23.075L25.5003 26.75L20.6 30.425C20.4141 30.5651 20.2632 30.7463 20.159 30.9545C20.0549 31.1627 20.0005 31.3922 20 31.625V35C20 35.3978 20.158 35.7794 20.4393 36.0607C20.7206 36.342 21.1022 36.5 21.5 36.5H32C32.3978 36.5 32.7794 36.342 33.0607 36.0607C33.342 35.7794 33.5 35.3978 33.5 35V31.6588C33.4995 31.4269 33.4455 31.1982 33.3422 30.9906C33.239 30.783 33.0893 30.6019 32.9047 30.4616L27.9941 26.75L32.9047 23.0375C33.0893 22.8974 33.2391 22.7166 33.3424 22.5091C33.4457 22.3016 33.4996 22.073 33.5 21.8412ZM21.5 18.5H32V21.8412L31.4591 22.25H21.9997L21.5 21.875V18.5ZM26.75 25.8125L24.0003 23.75H29.4753L26.75 25.8125ZM32 35H21.5V31.625L26 28.25V30.5C26 30.6989 26.079 30.8897 26.2197 31.0303C26.3603 31.171 26.5511 31.25 26.75 31.25C26.9489 31.25 27.1397 31.171 27.2803 31.0303C27.421 30.8897 27.5 30.6989 27.5 30.5V28.2575L32 31.6588V35Z" fill="#FF7070"/>
</svg>
