<svg width="47" height="53" viewBox="0 0 47 53" fill="none" xmlns="http://www.w3.org/2000/svg">
<rect width="47" height="53" rx="15" fill="#FFDED1"/>
<path d="M30.5 21.8412V18.5C30.5 18.1022 30.342 17.7206 30.0607 17.4393C29.7794 17.158 29.3978 17 29 17H18.5C18.1022 17 17.7206 17.158 17.4393 17.4393C17.158 17.7206 17 18.1022 17 18.5V21.875C17.0005 22.1078 17.0549 22.3373 17.159 22.5455C17.2632 22.7537 17.4141 22.9349 17.6 23.075L22.5003 26.75L17.6 30.425C17.4141 30.5651 17.2632 30.7463 17.159 30.9545C17.0549 31.1627 17.0005 31.3922 17 31.625V35C17 35.3978 17.158 35.7794 17.4393 36.0607C17.7206 36.342 18.1022 36.5 18.5 36.5H29C29.3978 36.5 29.7794 36.342 30.0607 36.0607C30.342 35.7794 30.5 35.3978 30.5 35V31.6588C30.4995 31.4269 30.4455 31.1982 30.3422 30.9906C30.239 30.783 30.0893 30.6019 29.9047 30.4616L24.9941 26.75L29.9047 23.0375C30.0893 22.8974 30.2391 22.7166 30.3424 22.5091C30.4457 22.3016 30.4996 22.073 30.5 21.8412ZM18.5 18.5H29V21.8412L28.4591 22.25H18.9997L18.5 21.875V18.5ZM23.75 25.8125L21.0003 23.75H26.4753L23.75 25.8125ZM29 35H18.5V31.625L23 28.25V30.5C23 30.6989 23.079 30.8897 23.2197 31.0303C23.3603 31.171 23.5511 31.25 23.75 31.25C23.9489 31.25 24.1397 31.171 24.2803 31.0303C24.421 30.8897 24.5 30.6989 24.5 30.5V28.2575L29 31.6588V35Z" fill="#FF9871"/>
</svg>
