<svg width="108" height="27" viewBox="0 0 108 27" fill="none" xmlns="http://www.w3.org/2000/svg">
<mask id="mask0_381_243" style="mask-type:luminance" maskUnits="userSpaceOnUse" x="0" y="0" width="108" height="27">
<path d="M0.25 0.25H107.75V25.8593H0.25V0.25Z" fill="white" stroke="white" stroke-width="0.5"/>
</mask>
<g mask="url(#mask0_381_243)">
<path d="M43.3582 17.2958C43.2118 17.2469 43.0667 17.199 42.9204 17.1522C41.5703 16.7265 40.2006 16.431 38.7499 16.6922C36.2628 17.1418 34.0241 18.3729 31.5736 18.9869C30.9737 19.1368 30.3594 19.3054 29.7399 19.3959C29.7177 19.3991 29.1753 19.4396 29.1753 19.4324C29.1204 18.1492 30.3019 17.0731 31.4886 16.3206C31.8989 16.0615 32.3198 15.7836 32.7628 15.5599C32.7824 15.5505 33.2307 15.3778 33.2281 15.3684C33.1654 15.1165 31.8049 15.1499 31.78 15.051C31.7722 15.0208 32.1433 14.8075 32.1682 14.7898C32.6687 14.4515 33.2189 14.1622 33.8123 13.9395C36.336 12.9966 39.2884 13.4681 41.782 14.2465C43.7463 14.8595 45.6531 15.6889 47.4763 16.5309C47.6932 16.6308 49.0877 17.4633 49.3622 17.3385C49.3857 17.3281 48.7754 16.7962 48.7427 16.7681C48.3049 16.3862 47.8592 16.0105 47.3927 15.6504C45.0062 13.8115 42.3231 12.3316 39.2831 11.2555C36.5399 10.2835 33.3719 9.25528 30.3777 10.0941C29.0067 10.4781 27.8357 11.1671 26.683 11.8529C26.6294 11.8841 25.7603 12.4742 25.708 12.4461C25.4531 12.3119 25.3042 11.8092 25.2336 11.6021C24.7082 10.0691 25.8936 9.58624 26.4033 8.30513C26.5798 7.8597 25.9394 7.28939 25.3604 7.43405C24.1685 7.73065 24.2299 9.7465 23.8287 10.5031C23.285 11.5344 21.6826 11.7291 20.4515 11.856C20.2528 11.8768 18.7185 12.1672 18.5747 12.0288C18.3931 11.855 18.7865 11.2774 18.8675 11.1265C19.3563 10.1971 19.9523 9.2886 20.7077 8.47789C20.9194 8.25101 21.1494 8.02934 21.4082 7.83473C21.5389 7.73378 22.0551 7.63283 21.8747 7.60265C18.6911 7.07397 14.8631 8.13445 14.1299 10.834C13.9129 11.6406 13.7639 12.4856 13.7848 13.312C13.7901 13.5243 13.9835 14.2496 13.8201 14.4443C13.4189 14.9251 12.3747 15.4048 11.865 15.8763C11.6389 16.0865 11.4297 16.305 11.2376 16.5371C11.15 16.6474 10.9958 16.8816 10.9958 16.8816C10.9958 16.8816 10.8247 16.6079 10.7449 16.4684C10.6038 16.2166 10.4874 15.9564 10.3894 15.6921C10.0744 14.8522 9.94897 13.9541 9.92153 13.0799C9.91368 12.7791 9.9281 12.4784 9.93333 12.1776C9.93333 12.1568 9.95553 11.8852 9.97121 11.7426C9.92547 11.8581 9.81045 12.0506 9.8026 12.0673C9.55037 12.5481 9.32169 13.0351 9.18315 13.544C8.94921 14.3974 8.98708 15.2758 9.08772 16.1396C9.09687 16.2187 9.3295 17.0793 9.30336 17.1095C9.12301 17.3281 8.49831 17.5268 8.233 17.6933C8.05395 17.8068 7.75203 18.0794 7.75203 18.0794C7.75203 18.0794 7.51812 17.7495 7.43055 17.5747C7.26327 17.251 7.16262 16.8962 7.11296 16.5496C7.08943 16.3789 7.07766 16.2072 7.08289 16.0355C7.0855 15.9366 7.22144 15.7181 7.09728 15.7378C6.88294 15.7722 6.79015 16.2707 6.76271 16.3852C6.57059 17.1719 6.70647 17.9837 7.01752 18.7403C7.95068 21.0371 12.5224 23.4942 15.3336 21.5096C15.5924 21.3264 16.0184 20.2618 15.4237 20.1338C14.9663 20.0349 14.454 20.1994 13.9456 20.0318C12.7288 19.629 12.5524 18.3906 13.4019 17.6507C16.2497 15.1644 20.6933 18.6248 19.9444 21.2463C19.1799 23.9428 15.5596 24.8586 12.5119 24.3705C11.4951 24.2082 10.5097 23.9064 9.54779 23.6004C9.23804 23.5005 8.92564 23.3995 8.62636 23.2798C8.58061 23.2611 8.50093 23.2361 8.42252 23.2122C8.53883 23.3506 8.63944 23.5837 8.65643 23.6326C8.77274 23.9521 8.59111 25.5611 7.89843 25.5507C7.61614 25.5465 6.95874 24.8617 6.73787 24.7275C5.43224 23.9313 3.98413 23.3766 2.90591 22.3547C-0.294769 19.3293 -0.229427 15.0718 1.416 11.5324C2.23676 9.76523 3.36725 8.02933 4.91074 6.59316C12.2583 -0.241162 25.8962 -0.0496638 35.1546 4.02262C41.1874 6.67746 45.2598 11.0422 50.1059 14.8127C54.4684 18.2075 59.4125 20.9965 65.4114 22.1892C66.006 22.3078 66.6203 22.3786 67.2372 22.4348C66.6713 22.1205 66.1315 21.7802 65.6309 21.4201C64.3031 20.471 63.1426 19.3325 61.6461 18.5415C59.9536 17.6465 57.8024 17.7204 56.1282 16.7099C54.7625 15.8888 54.6671 14.7669 54.0149 13.619C53.8359 13.3047 53.581 13.0466 53.236 12.8374C53.1968 12.8135 52.6465 12.5783 52.657 12.5595C52.7837 12.3503 53.4582 12.2619 53.6921 12.238C54.7899 12.1245 55.6878 12.6636 56.2393 13.3775C56.2837 13.4337 56.3896 13.5472 56.4811 13.6648C56.4785 13.6585 56.4759 13.6533 56.4732 13.6471C56.37 13.4046 56.2458 13.1663 56.1099 12.9332C55.7244 12.2671 55.1611 11.7134 54.339 11.3627C52.9419 10.7664 51.2495 11.0505 49.8014 10.4344C49.0002 10.0941 48.2147 9.64139 47.6096 9.0971C47.2776 8.79842 47.015 8.302 46.5628 8.10634C46.2949 7.99083 46.0609 8.13445 45.8322 8.08553C45.8243 8.08345 45.9145 7.78998 45.9197 7.77541C46.0334 7.47048 46.2073 7.16139 46.6124 7.04899C47.2502 6.87311 48.1337 7.34247 48.8015 7.34351C49.1257 7.34351 49.4158 7.24673 49.6824 7.10311C49.6929 7.09583 49.9451 6.93972 49.9268 6.93035C49.7177 6.82004 48.9976 6.87832 48.7532 6.8523C47.7939 6.75031 46.7863 6.65248 45.9119 6.29447C44.5749 5.74602 44.439 4.6793 43.515 3.86547C43.2301 3.6157 42.8798 3.45855 42.459 3.41172C42.3087 3.39506 41.7572 3.51892 41.88 3.36593C43.1111 1.84962 45.3878 1.38755 47.2149 2.48965C47.9402 2.92883 48.5624 3.36697 49.4511 3.58135C49.5622 3.60841 50.2091 3.78013 50.3176 3.69375C50.3202 3.69271 50.1359 3.58968 50.1307 3.58552C50.0157 3.51787 49.9046 3.44399 49.7961 3.36802C49.5008 3.15883 49.2067 2.94341 48.957 2.69572C48.4761 2.21387 48.0488 1.58945 48.1167 0.954617C48.1363 0.749598 48.2748 0.333315 48.6068 0.29793C48.6957 0.288564 49.0512 1.11593 49.1087 1.19398C49.4681 1.69768 50.0575 1.95889 50.7083 2.18785C51.8205 2.58124 52.8138 2.91947 53.7483 3.57095C55.1689 4.56066 56.1857 5.96978 57.0169 7.2998C59.3015 10.9558 60.2058 15.4641 63.9306 18.425C66.5549 20.5105 70.2731 22.2745 73.8698 23.2122C72.3028 22.5857 70.8495 21.7875 69.5726 20.803C67.5443 19.2377 65.9538 17.1563 64.9605 15.0593C63.3987 11.7592 63.1948 6.9085 67.2855 4.64704C68.6813 3.87588 70.4392 3.57303 72.0833 3.97162C74.3926 4.53048 76.438 6.53385 75.2774 8.48517C74.6305 9.56959 72.376 10.7664 71.1697 9.45823C71.0456 9.32398 70.9554 9.17203 70.9044 9.01072C70.792 8.64959 70.8953 8.2354 71.2926 8.01061C71.7082 7.77749 72.2701 7.89613 71.8663 7.65572C71.8009 7.61722 71.7356 7.57871 71.6703 7.54229C71.5526 7.47984 71.4285 7.4226 71.303 7.37161C69.2067 6.54425 67.3705 8.16567 66.7039 9.59976C66.5523 9.92342 66.4321 10.2575 66.3236 10.5926C66.2073 10.9444 66.1145 11.3024 66.0662 11.6645C66.0635 11.6833 66.0112 11.9455 66.0387 11.9538C66.0517 11.957 66.3406 11.7395 66.3641 11.727C66.7288 11.522 67.1365 11.3565 67.5574 11.2389C68.9506 10.8476 70.4771 11.012 71.6533 11.7291C71.9395 11.9039 72.3551 12.1505 72.5094 12.4253C72.6126 12.6064 71.831 13.0226 71.7056 13.1392C71.0338 13.7563 70.5319 14.5192 70.1699 15.2799C70.132 15.3611 69.7843 15.9783 69.8928 16.0626C69.902 16.0698 70.328 15.7202 70.3555 15.7004C70.643 15.4954 70.9724 15.3247 71.3174 15.1873C72.3434 14.7783 73.781 14.6357 74.8108 15.127C75.0827 15.257 74.718 15.3507 74.5795 15.5162C74.2972 15.8502 74.0829 16.2301 73.8947 16.6006C73.7235 16.9315 73.5875 17.2718 73.4895 17.6205C73.4202 17.8682 73.3706 18.12 73.3601 18.3729C73.3549 18.4874 73.3601 18.6008 73.3758 18.7143C73.3876 18.7965 73.4059 18.8777 73.4385 18.9568C73.7052 19.6134 73.8541 18.7517 74.045 18.4926C74.3508 18.0805 74.8618 17.5487 75.446 17.3718C75.7283 17.2854 75.5689 17.4561 75.5545 17.6548C75.5362 17.8921 75.5493 18.1336 75.5793 18.3698C75.6695 19.0671 76.0381 19.7019 76.5922 20.2452C78.1226 21.7396 80.6868 22.4265 82.936 22.9885C82.4904 22.6835 82.0878 22.3609 81.7781 21.9436C80.7757 20.5907 80.7077 18.1169 82.9243 17.4685C83.664 17.251 84.9291 17.4769 84.9892 18.2449C85.1069 19.6957 83.1674 19.4501 83.9241 20.7728C84.0274 20.9549 84.1659 21.1245 84.3188 21.2827C84.5632 21.5315 84.8586 21.7417 85.1631 21.9415C88.7036 24.2716 94.6201 24.8492 98.7866 23.3225C99.2754 23.1435 99.7406 22.926 100.175 22.67C100.453 22.5035 100.723 22.3255 100.968 22.1267C101.151 21.979 101.325 21.8208 101.458 21.6428C102.446 20.3451 99.9745 19.959 99.6204 18.937C99.5119 18.6237 99.6374 18.3688 99.9524 18.1721C100.121 18.068 100.607 18.0565 100.501 17.9088C99.8217 16.9648 98.9173 16.2207 98.4716 15.1478C98.3736 14.9136 98.0704 14.362 98.2376 14.1039C98.3736 13.8958 99.9902 14.3547 100.154 14.4214C101.484 14.9552 101.768 16.355 102.496 17.2791C102.622 17.4405 103.256 18.2158 103.614 17.9379C103.979 17.6538 103.584 16.8618 103.43 16.5683C102.818 15.3944 101.264 14.795 100.591 13.67C100.425 13.3963 102.216 13.1912 102.221 12.9862C102.226 12.8665 101.564 12.6553 101.466 12.6136C100.74 12.3025 99.6504 12.0548 99.0336 11.6177C99.0127 11.6031 100.436 11.0984 100.428 11.0318C100.381 10.526 98.1736 10.476 97.9933 10.0421C97.9554 9.95465 98.4938 9.64139 98.5565 9.6008C99.2139 9.16995 100.015 8.86607 100.887 8.90353C102.05 8.95349 103.237 9.50401 104.155 10.0358C104.289 10.1128 105.1 10.7799 105.258 10.7549C105.546 10.7081 104.891 10.3876 104.704 10.2065C104.323 9.83912 103.932 9.48009 103.511 9.13978C102.05 7.95961 100.33 7.07397 98.1814 7.09895C97.1267 7.1104 96.1165 7.40284 95.3023 7.94192C95.0213 8.13029 94.7769 8.34571 94.5377 8.56842C94.424 8.67145 94.326 8.98054 94.2044 8.88375C94.011 8.73077 94.2633 7.83161 94.2855 7.63075C94.3025 7.45695 94.5651 7.09062 94.3482 7.10935C93.419 7.19053 92.1526 8.15838 91.4312 8.5705C91.3005 8.64543 90.2549 9.32086 90.2549 9.20846C90.2458 8.5934 90.4248 7.96481 90.6077 7.37265C90.6404 7.27066 90.9633 6.72117 90.9123 6.63479C90.8679 6.55882 90.7568 6.74823 90.6757 6.80339C90.5045 6.92411 90.3437 7.05211 90.1921 7.18844C89.5609 7.74938 89.0538 8.39255 88.714 9.09606C87.8005 10.9808 87.7795 13.4316 89.5583 15.0177C90.5555 15.9075 92.5094 16.1167 93.2504 14.8793C93.568 14.3464 93.4268 13.6856 93.0361 13.2006C92.908 13.0414 92.7512 12.8957 92.5878 12.7594C92.5041 12.6907 92.1944 12.6698 92.2859 12.6053C92.4545 12.4825 93.0766 12.5762 93.2674 12.5918C94.6606 12.7084 95.5467 13.5305 95.7963 14.6004C96.2929 16.7255 93.2151 17.94 90.958 17.762C88.5271 17.5705 86.4099 15.8523 85.4898 14.1372C82.9596 9.40828 88.4918 4.46179 94.1613 3.5928C101.061 2.5344 107.437 7.07606 107.712 12.5075C107.879 15.8492 106.483 19.7373 103.335 22.0539C101.033 23.7471 97.9671 24.7212 94.9533 25.2811C90.6705 26.0762 86.2909 25.713 81.9493 25.5444C77.0156 25.3519 72.146 25.2582 67.2372 24.741C64.0313 24.4028 60.858 24.0031 57.7018 23.437C52.9694 22.5867 48.3585 21.3639 43.613 20.5418C41.9611 20.2556 40.2751 19.9891 38.5879 19.8913C38.0468 19.8601 37.5057 19.8507 36.9634 19.8684C36.9085 19.8705 36.2053 19.9329 36.2406 19.8507C36.4223 19.4355 37.754 18.9672 38.1775 18.785C39.7863 18.094 41.5402 17.5237 43.3582 17.2958Z" stroke="#FF6842" stroke-width="0.5" stroke-miterlimit="1.5" stroke-linecap="round" stroke-linejoin="round"/>
</g>
</svg>
