<svg width="20" height="18" viewBox="0 0 20 18" fill="none" xmlns="http://www.w3.org/2000/svg">
<path d="M10 4.87506C9.18419 4.87506 8.38667 5.11699 7.70831 5.57025C7.02996 6.02351 6.50125 6.66775 6.18904 7.4215C5.87683 8.17524 5.79514 9.00464 5.9543 9.80481C6.11347 10.605 6.50633 11.34 7.08323 11.9169C7.66012 12.4938 8.39512 12.8866 9.19529 13.0458C9.99547 13.205 10.8249 13.1233 11.5786 12.8111C12.3324 12.4989 12.9766 11.9701 13.4299 11.2918C13.8831 10.6134 14.125 9.81591 14.125 9.00006C14.1239 7.9064 13.6889 6.85785 12.9156 6.08451C12.1423 5.31116 11.0937 4.8762 10 4.87506ZM10 11.7501C9.45614 11.7501 8.92446 11.5888 8.47222 11.2866C8.01999 10.9844 7.66751 10.5549 7.45937 10.0524C7.25123 9.54995 7.19677 8.99701 7.30288 8.46357C7.40899 7.93012 7.6709 7.44012 8.0555 7.05552C8.44009 6.67093 8.93009 6.40901 9.46354 6.30291C9.99699 6.1968 10.5499 6.25126 11.0524 6.4594C11.5549 6.66754 11.9844 7.02001 12.2866 7.47225C12.5888 7.92448 12.75 8.45617 12.75 9.00006C12.75 9.72941 12.4603 10.4289 11.9446 10.9446C11.4289 11.4603 10.7294 11.7501 10 11.7501ZM19.448 7.21342C19.4289 7.11661 19.3891 7.02506 19.3314 6.94498C19.2737 6.86491 19.1995 6.79819 19.1137 6.74936L16.5502 5.28842L16.5399 2.39921C16.5396 2.2997 16.5177 2.20145 16.4757 2.11124C16.4337 2.02103 16.3726 1.94101 16.2967 1.87671C15.3668 1.09012 14.2959 0.487325 13.1411 0.100377C13.0501 0.0695945 12.9537 0.0582026 12.8581 0.0669353C12.7625 0.0756681 12.6698 0.104332 12.5859 0.151081L10 1.59655L7.4116 0.148502C7.32769 0.101491 7.23484 0.0726102 7.13907 0.0637284C7.04329 0.0548465 6.94672 0.0661608 6.85559 0.0969399C5.70157 0.486716 4.63195 1.09181 3.7034 1.88014C3.62758 1.94435 3.56657 2.02424 3.52459 2.11429C3.4826 2.20434 3.46063 2.30243 3.4602 2.40178L3.44731 5.29358L0.883792 6.75452C0.798027 6.80334 0.72378 6.87006 0.666096 6.95014C0.608412 7.03021 0.568644 7.12177 0.549495 7.21858C0.314882 8.39754 0.314882 9.61118 0.549495 10.7901C0.568644 10.887 0.608412 10.9785 0.666096 11.0586C0.72378 11.1387 0.798027 11.2054 0.883792 11.2542L3.44731 12.7151L3.45762 15.6044C3.45793 15.7039 3.47984 15.8021 3.52183 15.8923C3.56382 15.9825 3.62489 16.0626 3.70082 16.1269C4.63073 16.9134 5.70158 17.5162 6.85645 17.9032C6.94739 17.934 7.04378 17.9454 7.1394 17.9366C7.23501 17.9279 7.32774 17.8992 7.4116 17.8525L10 16.4036L12.5885 17.8516C12.6909 17.9087 12.8064 17.9383 12.9236 17.9376C12.9987 17.9375 13.0733 17.9254 13.1445 17.9015C14.2984 17.5122 15.368 16.9077 16.2967 16.12C16.3725 16.0558 16.4335 15.9759 16.4755 15.8858C16.5175 15.7958 16.5394 15.6977 16.5399 15.5983L16.5528 12.7065L19.1163 11.2456C19.2021 11.1968 19.2763 11.1301 19.334 11.05C19.3917 10.9699 19.4314 10.8784 19.4506 10.7815C19.6839 9.60353 19.683 8.39111 19.448 7.21342ZM18.1589 10.2135L15.7037 11.61C15.5961 11.6712 15.5071 11.7602 15.4459 11.8678C15.3961 11.9537 15.3436 12.0448 15.2904 12.1308C15.2222 12.2391 15.1858 12.3645 15.1855 12.4926L15.1726 15.264C14.5127 15.7823 13.7775 16.1967 12.9924 16.493L10.5157 15.1128C10.4128 15.0559 10.2972 15.0263 10.1797 15.0269H10.1633C10.0593 15.0269 9.95449 15.0269 9.85051 15.0269C9.72752 15.0238 9.60593 15.0534 9.49817 15.1128L7.01973 16.4964C6.23298 16.2024 5.49573 15.79 4.83348 15.2735L4.82403 12.5063C4.8236 12.378 4.78728 12.2524 4.71918 12.1437C4.6659 12.0577 4.61348 11.9718 4.56449 11.8807C4.50376 11.7715 4.4147 11.6806 4.30668 11.6177L1.84887 10.2178C1.72168 9.41326 1.72168 8.59374 1.84887 7.78921L4.29981 6.39014C4.40738 6.32897 4.49645 6.2399 4.55762 6.13233C4.60746 6.04639 4.65989 5.9553 4.71317 5.86936C4.78137 5.76099 4.8177 5.63561 4.81801 5.50757L4.8309 2.73608C5.49084 2.21783 6.22606 1.80342 7.01114 1.50717L9.48442 2.88733C9.59206 2.947 9.71374 2.97668 9.83676 2.97327C9.94074 2.97327 10.0456 2.97327 10.1496 2.97327C10.2726 2.97634 10.3942 2.94668 10.5019 2.88733L12.9804 1.50374C13.7671 1.79771 14.5043 2.21009 15.1666 2.72663L15.1761 5.49381C15.1765 5.62211 15.2128 5.74774 15.2809 5.85647C15.3342 5.94241 15.3866 6.02835 15.4356 6.11944C15.4963 6.22868 15.5854 6.31952 15.6934 6.38241L18.1512 7.78233C18.2801 8.58748 18.2815 9.4079 18.1555 10.2135H18.1589Z" fill="black"/>
</svg>
