<svg width="204" height="97" viewBox="0 0 204 97" fill="none" xmlns="http://www.w3.org/2000/svg">
<g opacity="0.5">
<mask id="mask0_277_20799" style="mask-type:luminance" maskUnits="userSpaceOnUse" x="0" y="0" width="204" height="97">
<path d="M0 0H204V96.4885H0V0Z" fill="white"/>
</mask>
<g mask="url(#mask0_277_20799)">
<path d="M154.291 46.0589C154.617 45.9652 154.937 45.8468 155.27 45.79C155.907 45.6815 156.26 45.9356 156.435 46.5597C156.904 48.2398 156.805 49.8657 155.988 51.4249C155.976 51.4495 155.988 51.4866 155.988 51.5384C156.39 51.7505 156.76 51.494 157.14 51.4249C157.779 51.3114 157.925 51.3953 157.962 52.0318C158.048 53.5565 157.523 54.8838 156.615 56.0803C156.289 56.5096 155.976 56.9438 155.515 57.563C156.07 57.489 156.385 57.4495 156.768 57.4002C156.842 57.7308 156.916 58.0688 157.022 58.5523C157.917 57.0696 159.129 56.0729 160.35 55.0885C161.793 53.9191 162.689 52.3969 163.242 50.6502C163.34 50.3418 163.478 50.0408 163.624 49.6708C164.956 50.6058 165.679 51.8936 166.436 53.1148C166.836 53.1741 166.873 52.9471 166.893 52.6732C166.942 51.9948 166.935 51.3015 167.075 50.6379C167.89 46.841 169.617 43.5548 172.715 41.1173C174.188 39.9602 175.91 39.2349 177.714 38.7514C178.789 38.4627 179.894 38.2875 180.99 38.105C183.42 37.693 185.749 38.1667 188.014 39.0129C189.198 39.452 190.357 39.9701 191.49 40.5351C193.496 41.5392 195.055 43.0861 196.33 44.9018C198.647 48.2053 200.672 51.6815 202.012 55.4956C203.584 59.9734 204.297 64.5844 203.571 69.3287C202.982 73.1921 201.58 76.7176 199.066 79.7694C196.982 82.2982 194.759 84.6864 192.255 86.8081C190.996 87.8739 189.519 88.5918 188.07 89.3566C186.072 90.4101 184.071 91.4487 181.927 92.179C179.867 92.8772 177.763 93.3706 175.597 93.6148C171.982 94.0268 168.413 93.7086 164.84 93.156C162.109 92.7267 159.447 92.0384 156.802 91.2489C154.962 90.7012 153.102 90.2275 151.256 89.6897C150.694 89.5268 150.089 89.3764 149.628 89.0433C148.093 87.9405 146.226 87.7727 144.541 87.1066C142.557 86.3196 140.554 85.5819 138.561 84.8295C138.035 84.6296 137.502 84.4545 136.94 84.3262C138.792 86.105 140.436 88.1083 142.72 89.3689C143.179 89.6206 143.66 89.85 144.156 90.0153C144.524 90.1387 144.837 90.341 144.8 90.6963C144.763 91.0713 144.622 91.4907 144.134 91.5992C143.441 91.7546 142.762 92.0038 142.061 92.0729C140.053 92.2604 138.087 91.9224 136.187 91.3278C134.781 90.8887 133.439 90.2522 132.001 89.6823C132.079 90.1189 132.163 90.5852 132.237 91.054C132.287 91.3599 132.351 91.6683 132.356 91.9791C132.361 92.48 132.161 92.6551 131.672 92.6329C131.549 92.6305 131.423 92.6058 131.305 92.5688C129.825 92.1321 128.342 91.693 126.857 91.2538C124.868 90.6642 123.42 89.3764 122.268 87.7037C122.236 87.6592 122.172 87.6346 122.142 87.6173C121.621 88.2094 121.135 88.841 120.57 89.3739C119.788 90.114 118.843 90.5606 117.751 90.6592C117.008 90.7234 116.273 90.864 115.53 90.9035C114.61 90.9528 113.771 91.1897 112.987 91.6856C112.375 92.0729 112.116 91.9372 111.985 91.2242C111.867 90.5902 111.765 89.9561 111.647 89.2629C111.504 89.3122 111.41 89.3171 111.363 89.364C109.898 90.8541 108.134 91.9347 106.387 93.0449C105.558 93.5754 104.739 94.1354 103.962 94.7472C103.505 95.105 103.123 95.5639 102.736 96.0005C102.358 96.4273 101.828 96.5507 101.552 96.1461C100.683 94.8731 99.3904 94.1206 98.1568 93.3064C96.2547 92.0482 94.2687 90.9232 92.5392 89.1074C92.3961 89.8772 92.2604 90.4915 92.1691 91.1107C92.0409 91.9298 91.7966 92.0803 91.0984 91.6486C90.3657 91.1971 89.5861 90.9652 88.7275 90.9208C87.9553 90.8788 87.1856 90.753 86.4159 90.6642C84.5828 90.4471 83.2802 89.443 82.3205 87.9282C82.244 87.8048 82.17 87.6839 82.1256 87.6099C81.2941 88.4438 80.5343 89.2826 79.6955 90.0326C78.8517 90.7851 77.7736 91.1477 76.7152 91.4857C75.5384 91.8607 74.3369 92.1617 73.1453 92.4923C72.9652 92.5392 72.7876 92.5984 72.6025 92.6181C72.0006 92.6897 71.7736 92.5194 71.8229 91.9125C71.8821 91.1798 72.0252 90.4569 72.1511 89.6206C71.9191 89.702 71.7242 89.7439 71.5565 89.8328C68.3418 91.5721 64.9348 92.4134 61.2711 91.9668C60.8468 91.9125 60.4471 91.7053 60.0277 91.6091C59.5318 91.4907 59.4085 91.0713 59.3739 90.7012C59.3369 90.3459 59.6453 90.1535 60.0129 90.0203C62.2506 89.2012 63.9652 87.6395 65.6058 85.9865C65.8895 85.7004 66.1905 85.429 66.4446 85.1181C66.5631 84.9775 66.5902 84.7604 66.7037 84.4545C66.4002 84.5162 66.2251 84.5236 66.0696 84.5852C64.4364 85.2415 62.8254 85.9545 61.1724 86.549C59.4874 87.1584 57.7481 87.6222 56.0507 88.2168C55.4808 88.4166 55.0047 88.8854 54.4348 89.0926C53.0705 89.5935 51.6913 90.0523 50.2999 90.4569C48.04 91.1157 45.7851 91.804 43.4932 92.3171C41.2284 92.8254 38.9241 93.2004 36.6247 93.5137C33.5359 93.9356 30.4298 93.9652 27.3435 93.452C24.8024 93.0277 22.3353 92.3566 19.9792 91.2662C17.6182 90.1757 15.2571 89.0803 13.1034 87.6272C11.8624 86.7884 10.7374 85.7497 9.65188 84.7086C7.46602 82.6165 5.40845 80.406 3.72836 77.8648C2.43313 75.9035 1.56224 73.7694 1.02934 71.4948C0.33362 68.5342 0.089376 65.5342 0.50385 62.5219C0.735757 60.8369 1.09102 59.1592 1.5351 57.5186C2.77112 52.9545 5.0754 48.9035 7.74234 45.0449C9.47178 42.5408 11.7267 40.7127 14.5984 39.6099C16.165 39.0079 17.7193 38.4331 19.3797 38.1494C22.091 37.688 24.6815 38.1889 27.2497 39.0079C28.7349 39.4792 30.1412 40.1329 31.3821 41.0606C33.4619 42.6148 34.8978 44.6798 35.9364 47.0408C36.4989 48.3188 37.0121 49.6214 37.1626 51.0203C37.2489 51.8122 37.2563 52.614 37.3007 53.4282C37.7201 53.4405 37.7695 53.0778 37.9076 52.8336C38.5787 51.6494 39.3484 50.5441 40.5252 49.6412C40.7818 50.2925 41.0384 50.8821 41.2506 51.489C41.7785 53.0285 42.7506 54.2694 43.9964 55.2538C45.1609 56.179 46.2489 57.156 47.1593 58.5474C47.2333 58.0935 47.2826 57.7826 47.3443 57.3953C47.707 57.4545 48.0548 57.5063 48.4052 57.5581C48.6346 57.188 48.2991 57.0301 48.1486 56.8476C47.5269 56.0729 46.8805 55.3032 46.6066 54.3311C46.3994 53.5935 46.2563 52.8237 46.207 52.0639C46.1626 51.4051 46.4043 51.2867 47.0779 51.4323C47.4011 51.5014 47.7292 51.5581 48.1165 51.637C48.1165 51.4372 48.1585 51.3015 48.114 51.2176C47.2999 49.7053 47.2629 48.1387 47.7464 46.5301C47.9389 45.8912 48.2719 45.6642 48.9159 45.7851C49.2983 45.8591 49.6634 45.9972 50.068 46.1107C49.4315 42.3953 51.1979 39.8961 53.9759 37.9051C54.4076 37.5968 54.9553 37.318 55.5696 37.7176C55.6757 39.0326 56.5935 39.8961 57.4668 40.762C58.1872 41.475 58.994 42.1066 59.7119 42.827C60.7703 43.9002 61.4413 45.2028 61.8879 46.7398C62.0877 46.3476 62.3443 45.9775 62.4751 45.5655C62.6083 45.1387 62.6206 44.6749 62.6897 44.2037C64.4364 44.9833 65.0606 46.3846 65.1617 49.6461C65.6996 49.3032 66.3632 49.2834 66.6716 48.6C66.8073 48.2991 67.2538 48.114 67.54 48.415C68.369 49.2859 69.2201 48.9454 70.091 48.5532C70.2218 48.4964 70.3525 48.4323 70.5918 48.3188C69.6938 47.8796 68.8698 47.5663 68.1371 47.105C66.4323 46.0268 65.0285 44.6379 64.3476 42.6889C63.6519 40.6905 64.1206 39.2078 65.5639 38.2382C67.0071 37.2711 69.3632 37.1527 70.577 38.6058C71.0483 39.1708 71.5318 39.7283 72.0129 40.2908C72.1239 40.4216 72.2374 40.5474 72.4496 40.7867C72.758 39.4076 73.6461 38.9561 74.9364 38.8698C74.6305 38.5959 74.3122 38.3369 74.0162 38.0507C73.3451 37.4117 73.429 37.0491 74.3172 36.7826C74.406 36.753 74.5047 36.7579 74.591 36.7283C74.6379 36.7111 74.6749 36.6667 74.7662 36.5976C74.1297 35.8007 73.6288 34.9372 73.4339 33.9109C73.1971 32.6749 73.207 32.6157 74.3492 32.0926C74.4035 32.068 74.4405 32.0112 74.5293 31.9249C74.4405 31.7571 74.3295 31.5819 74.2481 31.3944C73.9915 30.8048 73.6782 30.2275 73.5104 29.6132C73.1601 28.3303 72.9159 27.0203 72.5779 25.7324C72.3706 24.9479 72.0006 24.2522 71.2185 23.8402C70.8608 23.6527 70.841 23.3468 71.0729 22.9767C71.6058 22.1305 72.3386 21.5186 73.2292 21.1288C74.1099 20.7464 75.0376 20.4282 76.0219 20.5417C77.7119 20.7415 79.4512 20.7982 80.8871 21.8813C81.489 22.3377 82.0071 22.9027 82.5894 23.4405C82.6535 23.2135 82.7349 22.9125 82.8534 22.4833C83.2851 22.6239 83.6971 22.7127 84.0721 22.8829C84.4545 23.0532 84.795 23.3073 85.3007 23.6083C85.3007 23.2974 85.3254 23.1074 85.2958 22.9249C85.0121 21.1979 84.869 19.4808 85.2341 17.7415C85.4216 16.8533 85.6264 15.975 86.1839 15.2497C86.4726 14.8772 86.8994 14.6083 87.3287 14.3764C87.5063 14.5836 87.6247 14.7045 87.7481 14.8722C87.8122 14.9808 87.8739 15.0474 87.9578 15.1683C88.0614 15.267 88.133 15.304 88.207 15.3361C88.1946 15.1732 88.1774 15.0104 88.17 14.7908C88.1132 14.6477 88.0491 14.5589 87.98 14.4232C87.8937 14.2826 87.8122 14.1889 87.7358 14.0951C87.642 13.9718 87.5384 13.8583 87.4545 13.7275C87.1165 13.2267 87.1782 12.8443 87.7234 12.605C88.3328 12.3361 88.9816 12.156 89.6552 11.9241C89.1149 10.915 88.3895 9.86895 89.3517 8.66501C90.5927 8.85991 91.8015 9.04741 93.0672 9.24478C93.0672 8.90432 93.0647 8.57372 93.0672 8.24066C93.1165 5.0655 95.3912 2.26534 98.5071 1.40925C98.7415 1.34511 99.0721 1.38458 99.2793 1.50794C99.5803 1.6905 99.4052 1.97175 99.2966 2.24313C99.1264 2.67241 99.0277 3.13129 98.9043 3.55563C99.1782 3.88376 99.3484 3.71353 99.4915 3.47668C99.8616 2.86978 100.219 2.25547 100.592 1.65349C100.755 1.39445 100.905 1.1132 101.12 0.901027C101.971 0.0449416 102.178 -0.130222 103.005 0.9331C103.774 1.92241 104.349 3.06715 105.008 4.14034C105.097 4.28836 105.198 4.42652 105.378 4.6905C105.479 3.70119 105.02 3.00053 104.845 2.24067C104.796 2.02109 104.697 1.67817 104.796 1.59182C104.971 1.43886 105.314 1.32784 105.529 1.39445C107.825 2.0359 109.525 3.41254 110.475 5.628C110.714 6.18803 110.875 6.79988 110.978 7.40185C111.084 8.00382 111.084 8.628 111.131 9.24478C112.316 9.06221 113.495 8.87471 114.684 8.69215C115.542 9.51863 115.51 10.0713 114.469 11.9685C115.074 12.156 115.698 12.2941 116.28 12.5384C117.02 12.8492 117.082 13.2686 116.556 13.8903C116.438 14.0334 116.32 14.1765 116.132 14.4282C116.006 14.7464 115.955 14.9611 115.893 15.2053C116.344 15.2102 116.389 14.929 116.47 14.6773C116.611 14.5614 116.744 14.4454 116.902 14.3147C117.62 14.5614 118.015 15.1609 118.298 15.8122C119.024 17.4652 119.248 19.2045 119.075 20.9956C118.994 21.8542 118.873 22.7078 118.76 23.6601C119.65 23.2826 120.262 22.3994 121.365 22.6387C121.404 22.8755 121.454 23.1272 121.52 23.4849C121.691 23.364 121.799 23.3147 121.856 23.2333C122.682 22.0762 123.802 21.3484 125.167 21.0104C125.949 20.8204 126.746 20.6576 127.545 20.591C129.709 20.4134 131.593 20.9907 132.933 22.8213C133.394 23.4528 133.365 23.4824 132.701 23.9611C131.838 24.5852 131.547 25.5548 131.292 26.5071C131.036 27.4643 130.89 28.4487 130.703 29.4208C130.56 30.1584 130.325 30.8492 129.849 31.4487C129.738 31.5869 129.681 31.762 129.595 31.9298C129.714 32.0186 129.775 32.0828 129.852 32.1198C130.915 32.6132 130.927 32.628 130.732 33.7974C130.597 34.5992 130.308 35.3393 129.815 36.0005C129.674 36.1905 129.556 36.3977 129.388 36.6518C129.669 36.7357 129.906 36.7777 130.116 36.8739C130.646 37.1181 130.708 37.4438 130.291 37.8731C129.958 38.2185 129.588 38.5318 129.188 38.9018C129.775 39.0573 130.372 39.0721 130.789 39.3583C131.211 39.6469 131.453 40.1971 131.806 40.6782C131.885 40.5869 132.01 40.4413 132.141 40.2908C132.62 39.7283 133.101 39.1658 133.582 38.6009C135.21 36.6716 138.881 37.4561 139.851 39.7037C140.258 40.6535 140.184 41.6625 139.841 42.6198C139.145 44.5565 137.791 45.9775 136.089 47.0606C135.339 47.5367 134.497 47.8624 133.71 48.2448C134.492 49.0342 135.526 49.165 136.427 48.5532C136.945 48.2053 137.204 48.151 137.436 48.5828C137.786 49.2292 138.454 49.2662 139.049 49.7423C138.894 47.4183 139.251 45.4397 141.435 44.137C141.536 44.7069 141.573 45.1683 141.704 45.6C141.825 45.9948 142.044 46.3599 142.402 46.7152C142.52 46.3229 142.621 45.9257 142.757 45.5384C143.31 43.8928 144.487 42.7259 145.75 41.6083C146.367 41.0606 146.949 40.466 147.519 39.8665C148.017 39.3509 148.427 38.7588 148.538 38.026C148.607 37.5597 148.915 37.4734 149.275 37.5597C149.628 37.6436 150.003 37.767 150.297 37.9742C152.295 39.4076 153.805 41.1938 154.16 43.7226C154.249 44.3492 154.128 45.0079 154.069 45.7703C154.123 45.9528 154.204 46.0071 154.291 46.0589ZM121.987 36.7333C121.937 36.679 121.89 36.6272 121.846 36.5778C121.861 36.6593 121.88 36.7407 121.979 36.8295C121.996 36.8147 122.009 36.7925 122.024 36.7777C121.999 36.7851 121.972 36.7925 121.947 36.8048C121.922 36.8097 121.898 36.8221 121.987 36.7333ZM138.511 54.7555C138.237 54.8073 137.966 54.8936 137.692 54.906C136.903 54.9504 136.614 54.5433 136.883 53.8056C137.061 53.3122 137.273 52.8237 137.386 52.3155C137.63 51.2374 137.704 50.1592 137.167 49.0145C136.419 50.0236 135.511 50.2283 134.465 49.8805C134.053 49.7472 133.654 49.577 133.259 49.3969C131.917 48.7826 130.52 48.3139 129.042 48.5433C127.829 48.7283 126.627 49.0713 125.46 49.4611C124.434 49.804 123.815 50.5787 123.538 51.6592C123.205 52.9742 123.23 54.3015 123.265 55.6387C123.287 56.3862 123.615 57.0005 124.027 57.5951C125.004 59.0038 126.477 59.5293 128.058 59.8056C129.035 59.9783 130.338 59.1741 130.723 58.3032C131.253 57.1066 130.735 55.7398 129.931 55.1132C128.954 54.3509 128.098 54.5803 127.673 55.7472C127.483 56.2801 127.434 56.8673 127.32 57.4372C126.963 57.4076 126.889 57.1239 126.827 56.855C126.64 56.0482 127.158 54.6395 127.858 54.2127C128.663 53.7193 129.558 53.744 130.345 54.2078C131.579 54.938 132.368 56.4306 132.156 57.9183C131.966 59.253 130.779 60.6938 129.487 60.9454C127.291 61.3747 125.305 60.9257 123.677 59.2925C123.403 59.0211 123.126 58.7596 122.845 58.4882C122.63 59.6305 122.436 60.6765 122.231 61.7645C123.982 62.7291 125.848 63.531 127.858 63.7185C130.871 63.9997 133.629 63.2127 135.894 61.1132C137.69 59.443 138.689 57.3731 138.862 54.8517C138.792 54.8147 138.723 54.7777 138.511 54.7555ZM61.6437 62.9092C61.6437 62.9092 61.7053 62.9783 61.6437 63.1165C61.4858 63.6741 61.4413 64.2464 61.7744 64.7349C62.7242 66.1288 63.8344 67.1181 65.8328 66.3731C67.0219 65.9339 67.9348 65.2012 68.3542 63.9578C68.6182 63.1782 68.5367 62.9537 67.9249 62.4356C66.5507 61.281 65.5367 59.8624 64.9619 58.1527C64.5968 57.0573 64.4043 56.9117 63.2325 56.8747C62.0261 56.8352 60.8986 57.1436 59.8007 57.5926C57.415 58.5647 56.3196 60.9627 56.3937 63.0671C56.4331 64.2834 56.8649 65.4331 57.4545 66.4989C59.0606 69.4125 61.5548 71.2382 64.6609 72.2719C66.8024 72.9874 69.0252 73.1872 71.2678 73.1231C72.3509 73.0885 73.4389 72.9997 74.5121 72.8492C75.9529 72.6494 77.4183 72.4915 78.8122 72.0918C81.5384 71.3073 84.3065 70.6017 86.7983 69.1609C87.7481 68.6157 88.7966 68.2283 89.6527 67.3772C87.6124 67.0564 85.9027 66.2127 84.4915 64.8583C84.3731 64.8953 84.304 64.8977 84.2571 64.9347C82.5598 66.2053 80.6724 67.1009 78.6765 67.7842C78.3484 67.9002 77.9364 68.0852 77.6108 67.7324C78.6889 67.1798 79.7448 66.6814 80.7489 66.1041C81.7826 65.5145 82.8657 64.9767 83.7168 64.1009C83.2456 63.494 82.8139 62.9438 82.3772 62.3862C78.494 65.2333 74.3937 65.6724 70.0145 63.8245C69.4619 66.4816 67.6733 67.6757 65.1741 68.1222C66.0055 68.6921 66.864 68.8303 67.7177 68.9413C68.5762 69.0523 69.4397 69.1412 70.3032 69.1856C71.1297 69.2275 71.9611 69.193 72.79 69.193C70.8484 69.4939 68.9117 69.679 66.9578 69.4125C64.3673 69.0671 62.5318 67.656 61.2538 65.4528C61.0417 65.0902 60.9035 64.6264 60.9109 64.2119C60.9208 63.6987 60.9085 63.0721 61.6437 62.9092ZM126.783 37.8509C126.783 37.8509 126.714 37.7917 126.775 37.6806C127.101 37.3969 127.382 37.0219 127.76 36.8517C128.537 36.4964 129.055 35.8895 129.437 35.1987C129.812 34.5252 130.301 33.8418 130.133 32.9413C129.311 32.7686 128.529 32.5959 127.584 32.3936C127.922 32.1864 128.09 32.0112 128.285 31.9742C128.813 31.8731 129.062 31.5005 129.242 31.0614C129.408 30.6617 129.575 30.2596 129.674 29.8451C129.869 29.031 129.97 28.1971 130.19 27.3903C130.597 25.9051 130.942 24.378 132.136 23.2653C129.442 20.6847 125.717 21.3237 123.351 22.7818C122.357 23.3912 121.678 24.341 121.765 25.6362C121.787 26.0063 121.661 26.2826 121.271 26.4257C120.477 25.5696 120.802 24.4545 120.615 23.401C118.88 24.7061 118.666 26.4775 118.809 28.3056C118.271 28.5252 117.97 28.429 117.822 27.9726C117.677 27.5211 117.533 27.0671 117.42 26.7094C117.02 27.0721 116.593 27.4594 116.199 27.8171C116.65 28.2859 117.156 28.6954 117.516 29.2061C118.335 30.3484 117.945 31.9545 116.737 32.6527C116.041 33.0573 115.047 32.8402 114.615 32.1C114.427 31.7793 114.366 31.3303 114.39 30.9479C114.413 30.6296 114.422 30.1905 114.936 30.0893C114.921 30.4101 114.896 30.716 114.891 31.0219C114.884 31.4808 115.121 31.7867 115.547 31.9298C115.974 32.0704 116.344 31.9249 116.643 31.6066C117.099 31.1157 117.126 30.0227 116.68 29.5268C115.547 28.2785 113.357 28.4734 112.612 29.9068C112.103 30.8862 111.667 31.9372 111.41 33.003C111.119 34.2292 111.015 35.512 110.909 36.7727C110.85 37.5425 110.643 38.2579 110.194 38.8402C108.378 41.1987 106.017 42.4643 102.975 42.2719C102.484 42.2398 101.978 42.1905 101.49 42.2448C98.5589 42.5655 96.2349 41.401 94.3057 39.3065C93.716 38.6625 93.2917 37.8805 93.2843 36.9775C93.2596 34.6535 92.7588 32.4578 91.7843 30.3336C91.0886 28.8139 89.7859 28.5178 88.6881 28.7991C87.4693 29.1074 86.7736 30.1412 87.3608 31.35C87.6001 31.8484 88.1256 32.0754 88.5968 31.9372C89.0458 31.8065 89.3196 31.3994 89.295 30.8616C89.2826 30.5976 89.2284 30.3336 89.1913 30.0326C89.6798 30.1979 89.7835 30.5655 89.7662 30.9405C89.7489 31.3303 89.7267 31.7694 89.5392 32.0926C89.1223 32.8032 88.1774 33.0326 87.5038 32.6872C86.2284 32.026 85.7941 30.3657 86.6428 29.1938C87.0104 28.6856 87.5113 28.2736 87.9109 27.8591C87.5729 27.4643 87.2226 27.0523 86.8032 26.5639C86.628 27.1091 86.5096 27.5162 86.3665 27.9183C86.2086 28.3796 85.92 28.5622 85.508 28.3426C85.3821 27.3706 85.3575 26.4282 85.1206 25.5449C84.8862 24.6617 84.3756 23.892 83.48 23.364C83.3739 24.4495 83.6798 25.5375 82.7769 26.5762C82.6214 26.1518 82.4956 25.9002 82.4339 25.6313C82.3525 25.2736 82.4068 24.8665 82.2588 24.5433C81.8517 23.6157 81.23 22.8435 80.2728 22.4438C79.5943 22.1576 78.8764 21.9504 78.1634 21.7555C75.864 21.1239 73.8361 21.6741 72.0178 23.2333C72.8196 24.0597 73.3402 25.0244 73.5968 26.1321C73.8805 27.3706 74.1667 28.6066 74.48 29.8328C74.7292 30.7925 74.9734 31.7744 76.1206 32.0951C76.2514 32.1321 76.3575 32.2678 76.5326 32.401C75.6149 32.5959 74.7859 32.776 73.8805 32.9709C74.3048 34.6165 74.8797 35.9783 76.3525 36.8171C76.7769 37.0589 77.0803 37.5178 77.4479 37.8731C77.4479 37.8731 77.4603 37.8632 77.3369 37.9792C76.5228 37.8188 75.7703 37.3155 74.8673 37.4487C75.9775 38.665 76.9964 39.8542 78.0943 40.9619C78.8073 41.6798 79.5844 42.3657 80.4356 42.9084C82.3155 44.1099 85.3895 44.2234 87.3534 42.6642C89.3024 41.1124 89.2654 38.3196 87.1362 37.0367C85.1774 35.8624 83.2604 36.0968 82.1749 38.3319C81.795 39.1091 81.8517 39.8591 82.3525 40.5277C82.8731 41.2185 83.6354 41.4824 84.4915 41.3887C85.2933 41.3048 85.7522 40.804 85.841 39.9972C85.8657 39.7826 85.9076 39.5704 85.957 39.2275C86.5589 40.2464 86.3764 41.0556 85.5968 41.7069C84.568 42.5704 82.7103 42.2127 81.8246 41.179C81.3953 40.6806 81.3139 40.0663 81.1165 39.4841C80.3221 37.1527 81.7826 34.4808 84.3805 33.827C85.8583 33.452 87.3682 33.7851 88.6881 34.5548C90.2473 35.4627 91.1552 36.9109 91.6757 38.6132C91.7127 38.7267 91.7941 38.8278 91.8509 38.9339C92.0063 38.8821 92.1445 38.8328 92.3344 38.7711C93.2275 40.4463 93.341 42.3139 93.8418 44.0063C94.5055 43.5351 95.0779 43.0022 95.7514 42.6765C96.6099 42.2596 97.0047 42.5951 97.0195 43.5474C97.0491 44.9709 97.0984 46.4018 97.1478 47.8254C97.1552 48.0178 97.1996 48.2078 97.244 48.489C98.5318 47.031 100.012 46.0515 101.682 45.3558C101.885 45.2694 102.183 45.2275 102.373 45.3089C103.95 45.9726 105.395 46.8435 106.562 48.119C106.668 48.2324 106.819 48.3065 107.12 48.5211C107.12 46.7226 107.12 45.1116 107.12 43.503C107.12 42.6148 107.527 42.2892 108.363 42.6518C108.884 42.8788 109.328 43.2958 109.799 43.6362C109.979 43.767 110.13 43.9298 110.258 44.0482C110.682 42.4693 111.094 40.9495 111.496 39.4273C111.622 38.9635 111.891 38.7193 112.335 38.8624C113.194 36.489 114.427 34.5597 116.996 33.943C118.335 33.6222 119.68 33.5112 120.95 34.3155C122.524 35.3073 123.321 36.7037 123.245 38.5639C123.225 39.0153 122.996 39.4569 122.919 39.9084C122.732 40.9619 122.078 41.6329 121.135 41.9931C120.099 42.3879 118.861 42.3336 118.089 41.1691C117.691 40.5721 117.738 39.8591 118.16 39.4199C118.298 39.8591 118.372 40.3599 118.612 40.762C118.992 41.3986 119.705 41.5392 120.6 41.3048C121.471 41.0729 122.048 40.4463 122.179 39.6765C122.391 38.4183 121.417 37.2168 120.612 36.7407C119.63 36.1584 118.673 36.3459 117.672 36.716C116.369 37.1971 115.715 38.1617 115.461 39.452C115.202 40.7793 115.747 41.8007 116.764 42.6148C118.022 43.6239 119.468 43.9347 121.042 43.7867C122.927 43.6116 124.434 42.7086 125.705 41.364C126.593 40.4216 127.441 39.4347 128.325 38.4874C128.628 38.1617 128.976 37.8854 129.302 37.5844C129.279 37.5227 129.255 37.4611 129.232 37.3994C128.917 37.4438 128.598 37.4734 128.29 37.5474C127.802 37.6535 127.323 37.7917 126.783 37.8509ZM23.855 58.9792C25.0886 59.7686 26.406 60.2004 27.8961 60.1066C29.5713 60.0005 31.0565 59.4109 32.327 58.3772C34.9471 56.2431 36.0918 53.4972 35.2974 50.142C35.0162 48.9504 34.508 47.7933 33.98 46.6806C33.1733 44.9882 32.0606 43.503 30.5433 42.3657C28.9841 41.1987 27.2004 40.5425 25.3279 40.0515C21.9011 39.1535 18.6445 39.5828 15.457 41.0482C14.3122 41.5737 13.3649 42.489 12.0647 42.6963C11.9389 42.716 11.8254 42.8788 11.7193 42.9898C10.9693 43.8089 10.128 44.5614 9.50138 45.4643C6.70862 49.4981 4.25632 53.7168 3.02276 58.5277C2.48987 60.605 2.04332 62.6995 2.01125 64.8533C1.94957 68.4035 2.59595 71.8229 4.05401 75.0721C4.07375 75.114 4.14036 75.1362 4.20944 75.1856C4.29332 75.1165 4.38461 75.04 4.52523 74.9216C4.56964 74.9907 4.63625 75.0597 4.67326 75.1461C5.33691 76.762 6.34102 78.1658 7.37474 79.5548C9.04003 81.7925 10.9002 83.8525 13.1848 85.4808C15.3015 86.9907 17.5367 88.2982 19.9027 89.3936C23.369 91.0046 26.9858 92.0162 30.8246 92.1124C33.4052 92.179 35.9784 92.1 38.5269 91.6189C40.5943 91.2291 42.6617 90.8147 44.7267 90.3977C44.9043 90.3632 45.0598 90.225 45.23 90.1338C44.8525 90.0129 44.5145 90.003 44.1765 90.0129C40.0121 90.114 35.855 90.0153 31.7571 89.1765C30.7876 88.9791 29.8353 88.6658 28.8583 88.5351C26.8797 88.2711 24.9652 87.7925 23.1099 87.0696C20.6946 86.1247 18.5137 84.8221 16.6782 82.9545C14.1297 80.3517 12.3188 77.2752 10.804 74.0014C9.57786 71.3517 8.67737 68.591 8.1198 65.7168C7.71273 63.6247 7.58444 61.5203 7.83115 59.4158C8.17655 56.5096 9.41503 53.9635 11.2925 51.7407C13.4932 49.1329 16.1034 47.0926 19.5351 46.4092C21.6765 45.9824 23.7761 46.2588 25.5326 47.6502C26.6675 48.5507 27.6568 49.6461 27.6765 51.3928C27.1979 51.2867 26.7612 51.2004 26.3295 51.0992C25.2514 50.8426 24.1634 50.8229 23.1223 51.2004C22.7423 51.3385 22.3698 51.6642 22.1379 52.0022C21.0696 53.5565 21.1437 55.2094 21.8961 56.8624C22.2958 57.7259 22.9989 58.3402 23.855 58.9792ZM197.672 50.2407C197.601 50.137 197.522 50.0408 197.458 49.9397C196.414 48.2991 195.437 46.6091 194.307 45.0326C193.496 43.9101 192.679 42.6889 191.122 42.4199C190.982 42.3953 190.863 42.2596 190.725 42.1905C189.62 41.6379 188.547 41.0285 187.409 40.5548C185.524 39.7703 183.556 39.4397 181.501 39.6148C179.719 39.7653 178.01 40.165 176.367 40.8361C174.694 41.5244 173.223 42.494 172.022 43.8977C170.45 45.7283 169.503 47.85 168.859 50.1247C168.494 51.4273 168.484 52.7793 168.891 54.0819C169.629 56.4356 171.087 58.2094 173.312 59.3023C175.927 60.5877 178.678 60.4372 181.027 58.4265C182.663 57.0301 183.257 54.7456 182.492 52.767C182.221 52.0639 181.772 51.4323 181.027 51.1757C179.976 50.813 178.893 50.8426 177.815 51.0893C177.38 51.193 176.939 51.2818 176.354 51.4076C176.554 50.7612 176.626 50.2308 176.862 49.7867C178.454 46.7793 181.353 45.8665 184.614 46.3969C187.002 46.7842 189.005 48.0301 190.789 49.6042C194.786 53.1346 196.858 57.489 196.402 62.9241C196.163 65.7908 195.472 68.5342 194.495 71.2283C193.143 74.9537 191.29 78.3977 188.828 81.4989C187.313 83.401 185.468 84.9528 183.294 86.063C181.19 87.1387 178.974 87.9109 176.638 88.3278C175.94 88.4487 175.229 88.5548 174.533 88.693C173.137 88.9693 171.758 89.3369 170.354 89.5367C166.806 90.0375 163.242 90.1214 159.667 89.9956C159.42 89.9882 159.166 89.9956 158.919 89.9956C158.914 90.0622 158.907 90.1214 158.902 90.188C159.06 90.2522 159.22 90.3459 159.385 90.3829C160.412 90.6222 161.438 90.8665 162.467 91.0836C166.217 91.8731 170.004 92.2678 173.843 92.1C176.66 91.9791 179.379 91.3673 181.992 90.3706C184.621 89.3689 187.101 88.0367 189.479 86.5145C193.528 83.9216 196.55 80.401 198.936 76.276C199.192 75.8344 199.427 75.3805 199.681 74.9216C199.843 75.0523 199.925 75.1165 200.046 75.2102C201.284 72.6617 201.857 69.98 202.098 67.2193C202.274 65.2012 202.143 63.188 201.743 61.1946C201.324 59.0951 200.853 57.0055 200.009 55.0342C199.313 53.4479 198.496 51.9158 197.672 50.2407ZM116.529 75.3459C116.325 74.6823 115.836 74.2382 115.261 73.9323C114.415 73.4759 113.487 73.6264 112.55 73.7497C112.71 73.5449 112.876 73.3698 113.075 73.2514C114.61 72.3361 116.774 73.4956 117.44 74.9413C117.978 76.0935 117.884 77.2209 117.415 78.3657C116.712 80.0926 115.459 81.2596 113.667 81.6494C111.139 82.1995 109.16 81.0696 108.001 78.8097C107.08 77.0186 107.27 75.1412 107.7 73.2637C107.744 73.0663 107.788 72.8665 107.85 72.5976C103.95 73.8213 100.13 73.8089 96.2399 72.5803C96.3163 72.8492 96.3731 73.049 96.4274 73.2489C96.9109 75.0893 97.0367 76.9199 96.1979 78.7037C94.9372 81.3903 92.0779 82.5055 89.4578 81.2892C87.4422 80.3566 86.2136 78.0597 86.3542 76.2069C86.4973 74.3591 88.2711 72.7851 90.0869 72.9356C90.7999 72.9923 91.2489 73.2612 91.4833 73.7374C90.9578 73.7127 90.4052 73.6362 89.8599 73.6757C88.281 73.7867 87.1437 75.2719 87.5063 76.8139C87.6667 77.4898 87.9331 78.1979 88.3451 78.753C89.8402 80.7538 92.3443 81.3287 94.2983 79.1847C95.4899 77.8722 95.7637 76.2884 95.4825 74.5885C95.3961 74.0704 95.2654 73.5573 95.1321 73.049C94.4487 70.4833 92.7267 69.4915 90.2053 69.674C88.503 69.7999 86.7933 70.2242 85.6585 71.7662C85.3895 72.1338 84.98 72.3903 84.6617 72.7234C84.4101 72.9874 84.1412 73.2612 83.9808 73.5819C82.3032 76.9249 82.4463 80.2185 84.3509 83.4183C84.9627 84.4421 85.7596 85.35 86.0976 86.5367C87.341 85.8632 87.4422 85.73 87.8986 84.5014C88.0614 84.0647 88.281 83.6527 88.4759 83.2333C88.7818 84.4841 88.9841 85.6732 90.0302 86.3739C90.9923 86.2826 91.0244 85.0367 92.0187 85.012C92.1839 86.4504 92.8032 87.6469 93.7876 88.6239C94.3303 89.1617 94.957 89.6329 95.5886 90.0647C97.0663 91.0787 98.5886 92.031 100.056 93.0523C100.762 93.5408 101.396 94.1403 102.08 94.7028C102.773 94.1354 103.399 93.5408 104.105 93.0523C105.603 92.0162 107.144 91.049 108.654 90.0277C110.445 88.8163 111.876 87.3336 112.148 85.0096C113.154 84.9997 113.169 86.3615 114.166 86.3689C115.165 85.6115 115.409 84.452 115.572 83.0137C116.342 84.4199 116.448 86.0236 117.965 86.4775C118.422 85.693 118.804 84.9208 119.292 84.2201C120.913 81.9109 121.698 79.387 121.197 76.5819C120.904 74.9413 120.44 73.318 118.979 72.2349C118.71 72.0351 118.503 71.7538 118.261 71.5145C117.659 70.9076 117.099 70.2365 116.13 70.2143C116.016 70.2119 115.905 70.1181 115.787 70.0737C114.472 69.5532 113.132 69.4816 111.783 69.9183C110.7 70.2686 109.851 70.9027 109.436 71.9907C109.172 72.679 109.005 73.4068 108.78 74.1124C108.373 75.4175 108.501 76.7004 109.029 77.929C109.913 79.989 112.454 81.605 114.965 79.651C116.236 78.6617 116.946 76.8928 116.529 75.3459ZM34.8632 69.943C34.2958 69.5803 33.7358 69.2226 33.1165 68.8278C32.9685 69.9874 32.7366 71.0828 31.7448 71.9463C31.4438 71.0458 31.207 70.1576 30.8517 69.3188C30.489 68.4701 30.5187 67.4117 29.5737 66.7357C29.3739 67.202 29.2086 67.6313 29.0112 68.0408C28.7719 68.5515 28.6955 68.5663 28.0589 68.3147C28.2909 67.2489 27.6741 66.5112 26.9858 65.8106C26.744 65.5663 26.4849 65.3467 26.2481 65.1025C25.7547 64.5943 25.244 64.0935 24.79 63.5482C24.5211 63.225 24.3558 62.8229 24.1387 62.4528C24.0376 62.5145 23.9685 62.5342 23.9438 62.5787C23.7489 62.966 23.5688 63.3558 23.3739 63.7431C22.0195 66.4372 21.6025 69.2719 22.1601 72.2398C22.2292 72.5976 22.3279 72.9948 22.545 73.2686C22.846 73.6461 22.7275 73.9002 22.5277 74.2579C21.5877 73.8558 20.6626 73.8089 19.5598 73.915C20.0729 75.2226 20.4504 76.4734 21.045 77.6132C21.6371 78.7407 22.4389 79.7571 23.2308 80.9463C22.2662 80.9463 21.4274 80.9463 20.517 80.9463C20.6552 81.2152 20.7168 81.3953 20.8254 81.5334C22.7645 84.0203 25.1724 85.9051 28.1132 87.0523C30.5014 87.9849 33.0228 88.3846 35.5614 88.5425C40.1823 88.8311 44.8106 88.9224 49.4043 88.1724C51.4792 87.8344 53.5515 87.4076 55.582 86.8747C57.4027 86.3961 59.1987 85.7793 60.9578 85.1058C63.0943 84.2892 65.2185 83.4257 67.2785 82.4364C70.4019 80.9389 73.3081 79.049 76.1897 77.1321C76.8213 76.7127 77.4233 76.2538 78.0376 75.8122C77.8476 75.7037 77.7242 75.6987 77.6058 75.7185C76.3895 75.943 75.1733 76.1601 73.9594 76.4068C73.6338 76.4734 73.3081 76.5992 73.0096 76.7522C72.2177 77.1642 71.4233 77.5885 70.6486 78.0351C67.3723 79.9323 63.9726 81.5655 60.3015 82.5129C56.8575 83.401 53.443 84.4421 49.8928 84.8961C46.9644 85.2686 44.0384 85.6412 41.0902 85.0811C40.7744 85.0219 40.3895 85.0416 40.1009 85.1675C38.5269 85.8607 36.8862 85.8188 35.2481 85.5671C34.0367 85.3796 32.8846 84.8961 32.1519 83.8599C30.5014 81.5458 30.8196 79.1157 32.8032 77.0334C34.0762 75.6987 36.9183 75.9849 37.5869 78.3163C37.8534 79.2538 37.7941 80.1494 37.5622 81.0647C37.3081 82.0614 36.7432 82.5696 35.591 82.7546C35.6478 82.6683 35.6897 82.6041 35.7341 82.5425C35.8057 82.4413 35.8649 82.318 35.9562 82.2489C37.1256 81.3459 37.0861 80.1272 36.8246 78.8714C36.6543 78.0351 36.119 77.4824 35.2777 77.3393C34.4586 77.2012 33.7432 77.4578 33.2621 78.1831C32.8155 78.8615 32.48 79.5795 32.4356 80.4134C32.3542 81.8788 33.1659 83.3887 34.3451 83.8451C35.7242 84.378 37.1305 84.3903 38.554 84.1757C38.9413 84.114 39.3361 83.9783 39.6864 83.7908C41.2851 82.9495 42.9726 80.364 42.5409 77.9709C42.2275 76.2415 41.4578 74.8402 40.1749 73.6757C38.6034 72.2349 36.9183 70.9446 34.8632 69.943ZM161.82 88.7053C162.847 88.7053 163.868 88.7226 164.894 88.6979C167.875 88.6313 170.83 88.4043 173.751 87.7283C177.388 86.8846 180.319 84.9726 182.756 82.2217C183.087 81.8467 183.348 81.4101 183.738 80.8698C183.104 80.9068 182.672 80.9216 182.241 80.9537C181.821 80.9882 181.402 81.0449 180.953 80.7217C182.648 78.6913 183.995 76.5252 184.439 73.7571C183.393 73.8903 182.46 74.0137 181.394 74.1518C181.515 73.1132 182.186 72.2596 182.147 71.2382C182.105 70.2143 182.233 69.1806 182.11 68.1716C181.984 67.1379 181.723 66.0992 181.372 65.1148C181.044 64.1773 180.674 63.23 180.013 62.3393C179.542 63.4989 178.784 64.3056 177.95 65.0581C176.944 65.9685 175.861 66.8541 176.029 68.5096C174.81 68.4282 175.113 67.2711 174.521 66.7555C173.675 67.3574 173.68 68.4035 173.325 69.2596C172.967 70.1181 172.718 71.026 172.404 71.9586C171.437 71.0581 171.158 69.9824 171.065 68.8229C170.236 69.341 169.515 69.8689 168.726 70.2637C166.654 71.3023 164.882 72.7283 163.279 74.3714C161.571 76.1181 160.932 79.3377 162.282 81.5112C163.096 82.8262 164.048 83.9907 165.733 84.2078C166.913 84.3583 168.094 84.3484 169.246 84.0449C170.11 83.8155 170.798 83.3196 171.24 82.4981C172.052 80.9907 171.822 79.2859 170.675 77.9043C169.878 76.9495 168.302 77.1124 167.63 78.1609C166.893 79.3229 167.08 81.1017 168.038 82.091C168.22 82.281 168.376 82.4981 168.583 82.7546C167.667 82.5918 166.947 82.1675 166.742 81.568C166.372 80.475 166.177 79.3796 166.587 78.2028C167.285 76.2193 169.296 75.9356 170.593 76.5079C171.541 76.9249 172.01 77.7538 172.471 78.605C173.764 80.9956 172.715 83.9413 170.635 84.9652C168.691 85.9175 166.629 85.9372 164.561 85.3352C164.093 85.1971 163.668 84.9356 163.13 85.0367C161.231 85.4068 159.314 85.3969 157.385 85.2365C154.745 85.0244 152.152 84.5852 149.584 83.9907C147.867 83.5935 146.172 83.0877 144.462 82.656C142.269 82.0984 140.127 81.3854 138.097 80.3961C136.069 79.4068 134.09 78.3287 132.112 77.2456C131.122 76.7053 130.14 76.2365 128.976 76.2439C128.586 76.2489 128.191 76.0787 127.802 75.9972C127.288 75.8862 126.775 75.7851 126.265 75.6839C126.346 75.9676 126.474 76.0984 126.62 76.1921C128.317 77.3147 129.995 78.4791 131.729 79.5449C134.28 81.1214 136.885 82.6189 139.683 83.7217C141.982 84.6296 144.324 85.4413 146.658 86.2801C148.908 87.0893 151.249 87.5606 153.59 88.0022C156.247 88.5055 158.944 88.6535 161.82 88.7053ZM95.2333 7.32784C95.4849 6.21271 95.7341 5.10251 96.0104 3.88129C95.7983 4.03918 95.6206 4.1132 95.5269 4.24642C94.8336 5.23326 94.1305 6.23244 93.8665 7.42652C93.6247 8.50958 93.3904 9.61238 94.1009 10.6634C94.2637 10.9027 94.2119 11.29 94.2612 11.6083C93.7308 11.2851 93.4224 10.8213 92.9956 10.5252C92.5515 10.2143 92.0088 10.0022 91.4808 9.85662C90.9553 9.71106 90.3928 9.70119 89.8081 9.62471C89.6848 10.3698 90.1733 10.8139 90.4545 11.3393C90.8172 12.0153 91.2119 12.6765 91.5277 13.3772C91.6955 13.7472 91.7892 14.1839 91.5943 14.5984C91.0935 14.0778 90.7037 13.4833 90.156 13.1502C89.5787 12.7999 88.8583 12.8295 88.2316 13.2366C89.1149 14.7711 89.2654 16.6066 88.5696 18.0844C88.3254 17.5861 88.1576 17.1395 87.9011 16.7497C87.6297 16.3328 87.2719 15.9701 86.9167 15.5507C86.7489 15.9504 86.6083 16.2933 86.4677 16.6338C86.4356 16.7201 86.4159 16.8139 86.3961 16.9027C85.7275 19.7324 86.0211 22.4635 87.3632 25.0318C88.0318 26.3122 89.1025 27.1732 90.5754 27.4668C92.5663 27.8616 94.244 27.3089 95.8525 26.0778C97.8114 24.5803 97.4611 21.2053 96.1338 19.9125C94.9644 18.7727 93.1535 19.0639 92.5466 20.5713C92.4331 20.8525 92.4282 21.2472 92.5293 21.5359C92.8476 22.4512 93.4866 22.7275 94.545 22.5203C94.9027 22.4512 95.2382 22.1995 95.892 22.3624C95.5787 22.5745 95.4331 22.6806 95.2777 22.7768C95.0951 22.8903 94.915 23.0063 94.7251 23.1074C93.8492 23.5762 92.8797 23.5268 92.216 22.915C91.471 22.2292 91.0293 21.3854 91.355 20.3393C91.7374 19.1181 92.5787 18.3484 93.8172 18.0548C95.3344 17.6971 96.8172 18.3435 97.7201 19.7571C97.9767 20.1568 98.1642 20.6009 98.4331 21.1165C98.9463 19.5696 99.3978 18.1288 99.6025 16.619C99.7308 15.6691 99.8813 14.7094 100.148 13.7941C100.343 13.1255 100.663 12.4619 101.063 11.892C101.67 11.0211 102.504 11.0014 103.086 11.8722C103.525 12.526 103.888 13.281 104.07 14.0408C104.463 15.6321 104.687 17.2653 105.033 18.869C105.186 19.5943 105.467 20.2949 105.691 21.0079C106.155 20.3097 106.486 19.6313 106.977 19.1058C108.716 17.2407 111.679 17.739 112.693 20.0211C113.107 20.9537 112.861 22.0441 112.059 22.8188C111.334 23.5145 110.386 23.6157 109.412 23.1074C109.059 22.9199 108.664 22.7818 108.561 22.276C109.096 22.387 109.567 22.5301 110.051 22.577C110.828 22.656 111.22 22.3821 111.561 21.7505C111.911 21.0968 111.714 20.5343 111.309 20.0285C110.512 19.0367 109.123 18.9479 108.166 19.7843C106.93 20.8772 106.501 23.4257 107.312 24.869C108.366 26.7464 110.875 27.9035 113.117 27.568C114.945 27.2966 116.186 26.3023 116.988 24.637C117.721 23.1198 118.054 21.5186 118.108 19.8755C118.158 18.4002 117.904 16.9446 117.228 15.5754C116.882 15.9923 116.524 16.3426 116.26 16.7497C116.004 17.1444 115.841 17.5959 115.592 18.1239C115.133 17.5343 115.266 16.9594 115.237 16.4339C115.202 15.8492 115.165 15.2423 115.279 14.6798C115.385 14.1667 115.698 13.6954 115.967 13.1009C115.436 13.0688 114.948 12.9997 114.469 13.0194C113.458 13.0565 113.189 14.0384 112.56 14.702C112.397 14.1543 112.523 13.7596 112.636 13.35C112.917 12.3435 113.574 11.5491 114.114 10.6954C114.326 10.3624 114.427 10.0441 114.252 9.57537C113.418 9.77027 112.612 9.95037 111.81 10.1502C110.959 10.3574 110.633 11.2357 109.92 11.6773C109.932 11.2407 109.955 10.8139 110.154 10.5005C110.475 9.98738 110.495 9.45448 110.49 8.89198C110.475 7.19955 109.75 5.78096 108.753 4.47833C108.61 4.29083 108.447 4.01205 108.151 4.09593C108.42 5.20859 108.778 6.26698 108.908 7.35004C109.042 8.45284 109.116 9.60744 108.504 10.651C108.334 8.02356 107.927 5.50465 106.123 3.43968C106.116 3.70859 106.192 3.95284 106.269 4.19708C107.07 6.63951 107.211 9.11155 106.488 11.591C106.311 12.2102 106.066 12.8319 105.297 13.2686C105.484 12.267 105.659 11.4232 105.802 10.5696C105.854 10.239 105.899 9.88129 105.827 9.56303C105.583 8.50958 105.361 7.44379 104.988 6.43228C104.288 4.55974 103.224 2.86978 102.134 1.19461C102.033 1.27109 101.971 1.3007 101.939 1.34757C100.693 3.27438 99.4866 5.23326 98.8106 7.43392C98.4455 8.6354 98.1124 9.87636 98.4775 11.179C98.6601 11.8278 98.7267 12.5063 98.8451 13.1749C98.7785 13.1995 98.7193 13.2242 98.6527 13.2464C98.4578 12.9824 98.2284 12.7357 98.0655 12.4495C97.4858 11.4282 97.3328 10.2834 97.2316 9.14363C97.0737 7.38951 97.4117 5.68721 97.9126 4.01205C97.952 3.87142 97.9274 3.71353 97.9372 3.56797C96.2522 5.63047 95.8846 8.09511 95.591 10.5968C95.2062 9.57043 95.1149 8.54165 95.2333 7.32784ZM94.1009 60.0745C95.0532 60.5803 95.9833 61.1329 96.9627 61.5819C99.6987 62.8229 102.573 62.9241 105.43 62.216C108.516 61.4512 111.084 59.7489 113.13 57.3015C114.585 55.5597 115.562 53.5811 115.905 51.3188C116.167 49.5893 116.068 47.85 115.925 46.1157C115.922 46.054 115.829 45.9972 115.73 45.8887C115.098 46.9964 114.496 48.0548 113.838 49.2094C113.724 47.6428 113.675 46.2415 113.505 44.8574C113.325 43.4241 112.843 42.0696 112.185 40.6362C111.733 42.5038 111.378 44.2357 110.719 46.0071C110.088 44.8673 109.259 44.1913 108.277 43.6239C108.277 44.401 108.326 45.0819 108.265 45.7579C108.151 47.0236 107.971 48.2867 107.828 49.5523C107.803 49.7546 107.788 49.9792 107.84 50.1741C108.033 50.9117 108.252 51.6444 108.467 52.3846C109.143 51.8714 109.836 51.3681 110.495 50.8303C110.875 50.5244 111.203 50.5787 111.452 50.9241C111.642 51.1831 111.817 51.5186 111.842 51.8319C111.911 52.6338 111.945 53.443 111.904 54.2497C111.822 55.7917 111.321 57.2127 110.487 58.5203C110.255 58.8829 109.999 59.1272 109.505 58.989C110.833 56.8624 111.223 54.6074 110.89 52.1329C109.224 53.1272 108.452 54.9578 106.604 55.8731C106.636 55.4265 106.619 55.1329 106.688 54.864C106.75 54.6321 106.895 54.4175 107.026 54.2053C107.593 53.3122 107.512 52.4018 107.206 51.4397C106.663 49.7349 105.605 48.3805 104.352 47.1691C103.856 46.6905 103.18 46.392 102.585 46.017C102.235 45.7949 101.897 45.8023 101.544 46.0293C101.233 46.2292 100.893 46.3722 100.58 46.5647C99.304 47.3492 98.4504 48.5433 97.7004 49.7793C96.7358 51.3755 96.1535 53.0532 97.4487 54.8023C97.6486 55.0713 97.6486 55.429 97.4043 55.8089C95.702 54.9405 94.915 53.1173 93.2547 52.128C92.892 54.6074 93.3435 56.855 94.6387 58.9915C94.1428 59.1272 93.8912 58.8533 93.6617 58.5129C93.0672 57.6247 92.6922 56.6428 92.4405 55.6165C92.1075 54.2423 92.1075 52.841 92.3665 51.4569C92.5145 50.6823 93.1288 50.4849 93.7974 50.9635C94.4364 51.4249 95.0581 51.9134 95.7218 52.4142C95.8279 51.9972 95.8969 51.6025 96.0228 51.23C96.2991 50.3986 96.3682 49.5795 96.2423 48.7012C96.0104 47.0556 95.6922 45.4125 96.0203 43.6042C94.8435 44.1864 94.0491 44.9389 93.3682 46.0836C93.1042 45.0449 92.8969 44.2111 92.6774 43.3772C92.4529 42.526 92.216 41.6798 91.9348 40.6486C91.355 42.1264 90.8048 43.429 90.6667 44.85C90.5285 46.2588 90.4496 47.6749 90.341 49.1477C89.5047 48.1708 89.2136 46.8681 88.2242 45.7777C88.17 47.1247 88.0639 48.2694 88.0886 49.4142C88.133 51.8467 88.7818 54.1041 90.1683 56.1469C91.2119 57.6691 92.5071 58.9224 94.1009 60.0745ZM139.513 57.3805C139.431 57.5803 139.333 57.7752 139.264 57.9824C138.657 59.818 137.608 61.3525 136.084 62.5491C135.746 62.8155 135.649 63.1066 135.714 63.5186C135.945 64.9693 136.908 65.7859 138.154 66.3188C139.394 66.8492 140.591 66.7727 141.568 65.7415C141.963 65.3221 142.325 64.8336 142.55 64.313C142.794 63.7505 142.646 63.1535 142.202 62.6527C142.75 62.7612 143.014 63.0918 143.177 63.5556C143.401 64.1995 143.241 64.8163 142.959 65.3541C141.867 67.4265 140.172 68.8303 137.872 69.3163C135.701 69.7752 133.503 69.568 131.315 69.2472C133.89 69.2152 136.491 69.3607 139.086 68.1444C136.471 67.6757 134.712 66.4816 134.147 63.8369C132.104 64.7004 129.99 65.1469 127.797 64.8903C125.586 64.6338 123.588 63.7678 121.772 62.3862C121.308 63.003 120.889 63.5556 120.425 64.165C120.928 64.5375 121.39 64.8977 121.873 65.216C122.391 65.554 122.927 65.8648 123.469 66.1658C123.982 66.4495 124.503 66.7185 125.029 66.98C125.544 67.2365 126.075 67.4709 126.6 67.7201C126.563 67.7966 126.526 67.8755 126.489 67.9569C123.941 67.6066 121.848 66.193 119.67 64.8706C118.251 66.2497 116.537 67.0515 114.496 67.4117C114.758 67.6214 114.904 67.7842 115.084 67.8879C116.292 68.5639 117.482 69.2867 118.735 69.8689C119.82 70.3772 120.973 70.7694 122.122 71.1272C123.566 71.5787 125.021 72.0351 126.501 72.3336C128.172 72.6666 129.864 72.906 131.559 73.049C135.067 73.35 138.511 73.0367 141.681 71.3517C144.711 69.7431 146.84 67.3747 147.637 63.9454C148.093 61.989 147.484 60.2941 146.196 58.9076C144.669 57.2571 142.626 56.7785 140.433 56.9241C140.144 56.9413 139.871 57.1362 139.513 57.3805ZM49.9767 65.0606C50.2777 64.989 50.5812 64.9199 50.8821 64.8459C52.1971 64.5375 53.3443 64.7966 54.2473 65.8476C55.2119 66.9701 56.1617 68.1099 57.1338 69.2275C57.4767 69.6222 57.8591 69.9874 58.2538 70.3328C58.355 70.424 58.5548 70.3994 58.7127 70.4265C58.6757 70.1009 58.5351 69.9257 58.3994 69.7481C57.79 68.9364 57.1782 68.1272 56.5762 67.318C56.2826 66.9232 56.031 66.4989 55.7053 66.1313C54.8295 65.1469 54.1955 64.0268 53.8007 62.781C53.633 62.2579 53.3566 61.8632 52.9619 61.4956C51.5236 60.1535 49.7645 59.3344 48.0154 58.4018C47.8723 58.9915 47.8032 59.6181 46.952 59.8106C46.7695 59.591 46.5302 59.3295 46.3229 59.0482C46.0441 58.6782 45.8369 58.2464 45.5187 57.9208C44.8575 57.2423 44.1691 56.5811 43.4364 55.9767C41.7983 54.6198 40.3895 53.142 40.3007 50.8451C40.3007 50.8007 40.2267 50.7637 40.1502 50.6798C38.4159 53.068 37.3057 55.651 37.4019 58.6535C37.4759 60.9824 38.2259 63.0474 39.8665 64.8336C39.0721 65.2037 38.3073 65.5589 37.4685 65.9487C38.8476 67.3204 40.6387 67.725 42.3484 68.364C41.7218 69.2053 40.7152 69.2374 39.8443 69.6666C40.8089 70.6313 41.8476 71.2727 42.943 71.8426C43.8312 72.3089 44.7662 72.605 45.7629 72.7037C47.4011 72.8615 48.98 72.5162 50.5318 72.0795C51.1733 71.9018 51.7925 71.5762 52.3821 71.2505C53.9833 70.3698 54.5705 67.8262 52.6757 66.5482C51.4545 65.7217 50.3838 65.6527 49.4512 66.4569C48.869 66.9578 48.6371 67.6066 48.7678 68.3764C48.8986 69.1362 49.4932 69.4051 50.1149 69.6346C50.591 69.8073 50.9833 69.6124 51.2843 69.2744C51.605 68.9216 51.8344 68.5096 51.5359 68.0088C51.4668 67.8953 51.4175 67.7645 51.3608 67.6436C52.0096 67.8459 52.392 68.2135 52.2983 68.8994C52.2094 69.5556 51.9035 70.0737 51.2769 70.3328C50.3517 70.7201 49.1946 70.4487 48.4545 69.6864C47.7538 68.966 47.5589 67.7448 47.9833 66.8319C48.3731 66.0153 49.0219 65.4775 49.9767 65.0606ZM162.188 71.327C162.904 70.8139 163.71 70.4068 164.292 69.6568C163.436 69.2349 162.42 69.2275 161.833 68.3517C163.562 67.7324 165.341 67.318 166.693 65.9537C165.839 65.554 165.065 65.1963 164.27 64.8262C164.515 64.5696 164.714 64.387 164.875 64.1773C165.827 62.9561 166.409 61.5523 166.634 60.0375C167.154 56.5342 166.084 53.4553 163.982 50.6477C163.806 51.3435 163.71 52.0145 163.468 52.6288C162.911 54.0548 161.862 55.0959 160.661 56.0038C159.496 56.8846 158.455 57.869 157.767 59.1913C157.629 59.4602 157.316 59.6354 157.14 59.7982C156.358 59.5589 156.26 58.9668 156.166 58.3451C155.759 58.5943 155.465 58.8287 155.132 58.9668C153.891 59.48 152.801 60.2349 151.742 61.0392C151.074 61.5449 150.543 62.1296 150.284 63.003C149.939 64.1576 149.315 65.1963 148.486 66.1041C148.135 66.4865 147.874 66.9504 147.561 67.3648C147.008 68.1074 146.458 68.8476 145.878 69.568C145.607 69.901 145.256 70.1699 144.968 70.4931C144.874 70.5992 144.867 70.7818 144.768 71.0902C146.112 70.2193 147.04 69.193 147.926 68.1148C148.671 67.2069 149.485 66.3607 150.289 65.5022C150.859 64.8953 151.602 64.6954 152.406 64.7324C153.247 64.7694 154.056 64.9446 154.806 65.3665C155.421 65.7119 155.877 66.2053 156.178 66.8369C156.627 67.7842 156.422 68.9586 155.707 69.6913C154.957 70.4561 153.81 70.7324 152.885 70.3451C152.221 70.0688 151.895 69.5186 151.846 68.8229C151.806 68.2012 152.152 67.8213 152.845 67.5203C152.702 67.8336 152.591 68.0088 152.544 68.2012C152.364 68.929 153.052 69.7481 153.785 69.6987C155.115 69.6099 155.87 68.1568 155.177 67.012C154.567 66.0055 153.324 65.6231 152.278 66.1436C151.95 66.3064 151.639 66.5162 151.338 66.7234C150.366 67.387 150.146 68.3147 150.398 69.4125C150.598 70.2859 151.135 70.8903 151.88 71.3344C152.907 71.9487 154.049 72.193 155.196 72.4668C157.649 73.0367 159.936 72.7555 162.188 71.327ZM138.21 50.6107C138.21 51.262 138.23 51.9134 138.198 52.5597C138.173 52.9866 138.191 53.3665 138.593 53.6033C139.703 53.48 139.769 53.5342 139.878 54.5828C139.935 55.1329 140.384 55.5647 140.971 55.6461C141.706 55.7472 142.451 55.8089 143.177 55.9717C144.706 56.3221 146.132 56.9241 147.186 58.1403C148.338 59.4726 148.937 61.0441 148.964 62.8155C148.969 63.0425 148.964 63.2694 148.964 63.4989C149.021 63.5236 149.078 63.5482 149.137 63.5729C149.177 63.4915 149.228 63.4125 149.258 63.3287C150.141 60.6518 150.622 57.9183 150.415 55.091C150.316 53.7242 149.803 52.4907 148.856 51.494C147.973 50.5663 147.112 50.5293 146.169 51.0055C145.436 51.3755 145.163 52.1083 145.37 53.1741C145.412 53.3862 145.431 53.6132 145.518 53.8106C145.883 54.6395 146.529 55.1379 147.43 55.244C148.229 55.3352 148.589 54.8122 148.834 54.156C148.846 54.1239 148.925 54.114 148.974 54.0992C149.371 55.2908 148.883 56.0852 147.699 56.1741C145.996 56.3048 144.955 55.2094 144.543 53.7316C144.304 52.8706 144.228 51.9405 144.751 51.114C145.557 49.8484 147.089 49.3895 148.488 49.9594C149.364 50.3122 149.966 50.9635 150.44 51.7407C151.288 53.137 151.542 54.6815 151.486 56.2974C151.461 56.9734 151.481 57.6518 151.481 58.3278C153.59 58.3032 156.704 55.0194 156.837 52.6782C155.909 52.466 154.937 52.8928 153.923 52.5918C155.532 50.9068 156.186 48.2818 155.438 46.6732C154.626 46.8484 153.805 47.0285 152.877 47.2308C154.582 43.9545 151.905 39.7283 149.218 38.5639C149.058 39.5581 148.52 40.3476 147.834 41.0384C147.272 41.6058 146.672 42.1436 146.09 42.6889C144.63 44.0606 143.51 45.6074 143.445 47.7119C143.441 47.855 143.367 47.9956 143.295 48.2497C142 47.7119 141.225 46.8114 140.877 45.3311C140.132 47.0482 139.841 48.5951 140.27 50.2308C140.436 50.8796 140.075 51.2645 139.434 51.0869C139.126 51.0005 138.869 50.7366 138.585 50.5614C138.469 50.4972 138.405 50.1839 138.21 50.6107ZM53.9191 59.2407C54.2275 60.7308 54.3854 62.2653 55.1872 63.6296C55.1675 62.4726 55.2489 61.3525 55.7053 60.2793C56.2111 59.0926 56.8525 58.0466 57.943 57.2867C59.4183 56.2555 61.0861 55.8657 62.8205 55.6609C63.9109 55.5351 64.133 55.3525 64.2588 54.2991C64.3279 53.7316 64.5277 53.5491 65.105 53.554C65.2851 53.554 65.4578 53.5984 65.6206 53.6231C65.9932 53.0236 66.0499 51.9158 65.8057 50.4158C65.5071 50.6305 65.2432 50.9167 64.9126 51.0375C64.656 51.1313 64.2958 51.0869 64.0343 50.9759C63.7259 50.8426 63.864 50.5194 63.8838 50.2407C63.9529 49.3155 64.0515 48.3829 63.9701 47.4676C63.9109 46.7991 63.716 46.0984 63.2571 45.4717C62.7267 47.1173 61.9002 48.0129 60.7728 48.1264C60.7358 47.8377 60.721 47.5367 60.6642 47.2431C60.5828 46.8213 60.4841 46.4018 60.3657 45.9898C59.9882 44.6576 59.0951 43.6683 58.128 42.753C56.8131 41.512 55.318 40.4167 54.8838 38.4701C53.6527 39.2275 52.6634 40.128 51.9307 41.2481C51.1412 42.4569 50.6157 43.7867 50.7588 45.2768C50.8205 45.8961 50.9981 46.4981 51.1461 47.2185C50.3024 47.0285 49.4858 46.8435 48.5729 46.6362C48.1412 48.9652 48.5976 50.9241 50.2777 52.6732C49.1872 52.6732 48.2423 52.6732 47.2752 52.6732C47.2826 52.8163 47.2654 52.9471 47.3024 53.0606C48.0326 55.1823 49.3254 56.8624 51.2719 57.9874C51.6913 58.2267 52.1798 58.5647 52.6486 58.3204C52.7004 56.892 52.6437 55.5153 52.8361 54.1806C53.0507 52.6486 53.7218 51.2867 55.0219 50.3221C56.1864 49.4611 57.6913 49.5079 58.7917 50.443C59.8525 51.3459 60.0968 53.0285 59.369 54.4298C58.7004 55.7152 57.6765 56.3147 56.3838 56.1741C55.2292 56.0532 54.7481 55.1699 55.2612 54.0622C55.3303 54.1856 55.3871 54.2892 55.4438 54.4002C55.9076 55.2662 56.3517 55.4882 57.2448 55.1009C57.6987 54.901 58.1601 54.5556 58.4438 54.1486C59.3443 52.8706 58.8435 51.2374 57.4841 50.813C56.6083 50.5417 55.8805 50.8673 55.3106 51.4964C54.3953 52.5104 53.8032 53.7069 53.7761 55.091C53.7514 56.4158 53.8501 57.7456 53.9191 59.2407ZM66.114 54.8764C65.8624 54.8245 65.6058 54.7703 65.3492 54.7185C65.3295 54.8517 65.3048 54.9134 65.3122 54.9701C65.3739 55.3352 65.4381 55.7028 65.5047 56.0704C65.9956 58.8262 67.5302 60.8887 69.864 62.327C71.443 63.2991 73.2341 63.7185 75.0918 63.7678C77.5861 63.8319 79.7769 62.8402 81.9183 61.7842C81.7259 60.637 81.5483 59.5663 81.3608 58.4537C81.1609 58.6461 80.9191 58.8336 80.7218 59.0606C79.5006 60.4693 77.9043 61.0194 76.1034 61.1058C74.1593 61.1995 72.7876 60.1412 72.1807 58.5721C71.6675 57.2374 72.0672 55.5474 73.4956 54.4323C74.2604 53.8352 75.5014 53.6551 76.202 54.1436C77.0483 54.7333 77.3912 55.6165 77.3616 56.6354C77.3542 56.9857 77.2678 57.3632 76.7473 57.4446C76.7349 57.1856 76.7473 56.9734 76.7078 56.7686C76.614 56.3221 76.5524 55.8484 76.3698 55.4389C76.0713 54.7629 75.4496 54.526 74.8377 54.7629C73.8114 55.1625 73.0762 56.4479 73.239 57.5458C73.471 59.0976 74.9981 60.1066 76.5277 59.7217C76.8583 59.6354 77.1913 59.5663 77.517 59.4602C79.4956 58.8287 81.0696 57.0696 80.9438 54.9208C80.892 54.0252 80.8673 53.1222 80.7563 52.2292C80.591 50.9117 79.952 49.8607 78.6519 49.4265C77.5121 49.0417 76.3402 48.7209 75.1511 48.5384C73.6708 48.3089 72.2744 48.7703 70.9274 49.3722C70.503 49.5597 70.0787 49.7546 69.6395 49.8977C68.6009 50.2357 67.7177 49.9495 66.9085 48.9602C66.79 49.5301 66.6815 49.9051 66.6395 50.2875C66.5137 51.5211 66.7974 52.6856 67.2711 53.8229C67.5425 54.4816 67.3155 54.8319 66.6321 54.9084C66.5063 54.9282 66.378 54.906 66.114 54.8764ZM62.4677 90.2941C62.2555 90.4323 62.0433 90.5704 61.7251 90.7826C63.5162 91.1107 65.0927 90.6913 66.6642 90.4199C68.2234 90.151 69.7407 89.6428 71.1099 88.8509C72.4767 88.0663 73.7349 87.0844 75.0943 86.1518C75.0055 86.9142 74.5688 87.4273 74.1099 87.9109C73.1848 88.8805 73.128 90.1066 72.9159 91.4487C74.4997 90.9652 75.9775 90.6148 77.3714 90.0573C79.2341 89.3122 80.6601 88.0096 81.457 86.1247C81.7308 85.4808 81.9085 84.7974 82.1626 84.0326C82.5696 84.5852 82.471 85.1157 82.503 85.6189C82.5252 85.9199 82.508 86.2456 82.619 86.5145C82.9718 87.3583 83.5614 88.0219 84.2818 88.5844C85.2884 89.3615 86.4479 89.6083 87.679 89.6576C88.8583 89.7069 90.0104 89.887 91.1182 90.4076C91.5178 89.3122 91.7004 88.2464 91.1823 87.114C90.6494 87.4323 90.0869 87.7283 89.5466 87.3089C89.1025 86.9635 88.7571 86.4898 88.3525 86.0606C88.2588 86.174 88.17 86.2949 88.0639 86.406C87.5483 86.9389 87.0351 87.4791 86.3048 87.7357C85.7769 87.9232 85.2193 87.7974 85.1453 87.3533C84.9504 86.1444 84.0992 85.3476 83.443 84.4224C82.0022 82.392 81.3879 80.137 81.6741 77.6601C81.7826 76.693 82.0022 75.7407 82.1823 74.7168C81.4742 75.2423 80.7983 75.7752 80.0927 76.2612C78.2078 77.5515 76.3599 78.8986 74.406 80.0803C71.5984 81.7777 69.2818 84.0079 67.0886 86.3961C65.7489 87.8615 64.3155 89.2185 62.4677 90.2941ZM135.714 84.9849C134.436 83.5466 133.012 82.2736 131.428 81.1856C128.68 79.3056 125.907 77.4578 123.149 75.5976C122.742 75.3237 122.33 75.0523 121.922 74.7785C121.915 75.0474 122.031 75.2152 122.093 75.4027C122.159 75.605 122.147 75.8295 122.204 76.0367C123.033 79.1428 122.48 81.9849 120.595 84.5778C119.964 85.4487 119.204 86.2333 119.011 87.3657C118.947 87.7407 118.424 87.9602 118.022 87.8048C117.652 87.6642 117.289 87.4643 116.981 87.2201C116.532 86.8648 116.132 86.4454 115.784 86.1173C115.36 86.549 114.997 87.0153 114.541 87.3533C113.988 87.7653 113.445 87.3459 112.93 87.1189C112.547 88.2612 112.58 89.3369 113.051 90.3509C113.544 90.2004 113.976 90.0203 114.427 89.9438C115.19 89.813 115.962 89.7242 116.732 89.6576C117.832 89.5639 118.885 89.364 119.774 88.656C120.864 87.79 121.821 86.8574 121.649 85.2686C121.609 84.9035 121.767 84.5162 121.834 84.1412C121.898 84.1387 121.967 84.1288 122.031 84.1264C122.135 84.4298 122.268 84.7283 122.337 85.0367C122.786 87.1189 124.116 88.5351 125.843 89.6083C127.466 90.6148 129.356 90.8517 131.253 91.387C131.174 90.8764 131.152 90.4397 131.036 90.0375C130.797 89.1814 130.597 88.318 129.859 87.679C129.442 87.3163 129.107 86.813 129.082 86.1814C130.427 87.0967 131.687 88.0836 133.069 88.8681C134.465 89.665 136.012 90.1757 137.608 90.4471C139.167 90.7135 140.729 91.1354 142.37 90.7974C141.368 90.077 140.359 89.475 139.501 88.7053C138.213 87.5532 137.033 86.2949 135.714 84.9849ZM183.23 58.4191C182.371 59.6107 181.251 60.5014 179.929 61.1527C182.904 64.6387 183.97 68.9833 182.754 73.0762C183.82 73.1058 184.093 73.0367 185.001 72.5186C184.967 72.1165 184.922 71.7168 184.915 71.3147C184.908 70.9125 184.883 70.4956 184.964 70.1107C185.278 68.5639 186.625 68.4405 187.464 69.1338C188.127 69.679 188.603 70.3426 188.954 71.1074C189.262 71.7834 189.548 72.4717 189.844 73.1502C189.958 72.3558 189.975 71.5984 189.817 70.8829C189.588 69.8295 189.306 68.7736 188.924 67.7645C188.221 65.9166 187.464 64.0935 186.657 62.2851C186.067 60.9627 185.329 59.7045 184.732 58.3821C184.372 57.5951 184.377 56.7736 184.797 55.9643C185.648 54.3139 187.7 53.818 189.457 54.8023C191.492 55.9397 192.556 57.8566 193.343 59.9487C193.945 61.5573 194.228 63.2349 194.302 64.952C194.307 65.0852 194.379 65.216 194.421 65.3467C194.628 65.1321 194.739 64.9101 194.754 64.6831C194.848 63.4791 194.978 62.2703 194.986 61.0639C195.003 59.1099 194.515 57.2423 193.609 55.5227C192.092 52.6461 189.889 50.3936 187.037 48.8073C185.004 47.6749 182.88 47.4553 180.664 48.1708C179.912 48.415 179.149 49.1033 178.846 49.7991C179.186 49.767 179.524 49.7053 179.862 49.7028C181.093 49.6831 182.196 50.0211 183.042 50.9611C184.303 52.3574 184.565 54.0326 184.269 55.8163C184.113 56.6971 183.832 57.5556 183.23 58.4191ZM9.22753 62.5589C9.28428 63.6667 9.33855 64.7719 9.69628 65.9043C9.90845 64.4512 10.0614 63.0745 10.318 61.7201C10.6979 59.7464 11.5244 57.9528 12.8098 56.4035C13.656 55.3821 14.6453 54.563 16.0219 54.3632C17.2111 54.188 18.2497 54.494 19.0195 55.4339C19.7719 56.3492 19.9175 57.3879 19.3797 58.4759C18.6839 59.887 17.9117 61.2637 17.2851 62.7045C16.4216 64.688 15.6198 66.6987 14.8871 68.7291C14.4553 69.9183 14.142 71.1642 14.1938 72.4594C14.2037 72.642 14.2555 72.8245 14.3196 73.2119C14.6798 72.3484 14.9315 71.6897 15.2251 71.0507C15.5902 70.2563 16.0984 69.5606 16.8114 69.04C17.5195 68.5219 18.4619 68.6453 18.8887 69.4101C19.133 69.8443 19.2292 70.3994 19.2637 70.9076C19.2983 71.4824 19.1897 72.0647 19.1453 72.6296C19.9348 72.9035 20.6502 73.2439 21.4323 73.0861C20.1173 68.5589 21.3805 64.7028 24.1955 61.1699C23.781 60.9183 23.3542 60.6864 22.9545 60.4076C20.2728 58.5573 19.1576 55.6214 20.1617 52.5523C20.5812 51.2694 21.3953 50.3097 22.7275 49.9742C23.5688 49.7645 24.4619 49.7472 25.3451 49.6412C25.2193 49.4907 25.0713 49.2538 24.869 49.0787C23.2777 47.7069 21.4002 47.5367 19.4487 47.9315C17.781 48.2694 16.3402 49.1354 15.0302 50.1987C11.1741 53.3344 8.8772 57.23 9.22753 62.5589ZM104.616 71.924C105.422 71.7168 106.266 71.5959 107.026 71.2777C108.696 70.5869 109.91 69.4594 109.979 67.5055C110.031 65.9857 109.473 64.6658 108.558 63.4742C108.269 63.0992 108.015 63.0178 107.539 63.2176C105.746 63.9701 103.831 64.281 101.909 64.2563C100.212 64.2316 98.5195 63.938 96.8986 63.3484C96.6124 63.2472 96.3361 63.1313 96.0672 63.0301C95.0335 63.9257 94.545 65.0655 94.2859 66.2842C93.9183 67.9964 94.3895 69.4915 95.8328 70.5622C96.7062 71.2086 97.7078 71.6329 98.7958 71.8155C100.673 72.1288 102.558 72.1165 104.616 71.924ZM142.972 76.2489C143.251 76.2736 143.529 76.281 143.808 76.3254C145.94 76.6708 148.012 77.1494 149.218 79.1354C149.665 78.906 150.077 78.6913 150.487 78.4915C151.056 78.2102 151.575 78.3805 152.068 78.6987C152.389 78.906 152.522 79.1724 152.3 79.5548C152.201 79.4857 152.127 79.4314 152.056 79.3796C151.399 78.8813 150.963 78.9282 150.504 79.5696C150.378 79.7448 150.304 79.952 150.195 80.1395C149.495 81.3213 150.805 82.5992 151.826 82.4191C152.132 82.3673 152.438 82.3056 152.732 82.2168C155.058 81.4915 155.426 79.2069 154.513 77.5071C154.15 76.8311 153.573 76.4611 152.848 76.2859C152.579 76.2193 152.283 76.1872 152.056 76.049C151.876 75.938 151.787 75.6864 151.656 75.4964C151.846 75.3731 152.033 75.1584 152.233 75.1486C152.771 75.1239 153.242 74.9833 153.753 74.628C152.966 74.4158 152.251 74.2629 151.562 74.031C150.854 73.7892 150.183 73.7324 149.497 74.0951C149.169 74.2703 148.821 74.4282 148.35 74.0754C148.468 73.8435 148.557 73.5647 148.725 73.35C148.913 73.1107 149.221 72.9602 149.384 72.7111C149.616 72.3484 150.052 72.04 149.872 71.5071C149.559 71.6329 149.283 71.7711 148.989 71.8648C146.966 72.4865 144.899 72.8245 142.784 72.9602C141.679 73.0293 140.552 73.1305 139.483 73.4018C137.241 73.9767 134.978 74.2456 132.669 74.1272C131.648 74.0754 130.629 73.9569 129.612 73.8583C127.446 73.6461 125.342 73.1675 123.277 72.4717C122.532 72.2176 121.774 71.9956 121.027 71.7538C121.022 71.9833 121.071 72.1041 121.16 72.1609C122.556 73.012 123.908 73.952 125.369 74.665C126.408 75.1732 127.577 75.5482 128.719 75.679C130.501 75.8788 132.311 75.9158 134.103 75.8467C137.016 75.716 139.922 75.6839 142.972 76.2489ZM68.2432 74.0334C67.2341 73.8681 66.2078 73.7744 65.2234 73.5178C64.1083 73.2291 63.0055 72.9676 61.8435 72.938C59.2432 72.8739 56.702 72.4471 54.2103 71.5145C54.304 72.3089 54.827 72.7875 55.3476 73.2514C55.619 73.4931 55.9298 73.7127 55.7177 74.0828C55.4932 74.4701 55.1182 74.253 54.7974 74.1568C54.7407 74.1395 54.6913 74.0828 54.6346 74.0704C54.1856 73.9939 53.7267 73.8336 53.2876 73.8681C52.8065 73.9027 52.3427 74.1321 51.8616 74.253C51.3978 74.3764 50.929 74.4701 50.3196 74.6132C50.6576 74.776 50.8353 74.9018 51.04 74.9537C51.3657 75.04 51.7111 75.0425 52.0343 75.1412C52.2168 75.1979 52.4636 75.3484 52.4981 75.4964C52.5252 75.642 52.3599 75.8936 52.2094 75.9972C52.0121 76.1305 51.7481 76.1675 51.5112 76.2415C51.2473 76.3254 50.9759 76.3821 50.7193 76.4882C48.9923 77.1889 48.5483 80.4701 50.369 81.6543C50.8723 81.9849 51.4767 82.1971 52.0614 82.355C52.9323 82.5918 53.8131 82.1033 54.1017 81.3139C54.3163 80.7316 53.8895 79.4931 53.2802 79.1921C53.0187 79.0614 52.6313 79.1231 52.3254 79.1921C52.1379 79.2316 51.9923 79.4487 51.8246 79.5869C51.7974 79.2612 51.8344 78.9183 52.0219 78.7653C52.4611 78.4051 52.9989 78.1954 53.5762 78.452C54.0474 78.6617 54.5038 78.9109 54.9677 79.1428C55.7053 77.9413 57.0573 76.9865 58.5376 76.693C59.6626 76.4734 60.8048 76.355 61.9298 76.1428C64.355 75.6913 66.8024 75.7407 69.2571 75.7851C71.2062 75.8221 73.1601 75.8245 75.1017 75.6938C76.0688 75.6296 77.0335 75.2966 77.9636 74.9833C79.8262 74.3566 81.4249 73.2316 83.0261 72.1288C83.1173 72.0647 83.1642 71.929 83.3147 71.702C82.9471 71.7834 82.7325 71.7982 82.5376 71.8772C80.7785 72.5729 78.9652 73.0935 77.105 73.4314C74.2308 73.9693 71.3418 74.3073 68.2432 74.0334ZM160.362 74.3319C160.575 74.7859 160.792 75.2423 160.987 75.6716C161.349 75.1708 161.658 74.628 162.077 74.1889C162.864 73.3673 163.691 72.5852 164.537 71.8278C166.167 70.3747 168.144 69.4594 170.024 68.401C170.5 68.1321 170.956 67.8188 171.437 67.5129C171.96 68.2826 171.489 69.2916 172.17 70.0071C172.454 69.1732 172.74 68.3912 172.987 67.6017C173.172 67.0194 173.529 66.5729 173.981 66.1856C174.62 65.6354 174.945 65.6847 175.478 66.4742C176.105 65.1913 177.2 64.3698 178.15 63.4175C178.695 62.8722 179.174 62.2974 179.394 61.3648C176.875 62.3591 174.538 61.9446 172.316 60.827C170.073 59.6995 168.506 57.8764 167.436 55.5795C168.102 58.841 167.862 61.8903 165.644 64.6264C165.953 64.7201 166.177 64.8064 166.404 64.8533C166.979 64.9767 167.495 65.1889 167.633 65.818C167.764 66.4249 167.273 66.7135 166.866 66.9701C165.928 67.5499 164.964 68.0754 164.019 68.6157C164.275 68.702 164.601 68.7958 164.912 68.924C165.533 69.1905 165.615 69.5359 165.188 70.0737C165.094 70.1921 164.959 70.276 164.85 70.3772C163.34 71.7736 161.645 72.8665 159.57 73.4314C159.842 73.7324 160.061 73.9717 160.362 74.3319ZM39.7802 71.9142C41.0631 73.0441 42.378 74.1469 43.2514 75.9306C43.3501 74.7637 43.9397 74.1074 44.5836 73.4191C43.2514 73.0614 42.1091 72.531 41.0754 71.7908C40.4241 71.3221 39.7851 70.8262 39.1905 70.2884C38.4479 69.6173 38.5639 69.1535 39.494 68.8303C39.7234 68.7538 39.9504 68.6724 40.2687 68.5589C39.7185 68.3147 39.2547 68.1444 38.8229 67.9125C38.0655 67.5055 37.2711 67.1453 36.7234 66.4372C36.3928 66.0104 36.3756 65.7365 36.7604 65.3912C36.9997 65.1716 37.318 65.0211 37.6214 64.8879C37.8879 64.7694 38.1839 64.7152 38.5639 64.6066C37.4191 63.3755 36.864 61.9767 36.5853 60.4693C36.304 58.952 36.4052 57.4298 36.679 55.6856C36.0721 56.6305 35.6428 57.4643 35.0532 58.165C34.4438 58.8854 33.7382 59.5614 32.966 60.0992C32.1889 60.642 31.3131 61.0935 30.4175 61.3895C29.517 61.688 28.54 61.8657 27.5951 61.878C26.6626 61.8953 25.7226 61.6387 24.6198 61.4759C25.0466 62.1099 25.3525 62.7242 25.804 63.1979C26.8131 64.2514 27.9874 65.1518 28.7448 66.4816C29.221 65.6675 29.4997 65.628 30.156 66.1486C30.8739 66.7185 31.1946 67.5079 31.4438 68.3467C31.614 68.9166 31.8287 69.4742 32.0285 70.0367C32.0705 70.0293 32.1149 70.017 32.1543 70.0071C32.3172 69.1782 32.48 68.3517 32.6552 67.4561C33.2177 67.8139 33.6445 68.1198 34.1009 68.3714C36.0055 69.4471 37.9841 70.4018 39.7802 71.9142ZM110.645 64.7645C110.894 65.1346 110.971 65.6329 111.538 65.7489C113.413 66.1412 115.209 66.0499 116.924 65.0606C118.291 64.2711 119.263 63.0869 120.163 61.8583C120.778 61.0194 121.266 60.0178 121.145 58.9224C120.876 56.5293 119.394 55.3254 117.052 55.2069C116.519 55.1823 116.154 55.3772 115.885 55.9101C114.99 57.6938 113.751 59.2283 112.185 60.4668C111.208 61.2341 110.174 61.9323 109.246 62.6083C109.686 63.2694 110.144 63.9504 110.645 64.7645ZM87.0425 64.9199C88.7941 66.0671 90.6938 66.1782 92.67 65.7143C92.8797 65.665 93.1535 65.48 93.23 65.2949C93.6617 64.2686 94.2489 63.3558 95.0828 62.591C92.1198 60.9701 89.7859 58.8213 88.2637 55.8731C88.0269 55.4167 87.7111 55.1527 87.2621 55.2217C86.4775 55.3451 85.6264 55.4265 84.9504 55.7917C83.0705 56.818 82.508 59.1025 83.5343 61.0268C84.3608 62.5737 85.5252 63.8245 87.0425 64.9199ZM190.005 67.0194C190.765 69.0277 191.315 71.0778 191.352 73.2514C191.433 73.1428 191.478 73.0318 191.505 72.9232C191.823 71.7514 191.621 70.5819 191.497 69.4101C191.184 66.3681 190.488 63.4323 189.131 60.6765C188.917 60.2374 189.084 59.929 189.563 59.9117C189.963 59.8969 190.249 60.0869 190.488 60.4199C190.947 61.0639 190.952 61.8262 191.12 62.5417C191.742 65.2037 192.225 67.8879 192.287 70.6313C192.299 71.2579 192.287 71.8796 192.287 72.5063C192.718 71.6724 193.207 70.8213 193.269 69.938C193.488 66.7678 193.412 63.605 192.284 60.568C191.697 58.989 190.903 57.531 189.617 56.4035C188.973 55.8361 188.241 55.4635 187.338 55.5523C186.124 55.6732 185.448 56.6305 185.84 57.7801C186.047 58.3895 186.336 58.9767 186.642 59.5466C187.915 61.9101 189.097 64.3204 190.005 67.0194ZM70.3081 39.8961C70.1453 39.7135 69.9899 39.5162 69.8147 39.3509C68.6231 38.2185 67.503 38.2752 66.1683 38.9956C65.2752 39.4767 64.9619 40.2711 65.0409 41.2505C65.1099 42.1066 65.4307 42.8764 65.8994 43.5745C66.864 45.0129 68.1469 46.1206 69.6568 46.9298C70.8904 47.5885 72.2004 47.9882 73.7103 47.3813C73.508 47.2727 73.3821 47.2061 73.2588 47.142C72.6371 46.8089 71.9636 46.5301 71.4035 46.1206C70.7867 45.6691 70.2415 45.114 69.721 44.5565C69.3336 44.1444 69.3509 43.5844 69.6519 43.2958C69.9455 43.0145 70.4043 43.0145 70.8558 43.2958C70.8805 43.3106 70.9101 43.3278 70.9348 43.3426C72.457 44.3887 73.9866 45.4273 75.5014 46.4857C77.221 47.6921 79.2144 48.2818 81.1116 49.091C81.1856 49.1231 81.2867 49.0836 81.42 49.0713C81.6247 48.6765 81.8369 48.2694 82.0565 47.85C78.3312 47.3616 75.3262 45.6148 72.7777 43.0663C71.8624 42.156 71.1667 41.0359 70.3081 39.8961ZM130.121 45.5828C130.708 45.1831 131.297 44.7884 131.88 44.3788C132.405 44.0038 132.906 43.5869 133.446 43.2341C133.853 42.9701 134.342 43.017 134.554 43.3155C134.793 43.6486 134.761 44.0236 134.566 44.369C134.492 44.4997 134.362 44.6009 134.27 44.7242C133.382 45.8443 132.232 46.5968 130.93 47.137C130.792 47.1938 130.673 47.3048 130.466 47.443C131.478 47.6946 132.351 47.7884 133.232 47.475C134.653 46.9717 135.894 46.1699 136.967 45.1313C137.818 44.3122 138.556 43.3895 138.918 42.2374C139.227 41.2555 139.35 40.2366 138.561 39.4323C137.653 38.5071 135.788 37.9421 134.554 39.1954C134.233 39.526 133.922 39.8714 133.639 40.2292C133.007 41.0285 132.457 41.8994 131.769 42.6444C129.173 45.452 126.025 47.2752 122.11 47.8574C122.342 48.2892 122.574 48.7086 122.83 49.1847C123.371 48.9602 123.847 48.753 124.333 48.563C125.744 48.0129 127.16 47.4874 128.423 46.6165C128.931 46.2711 129.474 45.9701 130.121 45.5828ZM12.7012 69.0795C12.3534 71.8772 12.3534 71.8846 12.7974 72.6296C12.8418 72.4224 12.8961 72.2842 12.9035 72.1461C13.0022 70.5523 13.4216 69.0227 13.9372 67.5326C14.818 64.9915 15.8788 62.5268 17.1913 60.1683C17.6379 59.3616 18.0252 58.5129 18.3682 57.6518C18.4816 57.3731 18.4496 56.9759 18.3509 56.6749C17.9833 55.5326 16.5869 55.3032 15.6272 55.7102C14.8994 56.0211 14.3073 56.512 13.8114 57.1165C12.5409 58.6461 11.8131 60.4421 11.3418 62.3467C10.73 64.8139 10.73 67.3254 10.8731 69.8418C10.9249 70.7497 11.369 71.5071 11.7316 72.3336C11.8994 70.5178 11.9833 68.7612 12.2325 67.0367C12.5162 65.0778 12.9331 63.1362 13.3279 61.1946C13.392 60.8764 13.5918 60.563 13.7867 60.2991C14.179 59.7686 14.5861 59.7859 15.1437 60.2991C13.7029 63.6987 12.9923 66.2053 12.7012 69.0795ZM66.3188 76.5893C63.7974 76.6757 61.3279 77.1247 58.8608 77.6009C57.4964 77.8648 56.4183 78.6025 55.5943 79.7127C55.4611 79.8928 55.3846 80.1395 55.355 80.3689C55.2662 81.1091 55.2119 81.8541 55.1404 82.6362C60.5409 81.4347 65.7835 79.7497 70.4784 76.5819C69.1511 76.5819 67.8213 76.5819 66.3188 76.5893ZM145.037 81.642C146.371 81.9849 147.711 82.3254 149.075 82.6757C148.974 82.049 148.769 81.5285 148.831 81.04C148.969 79.9939 148.424 79.3426 147.711 78.7727C146.983 78.1856 146.177 77.7637 145.232 77.5762C142.306 76.9939 139.357 76.5819 136.375 76.5129C135.467 76.4931 134.554 76.5548 133.476 76.5819C133.691 76.7892 133.745 76.8681 133.816 76.9051C135.664 77.8352 137.473 78.8591 139.375 79.6683C141.166 80.4331 143.051 80.9709 145.037 81.642ZM100.256 37.3525C101.14 37.7497 102.077 37.8188 102.992 37.619C104.934 37.1971 106.693 36.3953 107.996 34.8163C109.224 33.3213 109.449 33.6642 108.445 31.3944C106.92 33.605 104.907 34.7694 102.195 34.7917C99.4594 34.8114 97.3575 33.7579 95.7144 31.3599C95.4849 31.9742 95.3147 32.4208 95.1519 32.8722C95.0261 33.2226 95.1124 33.5285 95.332 33.8295C96.5606 35.4874 98.0754 36.7579 100.256 37.3525ZM97.0244 39.8221C99.2029 41.2826 101.628 41.2629 104.088 40.9816C105.635 40.8065 106.962 40.0836 108.176 39.1461C108.96 38.5392 109.693 37.8755 110.073 36.9232C110.144 36.7357 110.223 36.5088 110.177 36.3262C110.068 35.8624 109.888 35.4183 109.742 34.9816C108.847 35.8624 108.038 36.7579 107.125 37.5301C106.005 38.4824 104.727 39.1782 103.2 39.2275C102.455 39.2522 101.709 39.2694 100.969 39.2201C100.481 39.188 99.9874 39.0844 99.5236 38.9339C97.6881 38.3443 96.3484 37.0713 95.1198 35.6576C94.9126 35.4208 94.7152 35.1765 94.4562 34.8681C94.239 35.5318 94.0688 36.0573 93.906 36.5606C94.4932 38.0384 95.6231 38.9635 97.0244 39.8221ZM121.885 52.3402C122.078 51.7579 122.024 51.1831 121.88 50.6009C121.565 49.2982 120.876 48.2275 119.89 47.3443C118.992 46.54 117.958 46.355 116.751 46.7226C117.294 49.202 117.363 51.6494 116.663 54.1732C117.44 54.1732 118.091 54.0943 118.718 54.188C120.065 54.3829 121.242 53.781 121.885 52.3402ZM83.5589 53.892C83.9981 54.0301 84.4372 54.2818 84.8764 54.2818C85.7201 54.2768 86.5663 54.1264 87.4619 54.0301C86.7785 51.6074 86.9463 49.1576 87.3805 46.7226C85.952 46.3772 85.207 46.5548 84.2177 47.4035C83.4233 48.0819 82.846 48.9257 82.5006 49.8805C81.9553 51.3879 81.8813 52.7349 83.5589 53.892ZM107.601 29.6823C107.702 28.9816 107.327 28.4438 106.987 27.7974C105.941 29.8155 104.226 30.6173 102.109 30.6346C99.9504 30.6518 98.2333 29.7908 97.1428 27.7801C96.3336 29.6379 96.4496 30.3731 97.8953 31.5055C99.6593 32.8895 101.628 33.5606 103.871 32.813C105.455 32.2752 106.839 31.4561 107.601 29.6823ZM16.804 80.137C16.9841 81.2102 17.6379 81.943 18.6025 82.651C18.5335 82.3722 18.5187 82.2242 18.4619 82.0984C18.0326 81.1288 17.7514 80.1321 17.5886 79.0811C17.2629 77.0137 17.4948 75.0104 18.0425 73.012C18.2201 72.3558 18.3262 71.6773 18.3805 71.0014C18.415 70.5252 18.4397 69.901 17.892 69.716C17.3443 69.5285 17.0112 70.0318 16.7053 70.424C15.7086 71.6921 15.2078 73.1823 14.8624 74.7341C14.5565 76.1107 14.9882 77.9956 15.8912 78.9972C15.8147 78.1214 15.721 77.2308 15.6642 76.3352C15.6001 75.267 15.7284 74.2333 16.2094 73.2563C16.3895 72.8912 16.6116 72.6617 17.1247 72.7678C16.6042 75.1831 16.3476 77.5713 16.804 80.137ZM85.6461 34.5671C84.1165 34.4117 82.4833 35.4306 82.3377 36.6889C83.3394 35.739 84.5137 35.5268 85.8065 35.6403C89.3221 35.9512 90.6667 40.1773 88.878 42.5137C88.0565 43.5869 86.9734 44.2357 85.6881 44.7069C86.3542 45.1461 87.0869 45.0745 87.7382 45.2522C88.2242 44.5737 88.2242 44.5737 88.7941 44.4627C89.0211 44.8673 89.253 45.2818 89.4849 45.6913C89.7711 43.8484 90.2374 42.1387 90.9825 40.503C91.0639 40.3278 91.0491 40.0713 90.9948 39.8764C90.2793 37.1157 88.7127 35.1938 85.6461 34.5671ZM186.538 79.2316C186.25 80.3319 185.956 81.4298 185.64 82.6288C186.612 81.8541 187.259 81.0227 187.414 79.8311C187.626 78.1856 187.671 76.5548 187.407 74.9166C187.293 74.2012 187.17 73.4808 187.044 72.7283C187.57 72.6913 187.782 72.9356 187.964 73.3056C188.648 74.6847 188.542 76.1354 188.404 77.5959C188.364 78.0277 188.317 78.4594 188.278 78.8912C188.342 78.8986 188.404 78.906 188.468 78.9158C188.966 77.7662 189.568 76.6387 189.373 75.3114C189.144 73.7694 188.685 72.2916 187.841 70.9643C187.565 70.5301 187.195 70.1255 186.792 69.8073C186.38 69.4865 186.03 69.6543 185.897 70.1675C185.816 70.4635 185.754 70.7842 185.786 71.0828C185.872 71.7908 185.956 72.5063 186.149 73.1921C186.699 75.1239 186.921 77.0754 186.538 79.2316ZM120.928 35.2875C120.287 34.8361 119.601 34.4093 118.797 34.5351C117.728 34.7004 116.687 35.0186 115.799 35.6773C114.321 36.7826 113.519 38.3171 113.098 40.0713C113.061 40.2292 113.157 40.4241 113.214 40.5968C113.482 41.3813 113.801 42.156 114.025 42.9528C114.269 43.8311 114.427 44.7316 114.644 45.7333C114.916 45.2571 115.153 44.8451 115.424 44.3739C115.624 44.4701 115.836 44.5244 115.979 44.6551C116.154 44.813 116.263 45.04 116.423 45.262C117.102 45.0499 117.827 45.1387 118.478 44.6872C117.408 44.3196 116.505 43.8188 115.742 43.0589C113.687 41.0038 114.447 37.994 115.95 36.6667C117.363 35.4208 119.655 35.2505 121.227 36.2275C121.392 36.3287 121.572 36.415 121.824 36.5482C121.804 35.8944 121.333 35.6872 120.928 35.2875ZM98.6724 27.3484C98.7341 27.4175 98.8007 27.4866 98.8599 27.5532C101.009 29.9018 104.307 29.2949 105.723 26.9512C105.911 26.6379 106.153 26.3566 106.36 26.063C106.185 25.7078 106.012 25.3698 105.817 24.975C104.857 26.3023 103.538 26.5589 102.092 26.5663C100.619 26.5762 99.2917 26.2949 98.327 24.975C98.1198 25.4043 97.952 25.7522 97.8015 26.063C98.0828 26.4775 98.3443 26.8574 98.6724 27.3484ZM102.272 24.975C103.542 24.7678 104.559 24.1412 105.358 23.1518C105.141 22.5696 104.946 22.0293 104.734 21.4594C102.943 22.3254 101.196 22.3303 99.4175 21.4372C99.2103 22.0491 99.0203 22.5943 98.8229 23.1642C99.6963 24.2028 100.745 24.8788 102.272 24.975ZM45.6371 83.4775C45.8813 83.4997 46.1305 83.5392 46.3747 83.5342C47.2185 83.5194 47.9537 83.0384 48.1979 82.3673C48.5236 81.4767 48.3657 80.6823 47.6724 80.0951C47.327 79.8015 46.9274 79.5104 46.5006 79.3796C45.7876 79.1601 45.0228 79.0441 44.4208 79.6856C43.8262 80.3147 43.8015 81.077 44.0433 81.8541C44.2752 82.5992 44.7711 83.1247 45.6371 83.4775ZM18.5877 77.8155C18.7086 80.6255 19.9471 82.9125 21.8764 84.8739C22.3007 85.3056 22.7843 85.6757 23.554 85.6806C23.406 85.4783 23.3369 85.3426 23.2407 85.2464C22.7991 84.8097 22.3155 84.415 21.9085 83.9537C21.2374 83.1889 20.5367 82.4364 20.2062 81.4421C19.9372 80.6329 20.1864 80.2777 21.0376 80.2185C21.3015 80.1963 21.568 80.2135 22.0589 80.2135C20.0187 78.1856 19.3723 75.7653 19.0417 73.2045C18.5458 74.6699 18.5187 76.1502 18.5877 77.8155ZM160.234 81.0351C160.209 79.2933 158.872 78.975 157.668 79.3747C157.217 79.5252 156.805 79.8484 156.427 80.1494C155.682 80.7439 155.727 81.5778 155.966 82.355C156.21 83.1395 156.899 83.4454 157.686 83.5392C158.954 83.6872 160.224 82.5795 160.234 81.0351ZM181.614 84.6099C181.39 85.0367 180.714 85.0836 180.612 85.7374C181.446 85.6239 181.979 85.1847 182.48 84.674C184.841 82.2785 185.786 79.3624 185.598 76.049C185.547 75.1165 185.515 74.1716 185.103 73.2686C184.797 75.8221 184.081 78.1856 182.122 80.2061C182.522 80.2061 182.697 80.2012 182.872 80.2061C184.015 80.2456 184.308 80.702 183.844 81.7431C183.783 81.8838 183.711 82.0244 183.617 82.1428C182.988 82.9323 182.349 83.7217 181.614 84.6099ZM48.605 75.6617C48.4348 74.7341 47.8032 74.2505 46.9693 73.9569C45.9849 73.6115 44.7662 74.1889 44.4011 75.1831C44.0261 76.1946 44.4726 77.3122 45.4224 77.6403C46.6116 78.0548 48.4964 77.5441 48.605 75.6617ZM159.553 76.9964C160.135 76.1625 159.96 74.9018 159.065 74.2875C158.006 73.5573 157.106 73.7324 156.121 74.5885C155.283 75.3163 155.332 76.3698 156.117 77.1148C157.042 77.9833 158.512 77.9833 159.553 76.9964ZM75.8122 43.0145C75.9257 42.8468 76.0022 42.6346 76.1576 42.526C76.6017 42.2127 76.9841 42.526 77.3542 42.7259C77.7045 42.9158 78.0006 43.2341 78.5063 43.0959C77.8254 42.2941 77.1988 41.5268 76.54 40.7917C76.2785 40.4981 75.9701 40.2366 75.6494 40.0096C74.9611 39.526 74.216 39.679 73.8904 40.4339C73.73 40.7991 73.7029 41.2752 73.7645 41.6823C73.952 42.9578 75.0006 43.5301 75.9331 44.179C76.0515 44.2604 76.2316 44.2481 76.4216 44.2875C76.1946 43.8558 76.0096 43.5055 75.8122 43.0145ZM128.103 44.137C128.892 43.9421 129.432 43.3722 129.896 42.7851C130.219 42.3755 130.385 41.7958 130.491 41.2678C130.609 40.6658 130.283 40.1847 129.763 39.8788C129.274 39.5976 128.85 39.7333 128.404 40.0663C127.466 40.7596 126.906 41.7637 126.144 42.5976C126.114 42.6321 126.183 42.7579 126.237 42.9356C126.625 42.7727 126.97 42.5655 127.345 42.494C127.614 42.4397 127.964 42.4964 128.186 42.6444C128.317 42.7283 128.317 43.0959 128.285 43.3229C128.243 43.5548 128.093 43.7719 128.103 44.137ZM100.742 20.3443C101.07 20.4208 101.396 20.5466 101.732 20.5713C102.442 20.6231 103.13 20.5885 103.75 20.0951C104.051 19.8558 104.14 19.6338 104.051 19.3081C103.93 18.8665 103.782 18.4298 103.639 17.9734C102.603 17.9734 101.589 17.9734 100.538 17.9734C100.424 18.304 100.33 18.6296 100.2 18.943C99.9603 19.5079 100.079 19.952 100.742 20.3443ZM94.1946 32.3517C94.4833 31.6362 94.8435 30.9405 95.0458 30.1979C95.253 29.4578 95.7835 28.8139 95.7909 28.0787C94.5943 28.4635 93.4372 28.8385 92.2506 29.2209C93.1609 30.267 93.4915 31.6116 93.8443 33.1091C94.0047 32.8007 94.0812 32.6403 94.1946 32.3517ZM109.992 32.3936C110.08 32.6083 110.174 32.8254 110.349 33.2398C110.581 31.6066 111.07 30.3089 111.864 29.2135C110.67 28.8262 109.525 28.4512 108.284 28.0491C108.842 29.4775 109.387 30.8739 109.992 32.3936ZM101.327 16.1576C102.104 16.6954 102.709 16.281 103.33 15.8418C103.079 14.6206 102.96 13.4068 102.141 12.4249C102.028 12.494 101.922 12.5236 101.872 12.5926C101.214 13.5375 101.07 14.6551 100.836 15.7382C100.824 15.8319 101.075 15.9824 101.327 16.1576ZM147.109 70.5943C146.877 70.7744 146.645 70.952 146.413 71.1321C147.659 71.253 148.789 70.9027 149.934 70.6708C149.742 69.8245 149.564 69.0425 149.384 68.2481C148.651 69.003 147.923 69.7481 147.109 70.5943ZM42.7111 82.4734C42.3237 83.0458 41.9339 83.6255 41.4849 84.2916C42.6568 84.2916 43.7201 84.2916 44.7835 84.2916C43.915 83.7094 43.4241 82.8928 43.0491 81.8862C42.9233 82.1033 42.8443 82.2316 42.7111 82.4734ZM160.92 82.3229C160.681 83.1691 160.037 83.7069 159.302 84.2842C160.498 84.378 161.552 84.3903 162.647 84.2522C162.107 83.443 161.63 82.7201 161.137 81.98C161.036 82.0935 160.999 82.1403 160.92 82.3229ZM112.027 67.1576C111.83 67.0984 111.635 67.0318 111.363 66.943C111.363 67.5523 111.363 68.0951 111.363 68.5663C112.372 68.4405 113.352 68.3196 114.395 68.1889C113.934 67.5893 113.433 67.2637 112.723 67.3056C112.542 67.3204 112.355 67.2439 112.027 67.1576ZM99.1831 3.79988C98.6823 3.86402 98.67 3.88376 98.9463 4.40185C99.0351 4.26616 99.114 4.14527 99.1831 3.79988ZM98.0187 3.26945C97.9964 3.28672 97.9619 3.30152 97.9619 3.31879C97.957 3.33853 97.9841 3.3632 98.0014 3.38293C98.0211 3.3706 98.0433 3.3558 98.0187 3.26945ZM11.9241 72.6296L11.9438 72.6494C11.9438 72.6494 11.9463 72.605 11.9241 72.6296ZM120.822 71.7045C120.783 71.702 120.741 71.6971 120.696 71.6971C120.716 71.7168 120.738 71.7341 120.822 71.7045ZM155.695 57.5458C155.658 57.5236 155.621 57.4989 155.584 57.4742C155.589 57.526 155.596 57.5828 155.695 57.5458ZM125.882 43.0046C125.848 42.9824 125.811 42.9578 125.774 42.9331C125.776 42.9898 125.786 43.0417 125.882 43.0046ZM126.681 37.8361C126.662 37.9249 126.672 37.9742 126.681 38.026C126.738 37.9915 126.79 37.9545 126.815 37.8879C126.783 37.8509 126.714 37.7917 126.681 37.8361ZM77.4307 37.9002C77.4479 37.9545 77.4923 37.9742 77.5367 37.994C77.5047 37.9569 77.4726 37.9224 77.443 37.8805C77.4479 37.8755 77.4603 37.8681 77.4307 37.9002ZM61.7621 62.9438C61.8484 62.8278 61.8731 62.7366 61.9002 62.6477C61.7941 62.7119 61.693 62.7736 61.6165 62.8722C61.6437 62.9092 61.7053 62.9783 61.7621 62.9438Z" fill="#FF6842"/>
</g>
</g>
</svg>
