<svg width="52" height="38" viewBox="0 0 52 38" fill="none" xmlns="http://www.w3.org/2000/svg">
<path d="M18.8571 17.0714C28.7194 17.0714 36.7143 13.4737 36.7143 9.03571C36.7143 4.59771 28.7194 1 18.8571 1C8.99491 1 1 4.59771 1 9.03571C1 13.4737 8.99491 17.0714 18.8571 17.0714Z" stroke="#F66A5D" stroke-width="1.5" stroke-linecap="round" stroke-linejoin="round"/>
<path d="M1 9.03561V17.9642C1 22.4017 8.99553 25.9999 18.8571 25.9999C28.7187 25.9999 36.7143 22.4017 36.7143 17.9642V9.03561" stroke="#F66A5D" stroke-width="1.5" stroke-linecap="round" stroke-linejoin="round"/>
<path d="M11.7139 16.4019V25.3305" stroke="#F66A5D" stroke-width="1.5" stroke-linecap="round" stroke-linejoin="round"/>
<path d="M36.7146 11.8751C44.8663 12.6207 51.0003 15.8617 51.0003 19.7501C51.0003 24.1876 43.0047 27.7858 33.1431 27.7858C28.7681 27.7858 24.7592 27.0782 21.6543 25.9019" stroke="#F66A5D" stroke-width="1.5" stroke-linecap="round" stroke-linejoin="round"/>
<path d="M15.2861 25.8393V28.6786C15.2861 33.1161 23.2817 36.7143 33.1433 36.7143C43.0049 36.7143 51.0004 33.1161 51.0004 28.6786V19.75" stroke="#F66A5D" stroke-width="1.5" stroke-linecap="round" stroke-linejoin="round"/>
<path d="M40.2861 27.116V36.0446" stroke="#F66A5D" stroke-width="1.5" stroke-linecap="round" stroke-linejoin="round"/>
<path d="M26 16.4019V36.0447" stroke="#F66A5D" stroke-width="1.5" stroke-linecap="round" stroke-linejoin="round"/>
</svg>
