<svg width="47" height="53" viewBox="0 0 47 53" fill="none" xmlns="http://www.w3.org/2000/svg">
<rect width="47" height="53" rx="15" fill="#D9F7E8"/>
<path d="M24.9951 30.7862C26.1708 30.054 27.076 28.9587 27.5738 27.6661C28.0716 26.3736 28.1349 24.954 27.7541 23.6223C27.3733 22.2906 26.5691 21.1191 25.4632 20.2851C24.3573 19.4511 23.0099 19 21.6248 19C20.2396 19 18.8922 19.4511 17.7863 20.2851C16.6804 21.1191 15.8762 22.2906 15.4954 23.6223C15.1146 24.954 15.1779 26.3736 15.6757 27.6661C16.1735 28.9587 17.0787 30.054 18.2544 30.7862C16.3185 31.42 14.5766 32.6041 13.176 34.2709C13.048 34.4232 12.9856 34.6202 13.0028 34.8184C13.0199 35.0166 13.1151 35.1999 13.2674 35.328C13.4197 35.456 13.6166 35.5183 13.8149 35.5012C14.0131 35.484 14.1964 35.3889 14.3244 35.2366C16.206 32.9903 18.7991 31.7538 21.6201 31.7538C24.441 31.7538 27.0341 32.9903 28.9204 35.2366C29.0484 35.3889 29.2317 35.484 29.43 35.5012C29.6282 35.5183 29.8251 35.456 29.9774 35.328C30.1297 35.1999 30.2249 35.0166 30.242 34.8184C30.2592 34.6202 30.1969 34.4232 30.0688 34.2709C28.6682 32.6041 26.9263 31.42 24.9951 30.7862ZM16.7451 25.3787C16.7451 24.4146 17.031 23.472 17.5667 22.6703C18.1023 21.8687 18.8637 21.2438 19.7545 20.8748C20.6453 20.5059 21.6255 20.4093 22.5711 20.5974C23.5168 20.7855 24.3854 21.2498 25.0672 21.9316C25.749 22.6134 26.2133 23.482 26.4014 24.4277C26.5895 25.3733 26.493 26.3535 26.124 27.2443C25.755 28.1351 25.1302 28.8965 24.3285 29.4322C23.5268 29.9678 22.5843 30.2537 21.6201 30.2537C20.3276 30.2523 19.0885 29.7382 18.1746 28.8243C17.2607 27.9103 16.7466 26.6712 16.7451 25.3787ZM35.2757 28.5344L32.2757 31.5344C32.206 31.6041 32.1233 31.6594 32.0323 31.6972C31.9412 31.7349 31.8436 31.7543 31.7451 31.7543C31.6465 31.7543 31.5489 31.7349 31.4579 31.6972C31.3668 31.6594 31.2841 31.6041 31.2144 31.5344L29.7144 30.0344C29.5737 29.8936 29.4947 29.7028 29.4947 29.5037C29.4947 29.3047 29.5737 29.1139 29.7144 28.9731C29.8552 28.8324 30.046 28.7533 30.2451 28.7533C30.4441 28.7533 30.635 28.8324 30.7757 28.9731L31.7451 29.9434L34.2144 27.4731C34.3552 27.3324 34.546 27.2533 34.7451 27.2533C34.9441 27.2533 35.135 27.3324 35.2757 27.4731C35.4164 27.6139 35.4955 27.8047 35.4955 28.0037C35.4955 28.2028 35.4164 28.3936 35.2757 28.5344Z" fill="#4AD991"/>
</svg>
