<svg width="53" height="53" viewBox="0 0 53 53" fill="none" xmlns="http://www.w3.org/2000/svg">
<rect width="53" height="53" rx="10" fill="#D9F7E8"/>
<path d="M26.9951 30.7862C28.1708 30.054 29.076 28.9587 29.5738 27.6661C30.0716 26.3736 30.1349 24.954 29.7541 23.6223C29.3733 22.2906 28.5691 21.1191 27.4632 20.2851C26.3573 19.4511 25.0099 19 23.6248 19C22.2396 19 20.8922 19.4511 19.7863 20.2851C18.6804 21.1191 17.8762 22.2906 17.4954 23.6223C17.1146 24.954 17.1779 26.3736 17.6757 27.6661C18.1735 28.9587 19.0787 30.054 20.2544 30.7862C18.3185 31.42 16.5766 32.6041 15.176 34.2709C15.048 34.4232 14.9856 34.6202 15.0028 34.8184C15.0199 35.0166 15.1151 35.1999 15.2674 35.328C15.4197 35.456 15.6166 35.5183 15.8149 35.5012C16.0131 35.484 16.1964 35.3889 16.3244 35.2366C18.206 32.9903 20.7991 31.7538 23.6201 31.7538C26.441 31.7538 29.0341 32.9903 30.9204 35.2366C31.0484 35.3889 31.2317 35.484 31.43 35.5012C31.6282 35.5183 31.8251 35.456 31.9774 35.328C32.1297 35.1999 32.2249 35.0166 32.242 34.8184C32.2592 34.6202 32.1969 34.4232 32.0688 34.2709C30.6682 32.6041 28.9263 31.42 26.9951 30.7862ZM18.7451 25.3787C18.7451 24.4146 19.031 23.472 19.5667 22.6703C20.1023 21.8687 20.8637 21.2438 21.7545 20.8748C22.6453 20.5059 23.6255 20.4093 24.5711 20.5974C25.5168 20.7855 26.3854 21.2498 27.0672 21.9316C27.749 22.6134 28.2133 23.482 28.4014 24.4277C28.5895 25.3733 28.493 26.3535 28.124 27.2443C27.755 28.1351 27.1302 28.8965 26.3285 29.4322C25.5268 29.9678 24.5843 30.2537 23.6201 30.2537C22.3276 30.2523 21.0885 29.7382 20.1746 28.8243C19.2607 27.9103 18.7466 26.6712 18.7451 25.3787ZM37.2757 28.5344L34.2757 31.5344C34.206 31.6041 34.1233 31.6594 34.0323 31.6972C33.9412 31.7349 33.8436 31.7543 33.7451 31.7543C33.6465 31.7543 33.5489 31.7349 33.4579 31.6972C33.3668 31.6594 33.2841 31.6041 33.2144 31.5344L31.7144 30.0344C31.5737 29.8936 31.4947 29.7028 31.4947 29.5037C31.4947 29.3047 31.5737 29.1139 31.7144 28.9731C31.8552 28.8324 32.046 28.7533 32.2451 28.7533C32.4441 28.7533 32.635 28.8324 32.7757 28.9731L33.7451 29.9434L36.2144 27.4731C36.3552 27.3324 36.546 27.2533 36.7451 27.2533C36.9441 27.2533 37.135 27.3324 37.2757 27.4731C37.4164 27.6139 37.4955 27.8047 37.4955 28.0037C37.4955 28.2028 37.4164 28.3936 37.2757 28.5344Z" fill="#4AD991"/>
</svg>
