<svg width="53" height="53" viewBox="0 0 53 53" fill="none" xmlns="http://www.w3.org/2000/svg">
<rect width="53" height="53" rx="10" fill="#E5E4FF"/>
<path d="M33.75 17H21C20.2044 17 19.4413 17.3161 18.8787 17.8787C18.3161 18.4413 18 19.2044 18 20V35.75C18 35.9489 18.079 36.1397 18.2197 36.2803C18.3603 36.421 18.5511 36.5 18.75 36.5H32.25C32.4489 36.5 32.6397 36.421 32.7803 36.2803C32.921 36.1397 33 35.9489 33 35.75C33 35.5511 32.921 35.3603 32.7803 35.2197C32.6397 35.079 32.4489 35 32.25 35H19.5C19.5 34.6022 19.658 34.2206 19.9393 33.9393C20.2206 33.658 20.6022 33.5 21 33.5H33.75C33.9489 33.5 34.1397 33.421 34.2803 33.2803C34.421 33.1397 34.5 32.9489 34.5 32.75V17.75C34.5 17.5511 34.421 17.3603 34.2803 17.2197C34.1397 17.079 33.9489 17 33.75 17ZM25.5 18.5H30V25.25L28.1991 23.9C28.0692 23.8026 27.9113 23.75 27.7491 23.75C27.5868 23.75 27.4289 23.8026 27.2991 23.9L25.5 25.25V18.5ZM33 32H21C20.4733 31.9993 19.9557 32.138 19.5 32.4022V20C19.5 19.6022 19.658 19.2206 19.9393 18.9393C20.2206 18.658 20.6022 18.5 21 18.5H24V26.75C24 26.8893 24.0388 27.0258 24.112 27.1443C24.1852 27.2628 24.29 27.3585 24.4146 27.4208C24.5392 27.4831 24.6786 27.5095 24.8174 27.497C24.9561 27.4845 25.0886 27.4336 25.2 27.35L27.75 25.4375L30.3009 27.35C30.4305 27.4472 30.588 27.4998 30.75 27.5C30.9489 27.5 31.1397 27.421 31.2803 27.2803C31.421 27.1397 31.5 26.9489 31.5 26.75V18.5H33V32Z" fill="#8280FF"/>
</svg>
