<svg width="47" height="53" viewBox="0 0 47 53" fill="none" xmlns="http://www.w3.org/2000/svg">
<rect width="47" height="53" rx="15" fill="#E5E4FF"/>
<path d="M30.75 17H18C17.2044 17 16.4413 17.3161 15.8787 17.8787C15.3161 18.4413 15 19.2044 15 20V35.75C15 35.9489 15.079 36.1397 15.2197 36.2803C15.3603 36.421 15.5511 36.5 15.75 36.5H29.25C29.4489 36.5 29.6397 36.421 29.7803 36.2803C29.921 36.1397 30 35.9489 30 35.75C30 35.5511 29.921 35.3603 29.7803 35.2197C29.6397 35.079 29.4489 35 29.25 35H16.5C16.5 34.6022 16.658 34.2206 16.9393 33.9393C17.2206 33.658 17.6022 33.5 18 33.5H30.75C30.9489 33.5 31.1397 33.421 31.2803 33.2803C31.421 33.1397 31.5 32.9489 31.5 32.75V17.75C31.5 17.5511 31.421 17.3603 31.2803 17.2197C31.1397 17.079 30.9489 17 30.75 17ZM22.5 18.5H27V25.25L25.1991 23.9C25.0692 23.8026 24.9113 23.75 24.7491 23.75C24.5868 23.75 24.4289 23.8026 24.2991 23.9L22.5 25.25V18.5ZM30 32H18C17.4733 31.9993 16.9557 32.138 16.5 32.4022V20C16.5 19.6022 16.658 19.2206 16.9393 18.9393C17.2206 18.658 17.6022 18.5 18 18.5H21V26.75C21 26.8893 21.0388 27.0258 21.112 27.1443C21.1852 27.2628 21.29 27.3585 21.4146 27.4208C21.5392 27.4831 21.6786 27.5095 21.8174 27.497C21.9561 27.4845 22.0886 27.4336 22.2 27.35L24.75 25.4375L27.3009 27.35C27.4305 27.4472 27.588 27.4998 27.75 27.5C27.9489 27.5 28.1397 27.421 28.2803 27.2803C28.421 27.1397 28.5 26.9489 28.5 26.75V18.5H30V32Z" fill="#8280FF"/>
</svg>
