<svg width="53" height="53" viewBox="0 0 53 53" fill="none" xmlns="http://www.w3.org/2000/svg">
<rect width="53" height="53" rx="10" fill="#FFF3D6"/>
<path d="M26 31C28.2091 31 30 29.2091 30 27C30 24.7909 28.2091 23 26 23C23.7909 23 22 24.7909 22 27C22 29.2091 23.7909 31 26 31Z" stroke="#FEC53D" stroke-width="2" stroke-linecap="round" stroke-linejoin="round"/>
<path d="M40 19H12V35H40V19Z" stroke="#FEC53D" stroke-width="2" stroke-linecap="round" stroke-linejoin="round"/>
<path d="M40 24C38.7509 23.7883 37.5985 23.1933 36.7026 22.2974C35.8067 21.4015 35.2117 20.2491 35 19" stroke="#FEC53D" stroke-width="2" stroke-linecap="round" stroke-linejoin="round"/>
<path d="M35 35C35.2117 33.7509 35.8067 32.5985 36.7026 31.7026C37.5985 30.8067 38.7509 30.2117 40 30" stroke="#FEC53D" stroke-width="2" stroke-linecap="round" stroke-linejoin="round"/>
<path d="M12 30C13.2491 30.2117 14.4015 30.8067 15.2974 31.7026C16.1933 32.5985 16.7883 33.7509 17 35" stroke="#FEC53D" stroke-width="2" stroke-linecap="round" stroke-linejoin="round"/>
<path d="M17 19C16.7883 20.2491 16.1933 21.4015 15.2974 22.2974C14.4015 23.1933 13.2491 23.7883 12 24" stroke="#FEC53D" stroke-width="2" stroke-linecap="round" stroke-linejoin="round"/>
</svg>
